<svg id="Title" xmlns="http://www.w3.org/2000/svg" viewBox="0 0 1024 800">
  <title>Tiny-text-svg</title>
  <path d="M7.32,650.15a3.33,3.33,0,0,1,.37,1.47c0,1.22-.86,2.07-2.56,2.56a3.35,3.35,0,0,1-1.47.36c-1.46,0-2.56-.85-3.29-2.56A5.84,5.84,0,0,1,0,650.15q0-5.85,17.94-5.86h1.83q2.93,0,18.31.74,11,.36,18.3.36,11.34-.36,33.32-1.46,22.69-1.11,33-1.1h8.79q23.79,0,60.41,1.46,38.07,2.21,68.09,2.57,2.56,0,9.52.36c4.15.25,7.44.37,9.89.37q13.53,0,15.37-2.56a4.48,4.48,0,0,1,2.57-1.1,3.48,3.48,0,0,1,2.56,1.1,3.52,3.52,0,0,1,1.1,2.56,4.52,4.52,0,0,1-1.1,2.56q-2.94,2.94-11.35,4H272.39q-7.32,0-20.87-.37-14.64-.36-20.87-.73-11.34-.36-34.78-1.46-22.34-1.11-34.41-1.47-11-.36-23.43-.37-20.52,0-45,1.1-26,1.47-43.56,1.47-8.79,0-15.38-.37-15.75-.74-17.21-.73a58.37,58.37,0,0,0-8,.37,11.34,11.34,0,0,0-2.57.73h.37A3.93,3.93,0,0,0,7.32,650.15Zm5.49-17.57a1.07,1.07,0,0,1,.37.73v.37c-.25.49-.49.73-.73.73a1,1,0,0,1-.73-.37l-2.93-1.46a16.41,16.41,0,0,0-2.93-1.47c0-.24.24-.6.73-1.1a4,4,0,0,1,.73-1.46q1.83,1.1,10.62,8.79,12.43,11,11.72,10.25c.48.24.73.49.73.73s-.25.61-.73,1.1a1.18,1.18,0,0,1-1.1.73,1.05,1.05,0,0,1-.74-.37q-3.29-1.46-11.34-8.78a135.3,135.3,0,0,1-11-10.25,1.06,1.06,0,0,1-.36-.74,1.49,1.49,0,0,1,.36-1.09,1.17,1.17,0,0,1,1.1-.74,1.07,1.07,0,0,1,.73.37c.73.49,1.59,1.1,2.57,1.83A22.09,22.09,0,0,1,12.81,632.58ZM5.49,140.15a4,4,0,0,1,.73-2.2c.74-1.46,1.71-2.19,2.93-2.19a3.52,3.52,0,0,1,1.83.73,5.63,5.63,0,0,0,1.47,1.1q3.65,1.47,11.35,1.46a106.83,106.83,0,0,0,11.71-.73h7.33q8,0,20.5.37,12.81.36,24.89.36,23.8,0,44.67-1.46,54.91-4,66.63-4H201q7.68,0,33.31,2.2,16.49,1.1,27.83,1.09h5.13q7.68-.36,32.21-1.83,19.77-1.1,31.86-1.09h2.56q35.5,0,60.41,9.51,55.28,20.88,75.78,62.61,10.25,21.62,11,50.89v2.56a213.11,213.11,0,0,1-7,53.82q-7.68,30.4-20.87,52.36a117,117,0,0,1-33.68,34.78q-31.85,21.6-91.9,33.32-4,.74-30.75,7-18.68,4-30.75,5.49a140.69,140.69,0,0,1-15,.74q-8.07,0-16.85-.74c-4.88-.73-8.66-1.33-11.34-1.83a30.77,30.77,0,0,0-4.4-1.1,1.06,1.06,0,0,0-.73-.36,1,1,0,0,0-.73.36,1.43,1.43,0,0,0,1.1-1.46v1.1a3.15,3.15,0,0,1-2.57,3.29,3.19,3.19,0,0,1-1.46.37c-1.47,0-2.44-1-2.93-2.93a10.44,10.44,0,0,1-.37-2.56c0-3.42,2.07-5.13,6.23-5.13a23.2,23.2,0,0,1,5.49.73,119.09,119.09,0,0,0,24.9,3.3h2.19q16.85,0,61.51-9.89,69.93-15.74,94.09-29.28t37-31.49q13.91-19.41,23.06-49.79a219.27,219.27,0,0,0,8.79-57.12q0-31.85-9.88-52Q443,166.88,387,148.2q-12.47-4-99.95-4H258.11q-10.25,0-33.31-2.2-18-1.46-29.29-1.46h-4q-12.82.36-34,2.19-25.26,2.21-34.41,2.57-13.92.74-31.49.73-17.22,0-37.71-.73-2.94,0-25.26.73H26q-13.17,0-18.67-3.3A3.08,3.08,0,0,1,5.49,140.15Zm1.1,465.33c0-1.7,1-2.56,2.93-2.56,2.44,0,3.78,1.23,4,3.66q.36,4,.36,12.08v9.16a162.67,162.67,0,0,0,1.1,21.6v1.1c0,1.46-.86,2.44-2.56,2.93a3.32,3.32,0,0,1-1.47.36c-1.46,0-2.32-.85-2.56-2.56Q7,643.19,7,628.92V619.4q0-8.79-.37-12.82ZM8.42,173.1a5.84,5.84,0,0,1-.37-1.83c0-1.22.86-2,2.57-2.2a3.24,3.24,0,0,1,1.46-.36c1.47,0,2.44.86,2.93,2.56q1.83,4,16.11,7.32Q43.2,180.8,50.89,183,78.72,191.4,89,207.15q11.34,17.58,12.08,52.35,0,11.36-.73,58.95-.37,12.82-.74,34.05-1.1,25.26-1.09,34.41v15.38q0,19,.36,54.18.36,17.22.37,31.49,0,21.24-.73,36.25-1.11,27.45-8.06,44.66-9.15,21.61-26,32.59a73.3,73.3,0,0,1-22,9.15Q22.33,615.74,11,616.1v-7h5.86c2.44,0,3.66,1.09,3.66,3.29q0,3.66-3.66,3.66H11q-3.66,0-3.66-3.66c0-2.2,1.22-3.29,3.66-3.29q9.89-.36,25.63-4.4Q49.8,601.46,56,598.16a55.93,55.93,0,0,0,23.79-23.8Q89,557.53,91.16,531.89q1.11-13.53,1.1-37.71,0-11.7-.36-26.36-.75-59.67-.74-69.92.36-12.45,1.1-34.42Q93,339,93,329.07q.74-35.16,1.1-60.41v-2.93q0-35.51-9.15-51.62-9.52-17.21-41-25.63-2.93-.73-10.25-2.2a100.8,100.8,0,0,1-10.25-2.56Q11,180.42,8.42,173.1ZM18.67,164a1.07,1.07,0,0,1,.37.73l-.37.37a.32.32,0,0,1-.36.36,1.06,1.06,0,0,1-.74-.36,74.45,74.45,0,0,0-7-5.13,1.16,1.16,0,0,1-.73-1.1,1.08,1.08,0,0,1,.36-.73,1.16,1.16,0,0,1,1.1-.73,1.06,1.06,0,0,1,.73.36q5.13,4,41,37.71a1.1,1.1,0,0,1,.36.74,1.06,1.06,0,0,1-.36.73,1.53,1.53,0,0,1-1.1.36h-.37q-2.92-1.81-41.37-37.71l1.83-1.83Q12.44,158.1,18.67,164Zm-.73-25.26q-.37,3.28-4,3.29c-1.95,0-2.93-.73-2.93-2.2v-1.09a10,10,0,0,1,1.1-4,2.47,2.47,0,0,1,2.2-1.1,3.32,3.32,0,0,1,1.46.37c1.71.49,2.69,2.8,2.93,6.95v25.63a41.16,41.16,0,0,0,.73,9.15,3.37,3.37,0,0,1,.37,1.47c0,1.22-.86,2.07-2.56,2.56a3.2,3.2,0,0,1-1.47.37c-1.46,0-2.44-.86-2.93-2.57q-1.1-2.93-1.09-25.26V139.78l-.37-.73v-.73a1,1,0,0,0,.37.73,16.06,16.06,0,0,0,2.19,1.47,24.44,24.44,0,0,1,3.3-.74Zm2.93,472.65V611a1.1,1.1,0,0,1,.36-.74h.37a1.07,1.07,0,0,1,.73.37q3.66,3.3,9.89,10.25,6.59,7.33,10.25,10.62,3.3,3.3,11.72,10.25A115.82,115.82,0,0,1,65.9,652.35a1.07,1.07,0,0,1,.37.73,2.89,2.89,0,0,1-.37,1.1.32.32,0,0,1-.37.36,2.8,2.8,0,0,1-1.09-.36q-7.69-3.66-26-22.34Q23.07,616.47,20.87,611.34Zm7.69-468.63a1.09,1.09,0,0,1,.73.37.33.33,0,0,1,.37.36,1.07,1.07,0,0,1-.37.74h.37q2.55,0,34.78,31.48,5.49,5.49,14.64,16.48Q89,204.22,93.36,208.61a230.6,230.6,0,0,0,32.22,28.56q46.86,35.88,58.94,46.5,32.22,28.56,39.18,48V332a1.43,1.43,0,0,1-1.1,1.46,2.77,2.77,0,0,1-1.1.37c-.25,0-.49-.24-.73-.74Q209.41,308.21,170.24,276q-8.42-7.32-31.12-23.8Q119,237.18,108.37,228q-10.26-9.15-28.19-29.66T52.35,169.07q-24.52-21.6-24.53-25.63a1.05,1.05,0,0,1,.37-.73Zm13.18,465.7a1,1,0,0,1-.37-.73,1,1,0,0,1,.37-.73,1.16,1.16,0,0,1,1.1-.73,1.08,1.08,0,0,1,.73.36Q52.36,612.44,63.7,626q2.56,2.57,9.52,10.25,5.85,6.22,9.16,10.25a1.08,1.08,0,0,1,.36.73,1,1,0,0,1-.36.73,1.49,1.49,0,0,1-1.1.37h-.37q-5.49-2.93-19.4-20.14Q50.89,615.37,41.74,608.41Zm20.5-462-.37-.36v-.37a1.18,1.18,0,0,1,1.1-.73q8.41,1.47,29.66,25.26,4,4,17.94,20.14,11,12.45,17.94,19.77a292.62,292.62,0,0,0,23.43,21.23q18.3,15,24.16,20.51a528.44,528.44,0,0,1,48.33,51.25,1.52,1.52,0,0,1,.37,1.1c0,.25-.25.61-.74,1.1a1.49,1.49,0,0,1-1.09.36,1.06,1.06,0,0,1-.74-.36A548.42,548.42,0,0,0,173.91,254q-5.5-4.75-23.44-19.77a295.8,295.8,0,0,1-23.06-20.13Q65.54,148.94,62.24,146.37Zm1.83,447.76v-1.46a1.5,1.5,0,0,1,1.1-.37h.36q4.39,2.57,20.51,21.24v-.37l24.53,26.36a1.1,1.1,0,0,1,.36.74,2.8,2.8,0,0,1-.36,1.09,1.48,1.48,0,0,1-1.1.37h-.73q-6.6-4-23.43-24.16-3.68-4-10.62-11.72Q67.35,597.8,64.07,594.13Zm23.07-13.54V581a1.48,1.48,0,0,1-1.47.74l1.83.36A7.34,7.34,0,0,0,89,583.88a3.86,3.86,0,0,0,1.46,1.83c2.93,3.67,4.63,5.86,5.13,6.59q0-.36,12.08,13.92a290.36,290.36,0,0,0,38.07,37.71c.49.24.74.49.74.73s-.25.61-.74,1.1a1.46,1.46,0,0,1-1.46.73h-.37q-10.24-5.13-29.65-27.09Q102.5,605.48,97,598.89q-11.72-13.17-12.45-16.47a7,7,0,0,1-.36-2.2,1,1,0,0,1,1.1-1.1,2.91,2.91,0,0,1,1.09.37A1.18,1.18,0,0,1,87.14,580.59Zm5.12-253.72a1.06,1.06,0,0,1-.36-.73c0-.24.24-.49.73-.73a1,1,0,0,1,.73-.37c.24,0,.49.25.73.73q12.45,20.87,62.24,62.61,39.9,33.69,62.61,63.7a1.08,1.08,0,0,1,.36.73c0,.5-.36.86-1.09,1.1a1.49,1.49,0,0,1-1.1.37,1,1,0,0,1-.73-.37,501.71,501.71,0,0,0-66.27-66.27Q102.51,348.1,92.26,326.87Zm4,235.41a1.08,1.08,0,0,1,.36.73,1.06,1.06,0,0,1-.36.74,1.08,1.08,0,0,1-.73.36,1.06,1.06,0,0,1-.74-.36,5.51,5.51,0,0,0-2.19-1.83c-.49-.24-.73-.49-.73-.74a2.85,2.85,0,0,1,.36-1.09,1.17,1.17,0,0,1,1.1-.74,2.94,2.94,0,0,1,1.1.37q14.64,12.07,17.21,15.38L127,594.5q34.41,38.44,39.91,43.57a1.5,1.5,0,0,1,.37,1.1,1.07,1.07,0,0,1-.37.73,1.17,1.17,0,0,1-1.1.73,1,1,0,0,1-.73-.36q-3.66-2.57-40.64-43.21-3.3-3.64-7.69-9.52-6.23-8-7.69-9.88-5.85-6.95-8.42-9.52-8.06-6.58-8.42-6.59H91.9l.36.37a2.88,2.88,0,0,1-.36-1.1,1.17,1.17,0,0,1,.73-1.1,2.84,2.84,0,0,1,1.1-.37c.24,0,.48.25.73.74A5.44,5.44,0,0,0,96.29,562.28Zm4.39-172.44a1.52,1.52,0,0,1,.37,1.1v.37a.33.33,0,0,1-.37.36,2.88,2.88,0,0,1-1.1-.36,28,28,0,0,1-5.12-1.47,10.86,10.86,0,0,1,.73-2.56q16.47,9.15,57.11,55.28,8.05,8.79,31.49,31.85,20.13,19.41,30,32.22a2.13,2.13,0,0,1,.73,1.47c0,.24-.24.61-.73,1.1a1.5,1.5,0,0,1-1.1.36,2.8,2.8,0,0,1-1.09-.36q-9.52-11-30-30.76-20.51-20.13-30-31.12-37.71-42.46-57.84-57.48a2,2,0,0,1-.74-1.46v-.74a1.18,1.18,0,0,1,1.1-.73h.73A65.39,65.39,0,0,1,100.68,389.84Zm-7-27.46a1.45,1.45,0,0,1-.37-1.1v-.36c.24-.49.49-.73.73-.73a1.06,1.06,0,0,1,.73.36,599.75,599.75,0,0,1,63.71,52.72q36.6,34.78,54.55,62.24a1.11,1.11,0,0,1,.37.74c0,.49-.37,1-1.1,1.46a1.48,1.48,0,0,1-1.1.37c-.49,0-.86-.37-1.1-1.1Q176.46,429.75,93.73,362.38ZM100,446.59V447a1.07,1.07,0,0,1-.37.73H98.49a10.8,10.8,0,0,0-3.67-2.93c0-.24.24-.61.74-1.1l1.09-1.1q12.45,11,33,35.52,21.22,25.26,32.95,35.88,4.74,4.38,14.64,12.08,11.34,9.15,15.38,12.45,18.3,15.38,23.8,30v.36a1.17,1.17,0,0,1-.74,1.1h-.73a1.5,1.5,0,0,1-1.1-.36,134.25,134.25,0,0,0-27.09-31.12q-24.54-19.79-31.12-26.37-12.07-11.7-30.75-33.68-22-24.88-30.39-34.05a2.68,2.68,0,0,1-.37-1.1,1.05,1.05,0,0,1,.37-.73c.48-.48.85-.73,1.1-.73a1.18,1.18,0,0,1,1.09.73A33.14,33.14,0,0,1,100,446.59Zm-5.49-37.71v-.37a1.16,1.16,0,0,1,.73-1.09,1.07,1.07,0,0,1,.73-.37c.24,0,.49.25.73.73q7.32,13.55,60.41,68.83,55.65,57.85,57.12,57.85v-.37a1.52,1.52,0,0,1,.36,1.1c0,.49-.36.86-1.09,1.1a2.93,2.93,0,0,1-1.1.36,1.16,1.16,0,0,1-1.1-.73Q203.92,522,182,503.7q-17.58-14.64-31.12-28.19Q102.87,426.82,94.46,408.88Zm6.22-111.3a1.09,1.09,0,0,1,.37.73l-.37.37a.32.32,0,0,1-.36.36,1.06,1.06,0,0,1-.74-.36,7.71,7.71,0,0,1-1.83-1.47,11.59,11.59,0,0,1-1.83-1.46,6.26,6.26,0,0,0,1.83-1.83q18.31,31.13,67,74.69,51.63,46.5,69.56,72.85a1.54,1.54,0,0,1,.37,1.1c0,.49-.37.86-1.1,1.1a2.77,2.77,0,0,1-1.1.37,2.07,2.07,0,0,1-1.46-.74q-16.47-24.89-69.93-72.12Q112.4,328,95.56,295.38a1,1,0,0,1-.37-.73,1.18,1.18,0,0,1,.73-1.1,1.06,1.06,0,0,1,.73-.36,1.16,1.16,0,0,1,1.1.73,12.2,12.2,0,0,1,1.47,1.83A7.68,7.68,0,0,1,100.68,297.58ZM95.56,476.25a2.77,2.77,0,0,1-.37-1.1,1.46,1.46,0,0,1,.37-1.1,2.86,2.86,0,0,1,1.09-.37,1.5,1.5,0,0,1,1.1.37q9.15,7.68,23.43,22.33,16.48,16.49,23.07,22.7,7.32,6.23,23.43,19,15,12.45,23.07,19.4a358.09,358.09,0,0,1,71.39,90.07,1.5,1.5,0,0,1,.37,1.1c0,.49-.37.85-1.1,1.09a2.77,2.77,0,0,1-1.1.37,1.16,1.16,0,0,1-1.1-.73q-12.45-22.7-35.51-50.53-24.16-28.9-39.91-42.83-4.75-4-23.43-19-14.28-11.71-22.7-19.77-6.22-5.85-20.87-20.5Q103.6,483.21,95.56,476.25Zm.73,30.38a1.16,1.16,0,0,1-.73-1.1c.24-.73.6-1.09,1.09-1.09q9.52,1.1,28.93,19.4,13.55,13.18,37.34,39.54,15.74,17.22,37.35,37.71,16.83,16.47,23.79,24.9,12.81,15,15.38,23.43v.36a1.49,1.49,0,0,1-.37,1.1h-.36a1.5,1.5,0,0,1-1.1-.36q-2.94-3.66-9.52-13.18-6.22-8.43-10.25-13.18-9.89-10.62-22.33-22.7-18.31-17.21-33.69-34.05-22.33-24.9-34-36.61Q107.26,510.3,96.29,506.63ZM100.68,146a1.07,1.07,0,0,1,.37.73v.37a.65.65,0,0,1-.73.73l-3.67-.37c.24-.48.61-1.34,1.1-2.56a27.73,27.73,0,0,1,8.79,9.52,155,155,0,0,0,14.64,20.5q.73,1.09,33.32,35.88,7.69,8.06,34.42,30.75,22,18.31,32.21,32.22a1.52,1.52,0,0,1,.37,1.1c0,.49-.37.86-1.1,1.1a1,1,0,0,1-.73.37,1.16,1.16,0,0,1-1.1-.74Q208,261.33,183.06,240.83a292.61,292.61,0,0,1-32.59-30q-25.26-26-31.48-33.68A186.5,186.5,0,0,1,106.54,161q-6.23-10.25-6.22-11-4-2.56-4-2.93a1.46,1.46,0,0,1-.37-1.1v-.73c.49-.49.85-.74,1.1-.74h.37A29.85,29.85,0,0,1,100.68,146ZM97,530.8v-.74a1.05,1.05,0,0,1,.37-.73h.36a1.5,1.5,0,0,1,1.1.37q6.23,10.24,59.68,66.63,4.4,4.39,28.92,24.9,17.94,14.64,25.63,27.82a1.09,1.09,0,0,1,.37.73c0,.5-.37.86-1.1,1.1a2.77,2.77,0,0,1-1.1.37,1.16,1.16,0,0,1-1.1-.73Q201.72,637,182,620.5q-24.9-21.6-30.75-27.83Q100.32,537,97,530.8Zm2.2-288.5v-.37a1.06,1.06,0,0,1,.36-.73,1.07,1.07,0,0,1,.74-.37,1.09,1.09,0,0,1,.73.37q5.11,4.76,14.28,14.28,9.89,9.89,14.64,14.28,1.83,1.46,31.49,28.55,22.32,19.77,33.31,30.76,19.41,19.41,23.8,27.09a1.07,1.07,0,0,1,.37.73,1.18,1.18,0,0,1-.73,1.1,1.07,1.07,0,0,1-.74.37,1.15,1.15,0,0,1-1.09-.74,190.89,190.89,0,0,1-13.92-15q-9.15-10.25-14.28-15Q175,314.79,157.06,298.68q-24.52-21.6-33.31-30.39Q104.34,249.62,99.22,242.3Zm2.19,25.62a1.11,1.11,0,0,1,.74.37v.37a1.07,1.07,0,0,1-.37.73q0,2.19,44.3,47.23,13.9,14.28,28.19,26.72,34,29.3,42.11,40.64a1.1,1.1,0,0,1,.36.74,2.09,2.09,0,0,1-.73,1.46,1.48,1.48,0,0,1-1.1.37,2.72,2.72,0,0,1-1.1-.37Q201,371.9,175,348.47q-27.83-25.62-39.17-37.34-35.15-35.88-35.15-41.74a1.48,1.48,0,0,1,.37-1.1Zm15.75-122.64a1,1,0,0,1-.37-.74,1.32,1.32,0,0,1,1.1-1.1.33.33,0,0,1,.37.37Q145,167.62,173.54,191,209,220.7,223.33,242.3a1.07,1.07,0,0,1,.37.73,1.18,1.18,0,0,1-.73,1.1,2.93,2.93,0,0,1-1.1.36,1.16,1.16,0,0,1-1.1-.73q-14.65-22-51.62-52.35Q124.47,154.8,117.16,145.28Zm28.19-2.57v-1.1a1,1,0,0,1,.73-.36.33.33,0,0,1,.37.36q2.93,2.56,8.42,8.43t8.78,8.78q7.32,6.6,20.87,17.21,28.56,23.43,39.54,37c.49.24.74.49.74.73s-.25.61-.74,1.1a1.49,1.49,0,0,1-1.09.36,1.06,1.06,0,0,1-.74-.36Q212,202.39,180.13,176.4,150.1,152.23,145.35,142.71Zm21.23-1.83a1,1,0,0,1-.36-.73v-.37c.24-.48.48-.73.73-.73h.37q13.53,5.49,31.48,22,21.6,19.77,29.66,24.89c.48.25.73.5.73.74a1.07,1.07,0,0,1-.37.73c-.24.49-.49.73-.73.73a1,1,0,0,1-.73-.36Q216,182.25,197,164,178.65,146.37,166.58,140.88Zm40.64-.73a1.52,1.52,0,0,1,.37,1.1v.36a1.05,1.05,0,0,1-.73.37l-1.47-.73.73-1.47c1.47,1,3.79,2.33,7,4a51.42,51.42,0,0,1,6.59,4.39q20.51,17.58,25.63,28.56v.73a1.07,1.07,0,0,1-.37.74,1.06,1.06,0,0,1-.73.36,1,1,0,0,1-.73-.36Q216.74,149.67,217.11,150q-10.62-7.69-12.08-8.79a1.46,1.46,0,0,1-.37-1.1v-.37a3.28,3.28,0,0,1,1.46-.36C207.1,140.15,207.46,140.4,207.22,140.15Zm10.25,299.12q0,3.66-3.66,3.66t-3.66-3.66v-1.83q0-3.66,3.66-3.66t3.66,3.66v7.69l-1.09,27.45v33.69q0,31.13.36,32.22a61.38,61.38,0,0,0,5.13,22.33q8.41,17.2,30.38,28.56,8.43,4.38,39.91,15.37c1.71.73,2.56,1.83,2.56,3.3v4.39q0,3.3-3.66,3.3-3.29,0-3.29-3.3v-4.39a15.12,15.12,0,0,0,1.1,1.83l1.46,1.46q-17.2-5.85-23.43-8.42-24.9-9.51-37-20.5a58.84,58.84,0,0,1-19.77-35.88q-.74-6.59-.73-29.66V483.2q0-7.68.36-22.7.38-15.37.37-23.06,0-3.66,3.66-3.66t3.66,3.66Zm-1.09-257.38q-3.3,0-3.3-3.66,0-3.3,3.3-3.3,9.88,0,31.12-1.46Q268,172,278.61,172q29.29.38,43.21,9.52,15,9.53,23.06,27.46,10.25,22.71,10.25,52.72a195.9,195.9,0,0,1-1.46,23.43q-2.57,23.44-9.15,38.44-11,26-30.76,42.47a84.67,84.67,0,0,1-21.6,13.55q-8.79,4-24.16,6.59a273.61,273.61,0,0,1-47.23,4q-3.3,0-3.3-3.66,0-3.3,3.3-3.3,15.73-.36,30.39-1.83,33.3-3.3,49.42-13.91,21.6-14.28,34.42-39.91,13.17-26.36,13.18-61.51,0-8-.74-16.47-4-48.33-31.48-63.71-12.82-6.58-40.64-6.59h-5.86q-7,0-26.36,1.47Q226.26,181.89,216.38,181.89Zm5.49,207.59v.36a.65.65,0,0,1-.74.73,10.44,10.44,0,0,1-2.56.37,5,5,0,0,1-3.66-1.46,1.46,1.46,0,0,1-.37-1.1,2.77,2.77,0,0,1,.37-1.1,2.09,2.09,0,0,1,1.47-.73,1.08,1.08,0,0,1,.73.36q30,19.41,52.35,56.75a1.52,1.52,0,0,1,.37,1.1c0,.49-.37,1-1.1,1.46a1.48,1.48,0,0,1-1.1.37c-.49,0-1-.37-1.46-1.1Q243.1,410,215.28,389.84l2.19-2.2a3.16,3.16,0,0,0,2.2,1.1,2.88,2.88,0,0,0,1.1-.36A1,1,0,0,1,221.87,389.48ZM219.3,173.1a3.17,3.17,0,0,1,3.3,2.56v1.1a3.17,3.17,0,0,1-2.56,3.3c1.21-1.71,2-2.57,2.19-2.57v5.13q0,4.4.37,8.79.74,13.92.73,16.84.36,14.28,2.93,63.34,1.45,29.3,1.46,52.35,0,44.31-5.12,66.27a3.16,3.16,0,0,1-3.3,2.56h-.73a3.46,3.46,0,0,1-2.93-3.66v-3.3q0-3.29,3.66-3.29,3.3,0,3.3,3.29v3.3c-4.39-.49-6.72-.73-7-.73a24.81,24.81,0,0,0,.74-3.3q4-18.3,4-62.24,0-25.62-1.46-60.41l-2.56-58.58c-.25-1.46-.5-4.76-.74-9.88-.24-3.9-.36-7.08-.36-9.52v-3.29c0-4.88,1-7.57,2.93-8.06Zm16.48-30a.32.32,0,0,1-.37-.37V142a1,1,0,0,1,.37-.73q2.55,0,13.18,12.81,11,12.83,17.21,21.6a1.1,1.1,0,0,1,.36.74,1.06,1.06,0,0,1-.36.73H264.7Q259.94,172,249,158.46q-12.45-15.39-12.63-15.38ZM247.5,596.7v.36a1.07,1.07,0,0,1-.37.74H246a32.18,32.18,0,0,0-2.93-3.3,35.8,35.8,0,0,1-3.29-3.66,1,1,0,0,1-.37-.73,1.48,1.48,0,0,1,.37-1.1,1.15,1.15,0,0,1,1.09-.73,1.08,1.08,0,0,1,.74.36Q255.55,598.9,275,619q22,22.71,26,34.05v.37a1.18,1.18,0,0,1-.73,1.09h-.74a2.09,2.09,0,0,1-1.46-.73q-16.47-23.07-27.46-34-5.13-5.12-15.38-14.28-10.25-9.51-15.37-14.64l2.19-1.46c.74,1,1.59,2.19,2.57,3.66C246,594.75,247,596,247.5,596.7ZM249,388.38a1.07,1.07,0,0,1-.37.73,1.45,1.45,0,0,1-1.09.37,1,1,0,0,1-.74-.37,6.3,6.3,0,0,1-.73-1.83v-.73a.65.65,0,0,1,.73-.74h.37q3.3,0,13.18,12.09,19,22,23.8,32.21a1.1,1.1,0,0,1,.36.74c0,.24-.24.49-.73.73a1.48,1.48,0,0,1-1.1.37,1,1,0,0,1-.73-.37q-3.3-4.4-11.35-15.38-7.33-9.88-11.72-15c-1.95-2.2-4.51-5.12-7.68-8.79q-1.84-1.81-3.66-3.29a2.72,2.72,0,0,1-.37-1.1,1,1,0,0,1,.37-.73l.36-.37c.49,0,.85.37,1.1,1.1Zm23.8-242a1.1,1.1,0,0,1,.36.74v.36a1,1,0,0,1-.73.37H272l-6.22-3.3a17.09,17.09,0,0,0,1.47-2.19A108.47,108.47,0,0,1,298,175.66a1.11,1.11,0,0,1,.37.74c0,.24-.25.49-.74.73a1.06,1.06,0,0,1-.73.36,1,1,0,0,1-.73-.36,60.52,60.52,0,0,1-7.69-8.79c-3.91-4.63-6.47-7.69-7.69-9.15q-5.87-6.23-15-14.65a2.68,2.68,0,0,1-.37-1.1,1.05,1.05,0,0,1,.37-.73c.24-.48.49-.73.73-.73a1.18,1.18,0,0,1,1.1.73,14,14,0,0,0,2.56,1.83A6.3,6.3,0,0,1,272.76,146.37Zm.73,237.25c0,.73-.25,1.1-.73,1.1q.72,0,10.25,6.59a57.07,57.07,0,0,1,8.05,5.49q19.77,15.38,29.29,31.85a1.09,1.09,0,0,1,.37.73,1.18,1.18,0,0,1-.73,1.1,1.07,1.07,0,0,1-.74.37,1,1,0,0,1-.73-.37q-20.86-24.17-23.06-26-3.3-2.92-16.85-12.82-8.06-5.49-8.05-7.69c0-.73.61-1.21,1.83-1.46A1,1,0,0,1,273.49,383.62ZM287,377.39c-.5-.24-.74-.48-.74-.73a1.05,1.05,0,0,1,.37-.73,2.89,2.89,0,0,1,1.1-.37,1.09,1.09,0,0,1,.73.37q11.34,8.43,26.36,22,31.49,27.09,31.49,26.72a1.52,1.52,0,0,1,.36,1.1,2.83,2.83,0,0,1-.36,1.1,1.18,1.18,0,0,1-1.1.73,2.83,2.83,0,0,1-1.1-.36q-4.77-2.94-31.49-26.73Q286.3,377,287,377.39Zm4-237.61a1.05,1.05,0,0,1,.37-.73c.49-.48.85-.73,1.1-.73a1.2,1.2,0,0,1,1.1.73q31.47,34,94.09,93,66.63,63,79.45,83.1a1.1,1.1,0,0,1,.36.74c0,.49-.36.85-1.1,1.09a1,1,0,0,1-.73.37,1.16,1.16,0,0,1-1.1-.73q-8.06-12.81-83.11-86.77-89.7-89.32-90.06-89.33v.36A2.68,2.68,0,0,1,291.06,139.78Zm1.1,466.8c0-2.43,1.1-3.66,3.3-3.66,2.43,0,3.66,1.23,3.66,3.66q0,12.09-.73,19c-.25,2.2-1.6,3.3-4,3.3-2,0-2.93-.74-2.93-2.2v-1.1Q292.17,618.67,292.16,606.58Zm0,5.86v-.73c0-1.71,1.1-2.56,3.3-2.56a3.3,3.3,0,0,1,3.66,3.29q3.64,40.27,3.66,45h-7.32v-4.39c0-2.44,1.21-3.66,3.66-3.66s3.66,1.22,3.66,3.66v4.39c0,2.2-1.23,3.3-3.66,3.3s-3.66-1.1-3.66-3.3Q295.46,655.28,292.16,612.44Zm16.48-246.76V366a1.16,1.16,0,0,1-.74,1.1h-.36a1.16,1.16,0,0,1-1.1-.73,3.16,3.16,0,0,1-.37-1.46c0-1,.37-1.47,1.1-1.47a4,4,0,0,1,2.2.73q4,1.85,14.64,11.35,37,33.33,44.67,45a1.07,1.07,0,0,1,.37.73,1.17,1.17,0,0,1-.74,1.1,1.06,1.06,0,0,1-.73.36,1.16,1.16,0,0,1-1.1-.73q-3.66-3.3-10.25-10.62t-10.62-11q-1.83-1.83-8.05-7.32a85.14,85.14,0,0,1-8.05-7.69q-5.14-5.13-11.72-11Q309,366.78,308.64,365.68ZM316,349.57a1,1,0,0,1-.37-.73,1.46,1.46,0,0,1,.37-1.1,1.16,1.16,0,0,1,1.1-.73,1.08,1.08,0,0,1,.73.36q18.68,13.92,34.78,28.19,26,22.71,33.68,33.32a1.09,1.09,0,0,1,.37.73c0,.25-.25.49-.73.73a1.48,1.48,0,0,1-1.1.37,1,1,0,0,1-.73-.37q-5.87-5.11-16.84-16.1-11.36-11-17.21-16.11Q335.73,365.32,316,349.57Zm6.59-208a1,1,0,0,1-.37-.73v-.36a1.07,1.07,0,0,1,.74-.37.33.33,0,0,1,.36.37q1.46,1.09,70.3,74.32,12.07,12.45,39.54,38.07,26.36,24.16,39.54,38.45a1.06,1.06,0,0,1,.36.73,1.16,1.16,0,0,1-.73,1.1,1.08,1.08,0,0,1-.73.36,1,1,0,0,1-.73-.36q-9.88-9.88-39.54-38.08Q406,231.32,391.75,216.67q-6.6-7-34.05-38.08Q336.82,155.17,322.55,141.61Zm6.59,190a1,1,0,0,1-.37-.73,1.07,1.07,0,0,1,.37-.74.92.92,0,0,1,1.46,0q9.88,7,38.45,31.12,26.71,22.71,37,39.55v.36a1.5,1.5,0,0,1-.36,1.1,1.05,1.05,0,0,1-.73.37c-.25,0-.5-.24-.74-.74a263.51,263.51,0,0,0-37.71-38.07Q330.6,333.46,329.14,331.63Zm9.52-22a1,1,0,0,1-.37-.73v-.73a1.47,1.47,0,0,1,1.47-.73q16.47,6.22,43.56,36.24,34.41,37.71,43.57,49.43a1.5,1.5,0,0,1,.37,1.1,2.86,2.86,0,0,1-.37,1.09,1,1,0,0,1-.73.37,2.72,2.72,0,0,1-1.1-.37q.36.38-42.1-46.86Q360.63,323.95,338.66,309.66Zm4.76-82a1.45,1.45,0,0,1-.37-1.1v-.36c.24-.49.49-.73.73-.73a1.1,1.1,0,0,1,.74.36Q372,241.2,407.12,282.2q10.62,12.09,30.39,30.76,18.3,16.85,24.9,27.82v.37a2.09,2.09,0,0,1-.74,1.46,1,1,0,0,1-.73.37c-.24,0-.61-.24-1.1-.73q-8.79-12.09-26.72-29.66-21.24-20.5-28.19-28.19Q373.81,248.16,343.42,227.65Zm4,60a1.05,1.05,0,0,1,.37-.74,1.5,1.5,0,0,1,1.1-.36h.37q29.66,22,53.45,43.2Q437.5,360.55,448.49,377v.73a1.5,1.5,0,0,1-.36,1.1,1.53,1.53,0,0,1-1.1.36,2.83,2.83,0,0,1-1.1-.36q-44.67-46.14-47.59-48.7-.37,0-50.53-41.73A1,1,0,0,1,347.44,287.7Zm8.06-30a1.07,1.07,0,0,1,.73.37v.37a1.06,1.06,0,0,1-.36.73l18.3,13.18q9.15,6.58,26.36,27.46a367.26,367.26,0,0,0,28.56,31.48q19,19.41,23.43,27.46a1.09,1.09,0,0,1,.37.73l-.37.37a1.05,1.05,0,0,1-.73.37,1,1,0,0,1-.73-.37q-4.77-4.76-16.48-17.21-10.26-11-16.47-17.2-5.87-6.23-16.11-18.68-10.63-13.17-16.11-19-10.63-11-16.84-15-8.43-5.85-10.62-7.68-4.4-3.66-4.39-5.5a2.16,2.16,0,0,1,1.09-1.83Zm5.13-117.15v-.37a1.52,1.52,0,0,1,.36-1.1,1.06,1.06,0,0,1,.73-.36.33.33,0,0,1,.37.36Q376.37,154.43,421,198q37.35,36.62,57.48,60.41a1.5,1.5,0,0,1,.37,1.09,2.84,2.84,0,0,1-.37,1.1,1.45,1.45,0,0,1-1.09.37,1,1,0,0,1-.74-.37q-16.85-18.68-58.21-59.67Q380,163.22,360.63,140.52Zm36.24,10.61v-.36a1.48,1.48,0,0,1,.37-1.1,1.05,1.05,0,0,1,.73-.37,1.07,1.07,0,0,1,.73.37q16.83,18.32,37.35,36.61,27.07,24.16,33.31,37.34v.74a1.5,1.5,0,0,1-.36,1.1,1.53,1.53,0,0,1-1.1.36,1,1,0,0,1-.73-.36,301.59,301.59,0,0,0-37.35-40.28Q402.37,160.3,396.87,151.13Z" fill="#fff"/>
  <path d="M510,192.87c-1.22,0-2.32-.73-3.29-2.2a3.84,3.84,0,0,1-.74-2.19c0-1,.61-1.71,1.84-2.2a26.72,26.72,0,0,1,10.61-2.2q16.11,0,37.71,17.21,17.94,14.66,25.63,28.56,8.79,16.11,11.35,47.59.36,8.43,1.1,53.46,0,7.32,2.56,30a211.58,211.58,0,0,1,1.47,22.7,63.84,63.84,0,0,1-.37,6.95q-.37,3.3-4,3.3c-1.95,0-2.93-.85-2.93-2.56v-6.23q0-11-1.83-28.55A242.94,242.94,0,0,1,587.22,328q-.36-40.64-1.46-53.82-2.94-30.75-12.45-44.3a101.39,101.39,0,0,0-28.56-28.19Q529.38,191,518.76,191a17.88,17.88,0,0,0-7.32,1.46A3.23,3.23,0,0,1,510,192.87Zm2.2-30.75h-1.1c-1.46,0-2.44-.86-2.93-2.57a3.24,3.24,0,0,1-.36-1.46c0-1.46.85-2.32,2.56-2.56q24.88-4,105.44-7,6.94-.36,34.05-1.46,20.5-1.11,33.68-1.1,26.73-.73,68.83-1.1,38.8,0,65.54-.73h9.88q31.86,0,50.53,6.22c1.7.49,2.56,1.47,2.56,2.93a3.26,3.26,0,0,1-.37,1.46c-.24,1.72-1.1,2.57-2.56,2.57a3.2,3.2,0,0,1-1.47-.37q-15.37-5.12-94.82-5.12-89.34,0-138.39,2.56-17.94.73-65.17,2.2Q536.68,158.08,512.17,162.12Zm6.22-2.2q0,3.3-3.29,3.3c-2.45,0-3.66-1.1-3.66-3.3v-3.66c0-2.2,1.09-3.3,3.29-3.3q3.66,0,3.66,3.3,0,28.92-1.83,34.78a3.16,3.16,0,0,1-3.29,2.56h-1.1a3.15,3.15,0,0,1-2.56-3.29v-1.1q1.81-5.13,1.83-33h6.95Zm-1.1.73a1.09,1.09,0,0,1,.37.73,1.07,1.07,0,0,1-.37.74,1.06,1.06,0,0,1-.73.36h-.36a24.16,24.16,0,0,0-3.67-2.19,16.65,16.65,0,0,0,1.47-2.2q11.34,9.89,51.62,49.06,29.29,28.92,48.7,52,1.81,2.19,97.75,97.39a2.09,2.09,0,0,1,.73,1.46c0,.25-.24.61-.73,1.1a3.32,3.32,0,0,1-1.47.36,2.8,2.8,0,0,1-1.09-.36q-95.57-95.19-97.76-97.76-20.5-24.15-48.33-52-51.25-50.16-51.25-49.8v.37a.91.91,0,0,1,0-1.46c.48-.49.85-.74,1.1-.74a1.09,1.09,0,0,1,.73.37C514.73,158.58,515.83,159.43,517.29,160.65Zm9.16,454a3.12,3.12,0,0,1,2.19,1.1,3.16,3.16,0,0,1,1.47,2.56,3,3,0,0,1-1.47,2.2l-1.09,1.09-.37.37v-.37a3.93,3.93,0,0,0,.73-1.46,2.85,2.85,0,0,1,.37-1.83c-.25,0-1.1-.73-2.57-2.2h-.36q0-.36,1.83-.36l1.46-.37a26.57,26.57,0,0,0,4.76-1.1,64.36,64.36,0,0,0,9.89-4,112.71,112.71,0,0,0,16.84-9.88q21.23-15.37,28.19-44.67Q590.89,544,592,524.94q1.1-15.74,1.1-33.68,0-11-.73-33.69-.74-22.32-.73-33.68,0-18.67-.37-27.82V394.6c0-7.81,1.7-11.71,5.13-11.71h.36c2.2.24,3.3,1.59,3.3,4,0,2-.86,2.93-2.57,2.93h-.73c1,0,1.47-.24,1.47-.73v9.52a30.77,30.77,0,0,1,.36,4v25.26q0,11,.73,33.68.74,22.33.74,33.68,0,19.41-1.1,33.69-1.85,20.13-4,29.65-7.68,29.29-27.09,44.67a123,123,0,0,1-22,13.54,73.85,73.85,0,0,1-12.45,4.76,58.58,58.58,0,0,1-8.42,1.1h-1.1a2.35,2.35,0,0,1-2.19-2.56v-.73q0-1.83,2.19-3.66A4.48,4.48,0,0,1,526.45,614.64Zm0,34.05c-1.71,0-2.57-1.1-2.57-3.3q0-3.66,3.3-3.66,24.52-1.83,67-1.83,21.23,0,46.86.37,35.51.74,63.34.73,39.17,0,63.34-1.47,135.09-8,135.1-8.42c2.19,0,3.29,1.23,3.29,3.66q0,3.3-3.29,3.3-11,0-125.22,7.69Q745.76,648,696.69,648q-21.6,0-46.86-.36-32.6-.74-58.21-.73-41.39,0-64.44,1.83ZM536,614.64c0,2.19-1.23,3.29-3.66,3.29q-3.3,0-3.3-3.29V607h7c0,2.44-.13,6-.37,10.62q-.37,7.32-.73,10.61v3.66c0,6.59.6,11.23,1.83,13.92a3.31,3.31,0,0,1,.36,1.46c0,1.23-.85,2.08-2.56,2.56a3.19,3.19,0,0,1-1.46.37c-1.47,0-2.57-.85-3.3-2.56q-1.83-4.76-1.83-15.75v-3.66L529,607q0-3.66,3.3-3.66c2.43,0,3.66,1.22,3.66,3.66Zm4.39,5.86c.49.24.73.49.73.73a1.06,1.06,0,0,1-.36.73,1.18,1.18,0,0,1-1.1.73h-.37l-6.59-4v-.73a1.49,1.49,0,0,1,.37-1.1,1,1,0,0,1,.73-.36,2.09,2.09,0,0,1,1.46.73q1.83,1.47,13.55,14.64,9.88,10.63,12.08,14.65a1.09,1.09,0,0,1,.37.73,1.18,1.18,0,0,1-.73,1.1,1.49,1.49,0,0,1-1.1.37,2.72,2.72,0,0,1-1.1-.37,87.58,87.58,0,0,1-6.59-7.69q-5.13-6.23-7-8-10.62-11.72-12.08-13.92a16.11,16.11,0,0,0,2.93-1.09Zm1.83.36a.74.74,0,0,1,0,1.47c-1.71.49-2.56,1.46-2.56,2.92,0,.5-.37.74-1.1.74a.65.65,0,0,1-.73-.74Q537.8,621.23,542.19,620.86Zm1.46-462a1,1,0,0,1-.36-.73,1.52,1.52,0,0,1,.36-1.1,1.06,1.06,0,0,1,.74-.36,1.53,1.53,0,0,1,1.1.36l82.37,86q23.8,24.9,42.1,42.83,3.66,4,19.78,19.77,12.43,11.73,19.77,19.78a1.18,1.18,0,0,1,.73,1.09c0,.25-.25.62-.73,1.1a1.49,1.49,0,0,1-1.1.37,2.72,2.72,0,0,1-1.1-.37q-8.05-6.59-42.47-41.37Q643.6,264.63,623.1,243,568.18,185.91,543.65,158.82Zm14.28,455.45a1.09,1.09,0,0,1,.37.73l-.37.37h-.36a1.45,1.45,0,0,1-1.1-.37c-1-1.21-1.83-2.19-2.56-2.93a1,1,0,0,1-.37-.73,1.49,1.49,0,0,1,.37-1.1,2.8,2.8,0,0,1,1.09-.36,1.1,1.1,0,0,1,.74.36q2.19,1.47,12.81,14.28l12.08,14.28a2.11,2.11,0,0,1,.73,1.47c0,.24-.24.61-.73,1.09a3.19,3.19,0,0,1-1.46.37,2.72,2.72,0,0,1-1.1-.37q-2.94-3.29-13.55-16.11-9.53-11.7-10.61-13.54c.24,0,.6-.24,1.09-.73a2.94,2.94,0,0,1,1.1-.37C557.07,612.57,557.69,613.79,557.93,614.27Zm11.35-457.64a1.06,1.06,0,0,1-.36-.74,1.53,1.53,0,0,1,.36-1.1,1.06,1.06,0,0,1,.74-.36,1.49,1.49,0,0,1,1.09.36q19,16.49,78.72,76.16,54.92,55.65,61.51,65.53a1.52,1.52,0,0,1,.36,1.1c0,.49-.36,1-1.1,1.46a2.74,2.74,0,0,1-1.09.37,1.44,1.44,0,0,1-1.47-1.1q-3.66-5.49-62.6-66.63Q618.34,203.49,569.28,156.63ZM570.38,596a2.88,2.88,0,0,1-.36-1.1,1.5,1.5,0,0,1,.36-1.1c.24-.49.49-.73.73-.73a1.16,1.16,0,0,1,1.1.73q44.29,44.67,44.67,44.66a1.1,1.1,0,0,1,.36.74c0,.24-.24.61-.73,1.1a2.88,2.88,0,0,1-1.1.36,1.48,1.48,0,0,1-1.09-.36q-7-8.06-22-22.34T570.38,596Zm12.82-20.14a1,1,0,0,1-.37-.73,1.07,1.07,0,0,1,.37-.74,1,1,0,0,1,.73-.36,1.08,1.08,0,0,1,.73.36q7.32,7.33,19,18.68,15.74,15.38,18.67,18.3,24.17,23.43,31.49,35.15v.73a1.5,1.5,0,0,1-.37,1.1,1.05,1.05,0,0,1-.73.37,1.16,1.16,0,0,1-1.1-.74Q625.31,618.67,618,611.34,590.16,583.89,583.2,575.83Zm6.95-309.74a2.8,2.8,0,0,1-.36-1.09,1.5,1.5,0,0,1,.36-1.1c.49-.49.85-.73,1.1-.73s.49.24.73.73q32.58,34.78,80.55,76.52,25.26,22,32.58,33.31,19,28.93,19,29.29a1.48,1.48,0,0,1,.73,1.47v.36a1.43,1.43,0,0,1-1.46,1.1h-.37q-4.39-1.45-17.21-23.43-8.42-15.37-33.68-37.34Q617.61,297.21,590.15,266.09Zm0,93v-.37c.24-.48.49-.73.73-.73a1.11,1.11,0,0,1,.74.37q13.9,8.42,67.73,60,33.3,31.85,56,66.63v.37a3.24,3.24,0,0,1-.36,1.46,1.05,1.05,0,0,1-.73.37,1.16,1.16,0,0,1-1.1-.73q-46.87-58.22-56-65.9-67-60.42-67-60.78h.37A1,1,0,0,1,590.15,359.09Zm1.1,31.12a2.72,2.72,0,0,1-.37-1.1,1,1,0,0,1,.37-.73,2.89,2.89,0,0,1,1.1-.37,1.09,1.09,0,0,1,.73.37q20.5,17.94,61.87,61.14,40.65,41.73,58.95,63a1.52,1.52,0,0,1,.37,1.1,1.05,1.05,0,0,1-.37.73,1.48,1.48,0,0,1-1.1.37,1,1,0,0,1-.73-.37q-10.62-10.61-29.66-31.12-20.5-22-29.65-31.48Q642.14,440.73,622,421Zm3.29,167.68a1.18,1.18,0,0,1,1.1.73c0,.73-.24,1.1-.73,1.1q2.93,0,16.84,14.28l11,11q8.78,8.43,11.35,11,11,11,45.39,51.25a1.09,1.09,0,0,1,.37.73,2.13,2.13,0,0,1-.73,1.47,1.17,1.17,0,0,1-1.1.73c-.25,0-.61-.24-1.1-.73q-38.8-44.67-47.59-53.09-5.51-5.12-24.53-24.53-7.69-8-10.62-9.52a7.52,7.52,0,0,1-2.93-2.19,2.77,2.77,0,0,1-.37-1.1c0-.49.37-.85,1.1-1.1Zm-3.29-228.46v-.36a1.46,1.46,0,0,1,.37-1.1H592a1.06,1.06,0,0,1,.73.36q15.75,18.32,63.71,59.68,41.73,36.24,60.41,63.34a1.08,1.08,0,0,1,.36.73c0,.49-.36.86-1.09,1.1a1.07,1.07,0,0,1-.74.37,2.07,2.07,0,0,1-1.46-.74q-17.58-25.62-60.41-62.6Q608.09,350.67,591.25,329.43Zm.73-31.12a1,1,0,0,1-.36-.73,1.17,1.17,0,0,1,.73-1.1c.48-.48.85-.73,1.1-.73s.48.25.73.73Q614,321.74,652,358.72q45.75,45,59.67,60.78a1.16,1.16,0,0,1,.73,1.1c0,.24-.24.61-.73,1.09a1.16,1.16,0,0,1-1.1.74c-.24,0-.61-.24-1.09-.74q-12.82-14.28-60-60.41Q611.75,323.95,592,298.31Zm2.93,120.82a.91.91,0,0,1,0-1.46c.24-.49.49-.74.73-.74s.49.25.74.74q13.9,15,60,57.84,38.45,35.52,57.85,60a2.85,2.85,0,0,1,.36,1.09,2.09,2.09,0,0,1-.73,1.47,1.48,1.48,0,0,1-1.1.37c-.24,0-.61-.25-1.1-.74q-17.57-22-58.21-59.31Q612.11,440.37,594.91,419.13Zm.37,87.14a1.46,1.46,0,0,1-.37-1.1v-.37l.37-.36a1.08,1.08,0,0,1,.73.36q14.28,6.24,35.51,25.63a435.39,435.39,0,0,1,36.25,37,841.15,841.15,0,0,1,58.58,76.52,1.5,1.5,0,0,1,.36,1.1c0,.49-.36.85-1.1,1.09a2.74,2.74,0,0,1-1.09.37,2.09,2.09,0,0,1-1.47-.73q-31.12-46.14-59.31-78a399.1,399.1,0,0,0-34.41-35.14Q622.73,526.41,595.28,506.27Zm4.39-350a1.09,1.09,0,0,1,.37.73l-.37.37a.33.33,0,0,1-.37.36,1.06,1.06,0,0,1-.73-.36,13.28,13.28,0,0,1-2.93-4.76v-.37a1.18,1.18,0,0,1,.74-1.1h.73a1.09,1.09,0,0,1,.73.37q9.51,12.83,28.19,28.56,25.26,21.6,30,26.72,42.11,41.39,56.38,60.78a1.5,1.5,0,0,1,.37,1.1c0,.49-.37.86-1.1,1.1a2.88,2.88,0,0,1-1.1.36,2.09,2.09,0,0,1-1.46-.73Q685,237.17,648,203.85,600,160.67,595.64,153c.74-.24,1.59-.48,2.57-.73A28.72,28.72,0,0,1,599.67,156.26ZM596,534.09a1,1,0,0,1-.37-.73,1,1,0,0,1,.37-.73,1.17,1.17,0,0,1,1.1-.74,1.09,1.09,0,0,1,.73.37q5.49,5.49,28.92,24.9,17.94,15.38,28.19,26,10.62,11.73,26,31.12,21.6,27.47,25.26,31.49a2.94,2.94,0,0,1,.37,1.1,2.11,2.11,0,0,1-.74,1.46,1.16,1.16,0,0,1-1.09.73c-.25,0-.62-.24-1.1-.73Q652.38,585.71,652.39,585a.33.33,0,0,1,.37.37q-9.16-9.15-28.56-25.63Q604.79,543.61,596,534.09Zm2.2-89v-.37a1.06,1.06,0,0,1,.36-.73h.37a1.52,1.52,0,0,1,1.1.36,29.86,29.86,0,0,1,4.39,4.76c2,2.69,3.3,4.52,4,5.49q6.59,6.6,13.18,12.82,5.11,4.4,14.64,12.81,9.88,8.79,14.65,13.18,39.54,36.26,63.34,69.2a2.88,2.88,0,0,1,.36,1.1,1.16,1.16,0,0,1-.73,1.1,2.88,2.88,0,0,1-1.1.36,1.16,1.16,0,0,1-1.1-.73q-26-35.51-66.63-71.76Q618,468.2,615.78,466.36,599.31,450.25,598.21,445.13Zm0,35.14v-.36a1.1,1.1,0,0,1,.36-.74,1.06,1.06,0,0,1,.73-.36,1.1,1.1,0,0,1,.74.36q11.34,15.75,39.54,37.71,29.65,23.45,40.64,36.62,5.12,6.22,19,24.89a294.45,294.45,0,0,0,19.41,24.53q4,4.4,18.67,17.94a173.18,173.18,0,0,1,17.94,18.31,1.5,1.5,0,0,1,.37,1.1c0,.49-.37.85-1.1,1.09a2.77,2.77,0,0,1-1.1.37,1.16,1.16,0,0,1-1.1-.73q-6.23-8.06-20.87-21.6T710.6,598.16q-38.43-49-38.07-49.06-7.69-8-38.81-33Q608.82,496.38,598.21,480.27Zm26-325.11a1,1,0,0,1-.37-.73.33.33,0,0,1,.37-.37,1.06,1.06,0,0,1,.73-.36h.37Q642.87,170.9,670,194q32.6,27.83,38.08,37.71a1.09,1.09,0,0,1,.37.73,1.05,1.05,0,0,1-.37.73,1,1,0,0,1-.73.37,1,1,0,0,1-.73-.37,93.77,93.77,0,0,1-11-10.25q-7.32-8-10.25-11-6.58-6.22-20.13-17.94Q634.45,167.62,624.2,155.16Zm26.36-1.1a1.05,1.05,0,0,1-.37-.73,1.07,1.07,0,0,1,.37-.73,1.5,1.5,0,0,1,1.1-.37H652q46.13,30.75,60,50.16a2.88,2.88,0,0,1,.36,1.1,1.16,1.16,0,0,1-.73,1.1,2.88,2.88,0,0,1-1.1.36,2.09,2.09,0,0,1-1.46-.73Q704,196.9,650.56,154.06Zm30.75-1.1c-.49-.24-.73-.48-.73-.73v-.36a1.47,1.47,0,0,1,1.47-.74q6.59,2.2,19,13.55a197.35,197.35,0,0,1,19,20.14,1.07,1.07,0,0,1,.37.73,2.11,2.11,0,0,1-.73,1.46,1.48,1.48,0,0,1-1.1.37,2.72,2.72,0,0,1-1.1-.37Q698.15,162.49,681.31,153Zm27.83,39.91c-1.22,0-2.2-.73-2.93-2.2a3.9,3.9,0,0,1-.73-2.19c0-1,.6-1.71,1.83-2.2q5.85-2.55,16.47-2.56a151.56,151.56,0,0,1,21.61,1.83q43.56,6.58,57.84,15,19.41,11.35,31.12,34.41,12.81,24.91,12.82,49.43a100.67,100.67,0,0,1-9.52,42.1q-12.09,26.37-32.59,40.28Q790.42,377,769.91,379.22a219,219,0,0,1-26.36,1.83q-4.75,0-9.15-.36-19.77-1.45-19.77-10.62v-.36a3.51,3.51,0,0,1,2.2-3.3,3.26,3.26,0,0,1,1.46-.37,3.18,3.18,0,0,1,2.2,1.1l2.56,2.93a3.31,3.31,0,0,1,1.83,2.93,4,4,0,0,1-.73,2.2c-.49,1.22-1.22,1.83-2.2,1.83a3.9,3.9,0,0,1-2.19-.73,18.87,18.87,0,0,1-4.4-4c1.47-.49,3.54-1.34,6.23-2.56v.73l.73.73a36.1,36.1,0,0,0,4.76,1.46,63.26,63.26,0,0,0,15,1.47,224.68,224.68,0,0,0,32.58-2.2q22.33-3.64,39.91-22.7a90,90,0,0,0,21.6-40.64,121.89,121.89,0,0,0,3.3-27.46q0-34.77-23.8-61.14-9.52-10.25-19.4-15-11.73-6.21-29.29-9.15.36,0-28.93-4.39a105.81,105.81,0,0,0-14.28-1.1q-8.06,0-12.81,2.19A4,4,0,0,1,709.14,192.87Zm4.39-1.83q0,3.3-3.29,3.3-3.66,0-3.66-3.3v-3.29c0-2,1.1-3.05,3.29-3.3H711c1.22,0,2.07.73,2.56,2.2q3.3,19.41,3.3,53.08,0,17.22-.73,37.71-.37,15-.37,28.19,0,39.19,4.76,62.24V369a3.17,3.17,0,0,1-2.56,3.3h-1.1a3.16,3.16,0,0,1-3.3-2.56q-4.75-22.71-4.76-61.15,0-13.53.74-29.29.72-18.66.73-34,0-36.61-3.66-56.75c2.93-.24,5.24-.49,6.95-.73Zm6.23,219.67c0,2.2-1.23,3.3-3.66,3.3q-3.3,0-3.3-3.3v-4.39q0-3.3,3.3-3.3c2.43,0,3.66,1.1,3.66,3.3q0,19.41,1.46,60.77,1.1,39.54,1.1,60.41v24.9q0,20.13.37,22.7,4,19,26.72,25.62A57.36,57.36,0,0,0,767,603.29a110.64,110.64,0,0,0,27.82-4Q818.24,593,834,581.69q40.26-30,42.1-85.31v-4q0-25.62-12.45-44.66-5.49-8.79-17.57-19.77A79.51,79.51,0,0,0,828.13,414q-21.24-12.45-54.55-12.82-11,0-28.93,1.47-22,1.83-28.55,1.83c2.43-1.47,3.66-2.32,3.66-2.57v.74a19.89,19.89,0,0,0,.73,4.39,3.32,3.32,0,0,1,.37,1.46c0,1.47-.86,2.45-2.57,2.93h-1.1a3.76,3.76,0,0,1-3.66-2.56,19.78,19.78,0,0,1-1.1-6.22,8.29,8.29,0,0,1,.37-2.57,3.73,3.73,0,0,1,3.3-2.56q6.21,0,17.57-1.1Q757.84,395,773.21,395q8.79,0,14.64.36,30.76,2.21,50.53,16.84,23.43,17.22,34,36.62a89.22,89.22,0,0,1,10.62,42.83v5.86q-2.94,55.29-41,86.4a105.16,105.16,0,0,1-37.34,19.77q-22.34,6.6-38.08,6.59-4,0-7.69-.36-26.73-3.3-37.71-20.5-5.49-8.05-6.22-22.7-.37-4.39-.37-11.35t.37-16.84q.36-5.5.36-14.65,0-17.94-1.09-49.06-1.47-48-1.47-68.46h7Zm-1.83-255.55v-.37a1.49,1.49,0,0,1,.36-1.09l.37-.37a1.07,1.07,0,0,1,.73.37q4.4,4,14.28,16.84Q748,188.48,748,188.84a1.1,1.1,0,0,1,.36.74,1.15,1.15,0,0,1-.73,1.09,1,1,0,0,1-.73.37,1.16,1.16,0,0,1-1.1-.73q-1.83-1.45-14.64-17.58-1.11-1.81-6.23-8.78Q720.85,158.46,717.93,155.16Zm16.84,225.53a1,1,0,0,1-.37-.73v-.37c0-.49.37-.73,1.1-.73q4,1.83,11,8.05,12.81,11.35,13.18,12.08a1.11,1.11,0,0,1,.37.74,2.94,2.94,0,0,1-.37,1.1,3.28,3.28,0,0,1-1.46.36h-.73q-1.85-1.1-12.45-11Q735.14,381.06,734.77,380.69Zm9.15-229.56a1.15,1.15,0,0,1-.73-1.09v-.37c.24-.73.6-1.1,1.1-1.1h.36q2.21.74,14.65,16.11,1.83,2.19,10.25,11.72a102.73,102.73,0,0,1,9.88,12.44v.37a1.5,1.5,0,0,1-.36,1.1,1.52,1.52,0,0,1-1.1.36h-.73q-3.3-1.81-18.31-20.5c-1-1.46-2.56-3.53-4.76-6.22-1.95-2.69-3.42-4.64-4.39-5.86C746.12,153.46,744.16,151.13,743.92,151.13ZM757.1,612.07a1.06,1.06,0,0,1-.73-.36v-1.1h.36a1.07,1.07,0,0,1,.74-.37q2.19.75,13.91,12.45,13.54,13.18,19.4,18.67a1.19,1.19,0,0,1,.74,1.1c0,.25-.25.61-.74,1.1a1.45,1.45,0,0,1-1.09.37,2.68,2.68,0,0,1-1.1-.37q-3.68-2.92-18.31-17.94l-9.15-9.15L759.66,615l-1.46-1.46c-.49-.49-.73-.85-.73-1.1a.43.43,0,1,0-.37-.37ZM763,381.79a1,1,0,0,1-.37-.74,1.16,1.16,0,0,1,.73-1.09,1.07,1.07,0,0,1,.74-.37,2.15,2.15,0,0,1,1.46.73q2.57,4,9.52,11,6.59,6.58,7.69,8.78v.74a1.48,1.48,0,0,1-.37,1.09.91.91,0,0,1-1.46,0q-1.85-1.46-10.25-10.25A84,84,0,0,1,763,381.79Zm6.22-231a1.06,1.06,0,0,1-.36-.73,1.08,1.08,0,0,1,.36-.74,1.06,1.06,0,0,1,.73-.36,1.08,1.08,0,0,1,.74.36q18.68,14.65,46.86,48.33,29.65,35.52,45.76,49.43Q890,269.4,916,293.19q17.93,16.11,27.09,25.26,9.51,10.62,12.45,13.91a4.63,4.63,0,0,1,.73,1.1l1.1,1.1c.48.24.73.49.73.73,0,.49-.73.86-2.2,1.1a1.06,1.06,0,0,1-.36-.73,1.16,1.16,0,0,1,.73-1.1h.36a1.48,1.48,0,0,1,1.47.73,3.52,3.52,0,0,1,.73,1.83v.37a1.16,1.16,0,0,1-1.1.73,2.77,2.77,0,0,1-1.1-.37q-42.11-42.47-42.1-43.2-21.6-17.56-52.72-46.13-16.47-14.64-46.13-49.06Q786.39,165.78,769.18,150.77ZM785.29,376.3a1.06,1.06,0,0,1-.36-.74,1.53,1.53,0,0,1,.36-1.1c.24-.48.49-.73.73-.73a1.11,1.11,0,0,1,.74.37q4.4,2.56,13.54,12.08,10.62,11,12.45,13.91a1.11,1.11,0,0,1,.37.74,1.07,1.07,0,0,1-.37.73,1.5,1.5,0,0,1-1.1.36h-.36q-3.3-2.19-13.55-13.54A107.69,107.69,0,0,0,785.29,376.3Zm4,235.41a1.07,1.07,0,0,1,.37.73l-.37.37a1.52,1.52,0,0,1-1.1.36h-.37v-.36a1.11,1.11,0,0,1,.37-.74v-1.83q1.83,1.47,13.18,12.82,4.4,4.4,9.15,9.52c2.44,2.93,3.67,4.64,3.67,5.12,0,1-.37,1.47-1.1,1.47h-.74q-.36,0-5.12-5.13-5.49-5.85-8.79-9.52-10.62-10.6-12.08-12.81A1,1,0,0,1,786,611c0-.24.37-.49,1.1-.74h.37a1.52,1.52,0,0,1,1.1.37C788.59,610.86,788.83,611.22,789.32,611.71ZM801,150.77a1.5,1.5,0,0,1-.36-1.1c0-.49.36-.85,1.1-1.1a1.05,1.05,0,0,1,.73-.37c.49,0,1,.37,1.46,1.1q3.66,5.49,39.18,36.61a521.35,521.35,0,0,1,48,47.6q69.55,80.17,77.25,85.67c.73.49,1.1,1,1.1,1.47a1.48,1.48,0,0,1-.37,1.09c-.49.74-1,1.1-1.46,1.1a2.83,2.83,0,0,1-1.1-.36h.37q0-1.47-80.92-88.6-24.16-26.37-48.69-49.06Q802.14,152.24,801,150.77Zm1.47,212.35v-.37a1.48,1.48,0,0,1,.37-1.1,2.86,2.86,0,0,1,1.09-.37.33.33,0,0,1,.37.37,711.58,711.58,0,0,0,49.43,53.45q9.88,9.88,25.26,26,21.22,22,25.26,26,28.56,28.94,51.26,43.57,20.49,13.19,41.37,43.93a1.53,1.53,0,0,1,.36,1.1c0,.49-.36.86-1.09,1.1a1.49,1.49,0,0,1-1.1.37c-.5,0-1-.37-1.47-1.1q-13.17-17.94-23.43-28.19-.36-.36-26.36-20.87-27.11-21.6-45.4-42.47Q888.54,453.91,849,415.1,818.24,385.08,802.5,363.12ZM812,604a2.72,2.72,0,0,1-.37-1.1,1.05,1.05,0,0,1,.37-.73,1.07,1.07,0,0,1,.73-.37,1.52,1.52,0,0,1,1.1.37q21.6,17.94,24.53,34a1.48,1.48,0,0,1-.73,1.46h-.37a1.5,1.5,0,0,1-1.1-.36q-1.09-2.21-4.76-8.79-2.92-5.49-5.12-8.79A144.43,144.43,0,0,0,812,604Zm15.74-249.33-.36.37H827a1.46,1.46,0,0,1-1.1-.37q-4.39-5.85-4.76-5.85v-.37a1.48,1.48,0,0,1,.37-1.1h.36a1.5,1.5,0,0,1,1.1.37q2.57,2.56,7.32,8.05c3.17,3.66,5.5,6.35,7,8.06,1,1,3.3,3.29,7,6.95a93.74,93.74,0,0,1,7,7,1.09,1.09,0,0,1,.37.73,2.89,2.89,0,0,1-.37,1.1,1.16,1.16,0,0,1-1.1.73,1.06,1.06,0,0,1-.73-.36q-5.49-3.66-16.11-15.38a161,161,0,0,1-12.08-15.38,2.88,2.88,0,0,0,1.1-.36,2.89,2.89,0,0,1,1.1-.37c.48,0,1.83,1.83,4,5.49A1.08,1.08,0,0,1,827.76,354.69Zm1.47-205a1,1,0,0,1-.37-.73,1.46,1.46,0,0,1,.37-1.1c.48-.49.85-.73,1.09-.73a1.16,1.16,0,0,1,1.1.73q12.09,11.35,45,43.93,38.44,38.44,40.28,40.64,47.22,53.82,64.8,67.37c.49.24.73.49.73.73a2.61,2.61,0,0,1-2.19,2.2,1,1,0,0,1-.74-.37q-11.34-6.58-31.85-28.92-6.22-7-16.47-19Q918.92,240.1,914.16,235q-2.19-2.55-40.27-41Q830,150.41,829.23,149.67Zm.36,442.63a1,1,0,0,1-.36-.73,1.29,1.29,0,0,1,1.09-1.1h.74q4.76,2.94,15.74,16.48,14.28,17.94,14.64,18.67a1.09,1.09,0,0,1,.37.73,1.07,1.07,0,0,1-.37.74,1.49,1.49,0,0,1-1.09.36,1.06,1.06,0,0,1-.74-.36q-.74-.74-16.47-19.77A147.92,147.92,0,0,0,829.59,592.3Zm3.66-259.94a1.16,1.16,0,0,1-.73-1.1,1.05,1.05,0,0,1,.37-.73c.24-.49.48-.73.73-.73a1.06,1.06,0,0,1,.73.36q8.42,4.77,20.5,20.51a123.34,123.34,0,0,0,20.51,20.13,1.53,1.53,0,0,1,.36,1.1v.37a1.16,1.16,0,0,1-1.1.73h-.36q-10.26-4-21.6-18.67Q838.74,336.39,833.25,332.36Zm5.49-79.45a1,1,0,0,1-.36-.73,1.08,1.08,0,0,1,.36-.73,1.5,1.5,0,0,1,1.1-.37h.37q16.11,11,49.79,47.6,34.79,38.08,43.57,48.69a1.17,1.17,0,0,1,.73,1.1c0,.25-.24.61-.73,1.1a1.52,1.52,0,0,1-1.1.36,2.88,2.88,0,0,1-1.1-.36q-.74-.74-43.93-48.33Q869.13,280.74,838.74,252.91Zm7.33,56.39a1.06,1.06,0,0,1,.36.73v.73c-.24.49-.49.73-.73.73a1.06,1.06,0,0,1-.73-.36l-4-2.2a2.83,2.83,0,0,1-.36-1.1,1.08,1.08,0,0,1,.36-.73c.49-.49.85-.73,1.1-.73s.49.24.73.73q9.88,7.68,30,28.56,1.83,1.83,13.92,13.18a160.86,160.86,0,0,1,13.18,13.91,1.08,1.08,0,0,1,.36.73,2.83,2.83,0,0,1-.36,1.1,1.18,1.18,0,0,1-1.1.73,1,1,0,0,1-.73-.36q-5.5-4-27.83-26.73-13.92-14.28-29.29-29.29a10.2,10.2,0,0,0,2.2-1.83Zm-3.3,72.12q0-3.66,3.3-3.66c2.43-.24,5-.37,7.69-.37q13.9,0,32.21,4a233.27,233.27,0,0,1,48.7,16.11q15.74,7.34,39.54,24.53,22.69,16.11,33.68,31.49a83,83,0,0,1,15.74,44.66c.24,2.69.37,5.37.37,8.06a102.45,102.45,0,0,1-8.79,42.1,105.4,105.4,0,0,1-29.29,39.17q-39.18,33-39.17,33.32a118.06,118.06,0,0,1-22,12.82,63.7,63.7,0,0,1-12.81,4c-2.44.49-4.4.86-5.86,1.1h-4.39a24.61,24.61,0,0,0,.73-3.66v.37a21.65,21.65,0,0,0-3.3-2.57H901a8.25,8.25,0,0,1,2.57.37,3.09,3.09,0,0,1,1.83,2.56,4,4,0,0,1-.73,2.2,3.32,3.32,0,0,1-2.93,1.83,5.79,5.79,0,0,1-1.83-.37.33.33,0,0,1,.36.37h-1.1a3.15,3.15,0,0,1-3.29-2.56,3.2,3.2,0,0,1-.37-1.47,3.16,3.16,0,0,1,1.1-2.19q.74-.73,10.62-2.2a46,46,0,0,0,11.71-2.93q17.58-6.22,43.21-29.29,30.75-27.82,36.24-35.15A93.57,93.57,0,0,0,1016,518.35a131.51,131.51,0,0,0,.73-13.55q0-20.49-7.69-36.24-9.15-17.94-29.66-34.42-7.68-5.85-19.77-13.91Q943.83,410,939.79,407.78,920,397.17,893.66,390.21q-22.7-5.85-39.54-5.86c-2.93,0-5.62.13-8,.37Q842.77,384.72,842.77,381.42Zm7,199.9a1.08,1.08,0,0,1,.36.73,1.06,1.06,0,0,1-.36.74h-1.47a45.84,45.84,0,0,1-3.66-2.93l1.1-1.1a4.35,4.35,0,0,1,.73-1.1,322,322,0,0,0,28.19,31.12q20.13,20.51,24.17,26a1.1,1.1,0,0,1,.36.74,1.15,1.15,0,0,1-.73,1.09h-.36a1.49,1.49,0,0,1-1.1-.36q-4.77-4-29.29-29.29-15.75-16.47-23.43-27.46a2.72,2.72,0,0,1-.37-1.1,1.18,1.18,0,0,1,.73-1.1h.73a2.13,2.13,0,0,1,1.47.74l1.46,1.46A3.92,3.92,0,0,0,849.73,581.32ZM844.6,284a1,1,0,0,1-.36-.73c0-.24.24-.48.73-.73h.36a1.5,1.5,0,0,1,1.1.37q29.3,43.56,73.59,78.34a1.19,1.19,0,0,1,.74,1.1c0,.25-.25.62-.74,1.1a2.09,2.09,0,0,1-1.46.73,1.5,1.5,0,0,1-1.1-.36Q867.66,325.41,844.6,284Zm26.73-127c-1.71,0-2.56-1-2.56-2.93,0-2.43,1.09-3.78,3.29-4a43.25,43.25,0,0,1,5.49-.37,79,79,0,0,1,16.84,1.83q45.4,8.06,76.52,47.23,25.26,31.85,25.27,63.34a84.55,84.55,0,0,1-2.2,19Q982.63,328,939.43,352.86q-31.12,18-89,28.19a30.86,30.86,0,0,0-.37-3.66,23.37,23.37,0,0,0-.73-3.29h4.4c2.43,0,3.66,1.22,3.66,3.66,0,2.2-1.23,3.29-3.66,3.29h-4.4c-1.71,0-2.81-1.09-3.29-3.29V377c0-1.47.85-2.44,2.56-2.93h1.83a11.64,11.64,0,0,1,1.83-.37q59-10.61,88.24-29.65Q961,330.9,972.74,313q14.64-23.07,16.11-43.94a47.86,47.86,0,0,0,.37-5.85q0-39.56-35.88-73.23-35.52-33.31-74.69-33.31a60.63,60.63,0,0,0-6.59.36Zm-16.48,225.9v-.37a1.48,1.48,0,0,1,.37-1.1.91.91,0,0,1,1.46,0q14.28,18.31,73.23,71.76,53.45,48.69,82.74,84.94a1.17,1.17,0,0,1,.73,1.1c0,.24-.24.61-.73,1.1a1.52,1.52,0,0,1-1.1.36,2.88,2.88,0,0,1-1.1-.36q-34.41-42.11-84.2-86.77Q865.1,398.62,854.85,382.89Zm2.2,239.44V622a1.46,1.46,0,0,1,.73-1.46,1.07,1.07,0,0,1,.74-.37c.24,0,.48.24.73.73,1.22,2,2.8,4.27,4.76,7v.36a1.49,1.49,0,0,1-.37,1.1,1.46,1.46,0,0,1-1.1.37h-.36A23.59,23.59,0,0,1,857.05,622.33Zm3.3-.37a1.08,1.08,0,0,1,.36.73,2.83,2.83,0,0,1-.36,1.1,1.49,1.49,0,0,1-1.1.37,1,1,0,0,1-.73-.37l-.74-.73a4,4,0,0,0,1.83-.37v-1.83l1.47,1.83,1.46,1.47,1.1,1.09q2.93,3.3,2.93,4.4V630a1,1,0,0,1-1.1,1.1h-.73c-.73,0-2.2-1.34-4.39-4-1.71-2-2.69-3.54-2.93-4.76V622a1.52,1.52,0,0,1,.36-1.1,1.06,1.06,0,0,1,.74-.36,1.49,1.49,0,0,1,1.09.36,1,1,0,0,0,.37.73A.33.33,0,0,1,860.35,622Zm-1.83-56.75a1,1,0,0,1-.37-.73c0-.24.24-.49.73-.73a1.07,1.07,0,0,1,.73-.37,1.11,1.11,0,0,1,.74.37q11,14.28,32.58,34.78,25.26,24.16,33.68,33.68a1.18,1.18,0,0,1,.74,1.1c0,.24-.25.61-.74,1.1a1.5,1.5,0,0,1-1.1.36,2.8,2.8,0,0,1-1.09-.36q-3.67-4-34.78-33.32Q868.4,581.32,858.52,565.21Zm9.51-409a.33.33,0,0,1,.37.37,1.07,1.07,0,0,1-.37.73.32.32,0,0,1-.36.36h-.73q.36.38.36,0c.24,0-.61-.6-2.56-1.83a8.2,8.2,0,0,0,1.83-1.1l8.42,7.33,8.79,7.69,14.64,14.64q12.45,12.83,31.12,33.32,2.57,2.92,14.65,16.11,9.13,10.25,15,16.47l13.54,13.55a157.8,157.8,0,0,1,13.18,13.91,1.09,1.09,0,0,1,.37.73,3.33,3.33,0,0,1-.37,1.47,1.16,1.16,0,0,1-1.09.73,1,1,0,0,1-.74-.37q-7-5.12-27.46-27.46-.36-.36-29.65-32.95-34.79-38.07-63-63.33a1,1,0,0,1-.37-.74,1.05,1.05,0,0,1,.37-.73,1.52,1.52,0,0,1,.36-1.1c.24-.73.61-1.1,1.1-1.1.24,0,.61.37,1.1,1.1A8.51,8.51,0,0,0,868,156.26ZM869.13,548v-1.09a1.07,1.07,0,0,1,.73-.37h.37q5.85,1.47,17.57,11a275.71,275.71,0,0,1,22,20.51q16.85,17.57,36.61,42.47a1.17,1.17,0,0,1,.74,1.09c0,.25-.25.62-.74,1.1a1.46,1.46,0,0,1-1.1.37,2.69,2.69,0,0,1-1.09-.37q-20.52-25.26-37-42.47a263.93,263.93,0,0,0-20.14-19q-2.57-2.19-8.78-6.59T869.13,548ZM875,524.94c-.49-.49-.73-.85-.73-1.1a1.06,1.06,0,0,1,.36-.73,2.94,2.94,0,0,1,1.1-.37,1.07,1.07,0,0,1,.73.37q17.22,13.92,46.87,42.1,30.75,29.65,38.44,42.84v.73a1.29,1.29,0,0,1-1.46,1.46,1.06,1.06,0,0,1-.74-.36q-26.35-30.75-40.64-44.3-4-3.66-22.33-20.14Q883,533.37,875,524.94Zm4-59c-.25.74-.61,1.1-1.1,1.1-.73-.24-1.1-.6-1.1-1.1,0-1.95.49-2.92,1.47-2.92q2.19,0,7,5.85,9.53,12.09,29.29,32.59,4.4,4.75,38.44,36.61Q976.4,560.45,988.49,578a1.06,1.06,0,0,1,.36.73c0,.24-.24.61-.73,1.1a1.06,1.06,0,0,1-.73.36,1.16,1.16,0,0,1-1.1-.73q-4.39-4.75-15.38-17.21-9.52-11-15.37-17.2-6.24-6.23-16.11-15Q925.87,518,923,515.42q-5.85-5.85-15-16.11-11.36-12.44-15-16.11a83.11,83.11,0,0,1-7-8.05Q879,466.36,879,466ZM880.48,500v-.73a1,1,0,0,1,.37-.73h.73a1.06,1.06,0,0,1,.73.36q14.28,19.41,21.24,26,7.68,7,24.53,20.87,33.3,27.09,44.3,45.76a1.52,1.52,0,0,1,.36,1.1c0,.49-.36.86-1.09,1.1a2.93,2.93,0,0,1-1.1.36,1.16,1.16,0,0,1-1.1-.73q-10.26-17.21-49.79-49.79Q885.61,515.43,880.48,500ZM890,392a1.06,1.06,0,0,1-.36-.73.33.33,0,0,1,.36-.37,2.89,2.89,0,0,1,1.1-.37.33.33,0,0,1,.37.37q10.6,11.71,31.12,29.29,23.05,20.14,31.48,28.56,34.78,35.5,57.48,67.36a1.52,1.52,0,0,1,.37,1.1c0,.25-.25.61-.73,1.1a1.1,1.1,0,0,1-.74.36,1.15,1.15,0,0,1-1.09-.73q-53.82-63.33-61.88-70.66Q892.57,395.35,890,392Zm11-231.39h.37a1.07,1.07,0,0,1,.73.37,76.24,76.24,0,0,0,15.75,18.67q1.83,1.47,10.61,8.42a87.26,87.26,0,0,1,10.25,8.42q5.5,5.13,54.56,54.19a2.15,2.15,0,0,1,.73,1.46c0,.25-.25.61-.73,1.1a2.13,2.13,0,0,1-1.47.73,1.5,1.5,0,0,1-1.1-.36Q938,200.57,932.1,195.8,911.59,179,909,176.4q-8.79-9.15-8.79-13.92v-1.1A.65.65,0,0,1,901,160.65ZM937.6,408.51a1,1,0,0,1-.37-.73.32.32,0,0,1,.37-.36,1.48,1.48,0,0,1,1.09-.37h.37q7.32,4.76,16.48,17.21,9.88,13.92,15.37,18.67,43.94,36.24,46.5,39.17a1.18,1.18,0,0,1,.73,1.1,2.11,2.11,0,0,1-.73,1.47,1.52,1.52,0,0,1-1.1.36,2.88,2.88,0,0,1-1.1-.36,218.6,218.6,0,0,0-22.7-20.87q-22.69-17.94-23.79-19-4.4-4.39-15-18.31Q944.55,414.38,937.6,408.51Zm54.18,144.62a1,1,0,0,1,1.1-1.1h.37a.65.65,0,0,1,.73.73,26.94,26.94,0,0,0,2.93,4.4q4,5.49,4,5.85a1.11,1.11,0,0,1,.37.74,1.07,1.07,0,0,1-.37.73h-1.46Q992.89,561.18,991.78,553.13Z" fill="#fff"/>
</svg>
