<svg xmlns="http://www.w3.org/2000/svg" viewBox="0 0 1024 1024">
  <title>Tiny-svg</title>
  <g id="Background">
    <rect width="1024" height="1024" fill="#266ba4"/>
  </g>
  <g id="Grid">
    <g opacity="0.4">
      <rect width="1024" height="1024" fill="none" stroke="#fff" stroke-miterlimit="10"/>
      <line y1="983.04" x2="1024" y2="983.04" fill="none" stroke="#fff" stroke-miterlimit="10"/>
      <line y1="942.08" x2="1024" y2="942.08" fill="none" stroke="#fff" stroke-miterlimit="10"/>
      <line y1="901.12" x2="1024" y2="901.12" fill="none" stroke="#fff" stroke-miterlimit="10"/>
      <line y1="860.16" x2="1024" y2="860.16" fill="none" stroke="#fff" stroke-miterlimit="10"/>
      <line y1="819.2" x2="1024" y2="819.2" fill="none" stroke="#fff" stroke-miterlimit="10"/>
      <line y1="778.24" x2="1024" y2="778.24" fill="none" stroke="#fff" stroke-miterlimit="10"/>
      <line y1="737.28" x2="1024" y2="737.28" fill="none" stroke="#fff" stroke-miterlimit="10"/>
      <line y1="696.32" x2="1024" y2="696.32" fill="none" stroke="#fff" stroke-miterlimit="10"/>
      <line y1="655.36" x2="1024" y2="655.36" fill="none" stroke="#fff" stroke-miterlimit="10"/>
      <line y1="614.4" x2="1024" y2="614.4" fill="none" stroke="#fff" stroke-miterlimit="10"/>
      <line y1="573.44" x2="1024" y2="573.44" fill="none" stroke="#fff" stroke-miterlimit="10"/>
      <line y1="532.48" x2="1024" y2="532.48" fill="none" stroke="#fff" stroke-miterlimit="10"/>
      <line y1="491.52" x2="1024" y2="491.52" fill="none" stroke="#fff" stroke-miterlimit="10"/>
      <line y1="450.56" x2="1024" y2="450.56" fill="none" stroke="#fff" stroke-miterlimit="10"/>
      <line y1="409.6" x2="1024" y2="409.6" fill="none" stroke="#fff" stroke-miterlimit="10"/>
      <line y1="368.64" x2="1024" y2="368.64" fill="none" stroke="#fff" stroke-miterlimit="10"/>
      <line y1="327.68" x2="1024" y2="327.68" fill="none" stroke="#fff" stroke-miterlimit="10"/>
      <line y1="286.72" x2="1024" y2="286.72" fill="none" stroke="#fff" stroke-miterlimit="10"/>
      <line y1="245.76" x2="1024" y2="245.76" fill="none" stroke="#fff" stroke-miterlimit="10"/>
      <line y1="204.8" x2="1024" y2="204.8" fill="none" stroke="#fff" stroke-miterlimit="10"/>
      <line y1="163.84" x2="1024" y2="163.84" fill="none" stroke="#fff" stroke-miterlimit="10"/>
      <line y1="122.88" x2="1024" y2="122.88" fill="none" stroke="#fff" stroke-miterlimit="10"/>
      <line y1="81.92" x2="1024" y2="81.92" fill="none" stroke="#fff" stroke-miterlimit="10"/>
      <line y1="40.96" x2="1024" y2="40.96" fill="none" stroke="#fff" stroke-miterlimit="10"/>
      <line x1="983.04" x2="983.04" y2="1024" fill="none" stroke="#fff" stroke-miterlimit="10"/>
      <line x1="942.08" x2="942.08" y2="1024" fill="none" stroke="#fff" stroke-miterlimit="10"/>
      <line x1="901.12" x2="901.12" y2="1024" fill="none" stroke="#fff" stroke-miterlimit="10"/>
      <line x1="860.16" x2="860.16" y2="1024" fill="none" stroke="#fff" stroke-miterlimit="10"/>
      <line x1="819.2" x2="819.2" y2="1024" fill="none" stroke="#fff" stroke-miterlimit="10"/>
      <line x1="778.24" x2="778.24" y2="1024" fill="none" stroke="#fff" stroke-miterlimit="10"/>
      <line x1="737.28" x2="737.28" y2="1024" fill="none" stroke="#fff" stroke-miterlimit="10"/>
      <line x1="696.32" x2="696.32" y2="1024" fill="none" stroke="#fff" stroke-miterlimit="10"/>
      <line x1="655.36" x2="655.36" y2="1024" fill="none" stroke="#fff" stroke-miterlimit="10"/>
      <line x1="614.4" x2="614.4" y2="1024" fill="none" stroke="#fff" stroke-miterlimit="10"/>
      <line x1="573.44" x2="573.44" y2="1024" fill="none" stroke="#fff" stroke-miterlimit="10"/>
      <line x1="532.48" x2="532.48" y2="1024" fill="none" stroke="#fff" stroke-miterlimit="10"/>
      <line x1="491.52" x2="491.52" y2="1024" fill="none" stroke="#fff" stroke-miterlimit="10"/>
      <line x1="450.56" x2="450.56" y2="1024" fill="none" stroke="#fff" stroke-miterlimit="10"/>
      <line x1="409.6" x2="409.6" y2="1024" fill="none" stroke="#fff" stroke-miterlimit="10"/>
      <line x1="368.64" x2="368.64" y2="1024" fill="none" stroke="#fff" stroke-miterlimit="10"/>
      <line x1="327.68" x2="327.68" y2="1024" fill="none" stroke="#fff" stroke-miterlimit="10"/>
      <line x1="286.72" x2="286.72" y2="1024" fill="none" stroke="#fff" stroke-miterlimit="10"/>
      <line x1="245.76" x2="245.76" y2="1024" fill="none" stroke="#fff" stroke-miterlimit="10"/>
      <line x1="204.8" x2="204.8" y2="1024" fill="none" stroke="#fff" stroke-miterlimit="10"/>
      <line x1="163.84" x2="163.84" y2="1024" fill="none" stroke="#fff" stroke-miterlimit="10"/>
      <line x1="122.88" x2="122.88" y2="1024" fill="none" stroke="#fff" stroke-miterlimit="10"/>
      <line x1="81.92" x2="81.92" y2="1024" fill="none" stroke="#fff" stroke-miterlimit="10"/>
      <line x1="40.96" x2="40.96" y2="1024" fill="none" stroke="#fff" stroke-miterlimit="10"/>
    </g>
    <g opacity="0.05">
      <rect width="1024" height="1024" fill="none" stroke="#fff" stroke-miterlimit="10"/>
      <line y1="1013.44" x2="1024" y2="1013.44" fill="none" stroke="#fff" stroke-miterlimit="10"/>
      <line y1="1002.89" x2="1024" y2="1002.89" fill="none" stroke="#fff" stroke-miterlimit="10"/>
      <line y1="992.33" x2="1024" y2="992.33" fill="none" stroke="#fff" stroke-miterlimit="10"/>
      <line y1="981.77" x2="1024" y2="981.77" fill="none" stroke="#fff" stroke-miterlimit="10"/>
      <line y1="971.22" x2="1024" y2="971.22" fill="none" stroke="#fff" stroke-miterlimit="10"/>
      <line y1="960.66" x2="1024" y2="960.66" fill="none" stroke="#fff" stroke-miterlimit="10"/>
      <line y1="950.1" x2="1024" y2="950.1" fill="none" stroke="#fff" stroke-miterlimit="10"/>
      <line y1="939.55" x2="1024" y2="939.55" fill="none" stroke="#fff" stroke-miterlimit="10"/>
      <line y1="928.99" x2="1024" y2="928.99" fill="none" stroke="#fff" stroke-miterlimit="10"/>
      <line y1="918.43" x2="1024" y2="918.43" fill="none" stroke="#fff" stroke-miterlimit="10"/>
      <line y1="907.88" x2="1024" y2="907.88" fill="none" stroke="#fff" stroke-miterlimit="10"/>
      <line y1="897.32" x2="1024" y2="897.32" fill="none" stroke="#fff" stroke-miterlimit="10"/>
      <line y1="886.76" x2="1024" y2="886.76" fill="none" stroke="#fff" stroke-miterlimit="10"/>
      <line y1="876.21" x2="1024" y2="876.21" fill="none" stroke="#fff" stroke-miterlimit="10"/>
      <line y1="865.65" x2="1024" y2="865.65" fill="none" stroke="#fff" stroke-miterlimit="10"/>
      <line y1="855.09" x2="1024" y2="855.09" fill="none" stroke="#fff" stroke-miterlimit="10"/>
      <line y1="844.54" x2="1024" y2="844.54" fill="none" stroke="#fff" stroke-miterlimit="10"/>
      <line y1="833.98" x2="1024" y2="833.98" fill="none" stroke="#fff" stroke-miterlimit="10"/>
      <line y1="823.42" x2="1024" y2="823.42" fill="none" stroke="#fff" stroke-miterlimit="10"/>
      <line y1="812.87" x2="1024" y2="812.87" fill="none" stroke="#fff" stroke-miterlimit="10"/>
      <line y1="802.31" x2="1024" y2="802.31" fill="none" stroke="#fff" stroke-miterlimit="10"/>
      <line y1="791.75" x2="1024" y2="791.75" fill="none" stroke="#fff" stroke-miterlimit="10"/>
      <line y1="781.2" x2="1024" y2="781.2" fill="none" stroke="#fff" stroke-miterlimit="10"/>
      <line y1="770.64" x2="1024" y2="770.64" fill="none" stroke="#fff" stroke-miterlimit="10"/>
      <line y1="760.08" x2="1024" y2="760.08" fill="none" stroke="#fff" stroke-miterlimit="10"/>
      <line y1="749.53" x2="1024" y2="749.53" fill="none" stroke="#fff" stroke-miterlimit="10"/>
      <line y1="738.97" x2="1024" y2="738.97" fill="none" stroke="#fff" stroke-miterlimit="10"/>
      <line y1="728.41" x2="1024" y2="728.41" fill="none" stroke="#fff" stroke-miterlimit="10"/>
      <line y1="717.86" x2="1024" y2="717.86" fill="none" stroke="#fff" stroke-miterlimit="10"/>
      <line y1="707.3" x2="1024" y2="707.3" fill="none" stroke="#fff" stroke-miterlimit="10"/>
      <line y1="696.74" x2="1024" y2="696.74" fill="none" stroke="#fff" stroke-miterlimit="10"/>
      <line y1="686.19" x2="1024" y2="686.19" fill="none" stroke="#fff" stroke-miterlimit="10"/>
      <line y1="675.63" x2="1024" y2="675.63" fill="none" stroke="#fff" stroke-miterlimit="10"/>
      <line y1="665.07" x2="1024" y2="665.07" fill="none" stroke="#fff" stroke-miterlimit="10"/>
      <line y1="654.52" x2="1024" y2="654.52" fill="none" stroke="#fff" stroke-miterlimit="10"/>
      <line y1="643.96" x2="1024" y2="643.96" fill="none" stroke="#fff" stroke-miterlimit="10"/>
      <line y1="633.4" x2="1024" y2="633.4" fill="none" stroke="#fff" stroke-miterlimit="10"/>
      <line y1="622.85" x2="1024" y2="622.85" fill="none" stroke="#fff" stroke-miterlimit="10"/>
      <line y1="612.29" x2="1024" y2="612.29" fill="none" stroke="#fff" stroke-miterlimit="10"/>
      <line y1="601.73" x2="1024" y2="601.73" fill="none" stroke="#fff" stroke-miterlimit="10"/>
      <line y1="591.18" x2="1024" y2="591.18" fill="none" stroke="#fff" stroke-miterlimit="10"/>
      <line y1="580.62" x2="1024" y2="580.62" fill="none" stroke="#fff" stroke-miterlimit="10"/>
      <line y1="570.06" x2="1024" y2="570.06" fill="none" stroke="#fff" stroke-miterlimit="10"/>
      <line y1="559.51" x2="1024" y2="559.51" fill="none" stroke="#fff" stroke-miterlimit="10"/>
      <line y1="548.95" x2="1024" y2="548.95" fill="none" stroke="#fff" stroke-miterlimit="10"/>
      <line y1="538.39" x2="1024" y2="538.39" fill="none" stroke="#fff" stroke-miterlimit="10"/>
      <line y1="527.84" x2="1024" y2="527.84" fill="none" stroke="#fff" stroke-miterlimit="10"/>
      <line y1="517.28" x2="1024" y2="517.28" fill="none" stroke="#fff" stroke-miterlimit="10"/>
      <line y1="506.72" x2="1024" y2="506.72" fill="none" stroke="#fff" stroke-miterlimit="10"/>
      <line y1="496.16" x2="1024" y2="496.16" fill="none" stroke="#fff" stroke-miterlimit="10"/>
      <line y1="485.61" x2="1024" y2="485.61" fill="none" stroke="#fff" stroke-miterlimit="10"/>
      <line y1="475.05" x2="1024" y2="475.05" fill="none" stroke="#fff" stroke-miterlimit="10"/>
      <line y1="464.49" x2="1024" y2="464.49" fill="none" stroke="#fff" stroke-miterlimit="10"/>
      <line y1="453.94" x2="1024" y2="453.94" fill="none" stroke="#fff" stroke-miterlimit="10"/>
      <line y1="443.38" x2="1024" y2="443.38" fill="none" stroke="#fff" stroke-miterlimit="10"/>
      <line y1="432.82" x2="1024" y2="432.82" fill="none" stroke="#fff" stroke-miterlimit="10"/>
      <line y1="422.27" x2="1024" y2="422.27" fill="none" stroke="#fff" stroke-miterlimit="10"/>
      <line y1="411.71" x2="1024" y2="411.71" fill="none" stroke="#fff" stroke-miterlimit="10"/>
      <line y1="401.15" x2="1024" y2="401.15" fill="none" stroke="#fff" stroke-miterlimit="10"/>
      <line y1="390.6" x2="1024" y2="390.6" fill="none" stroke="#fff" stroke-miterlimit="10"/>
      <line y1="380.04" x2="1024" y2="380.04" fill="none" stroke="#fff" stroke-miterlimit="10"/>
      <line y1="369.48" x2="1024" y2="369.48" fill="none" stroke="#fff" stroke-miterlimit="10"/>
      <line y1="358.93" x2="1024" y2="358.93" fill="none" stroke="#fff" stroke-miterlimit="10"/>
      <line y1="348.37" x2="1024" y2="348.37" fill="none" stroke="#fff" stroke-miterlimit="10"/>
      <line y1="337.81" x2="1024" y2="337.81" fill="none" stroke="#fff" stroke-miterlimit="10"/>
      <line y1="327.26" x2="1024" y2="327.26" fill="none" stroke="#fff" stroke-miterlimit="10"/>
      <line y1="316.7" x2="1024" y2="316.7" fill="none" stroke="#fff" stroke-miterlimit="10"/>
      <line y1="306.14" x2="1024" y2="306.14" fill="none" stroke="#fff" stroke-miterlimit="10"/>
      <line y1="295.59" x2="1024" y2="295.59" fill="none" stroke="#fff" stroke-miterlimit="10"/>
      <line y1="285.03" x2="1024" y2="285.03" fill="none" stroke="#fff" stroke-miterlimit="10"/>
      <line y1="274.47" x2="1024" y2="274.47" fill="none" stroke="#fff" stroke-miterlimit="10"/>
      <line y1="263.92" x2="1024" y2="263.92" fill="none" stroke="#fff" stroke-miterlimit="10"/>
      <line y1="253.36" x2="1024" y2="253.36" fill="none" stroke="#fff" stroke-miterlimit="10"/>
      <line y1="242.8" x2="1024" y2="242.8" fill="none" stroke="#fff" stroke-miterlimit="10"/>
      <line y1="232.25" x2="1024" y2="232.25" fill="none" stroke="#fff" stroke-miterlimit="10"/>
      <line y1="221.69" x2="1024" y2="221.69" fill="none" stroke="#fff" stroke-miterlimit="10"/>
      <line y1="211.13" x2="1024" y2="211.13" fill="none" stroke="#fff" stroke-miterlimit="10"/>
      <line y1="200.58" x2="1024" y2="200.58" fill="none" stroke="#fff" stroke-miterlimit="10"/>
      <line y1="190.02" x2="1024" y2="190.02" fill="none" stroke="#fff" stroke-miterlimit="10"/>
      <line y1="179.46" x2="1024" y2="179.46" fill="none" stroke="#fff" stroke-miterlimit="10"/>
      <line y1="168.91" x2="1024" y2="168.91" fill="none" stroke="#fff" stroke-miterlimit="10"/>
      <line y1="158.35" x2="1024" y2="158.35" fill="none" stroke="#fff" stroke-miterlimit="10"/>
      <line y1="147.79" x2="1024" y2="147.79" fill="none" stroke="#fff" stroke-miterlimit="10"/>
      <line y1="137.24" x2="1024" y2="137.24" fill="none" stroke="#fff" stroke-miterlimit="10"/>
      <line y1="126.68" x2="1024" y2="126.68" fill="none" stroke="#fff" stroke-miterlimit="10"/>
      <line y1="116.12" x2="1024" y2="116.12" fill="none" stroke="#fff" stroke-miterlimit="10"/>
      <line y1="105.57" x2="1024" y2="105.57" fill="none" stroke="#fff" stroke-miterlimit="10"/>
      <line y1="95.01" x2="1024" y2="95.01" fill="none" stroke="#fff" stroke-miterlimit="10"/>
      <line y1="84.45" x2="1024" y2="84.45" fill="none" stroke="#fff" stroke-miterlimit="10"/>
      <line y1="73.9" x2="1024" y2="73.9" fill="none" stroke="#fff" stroke-miterlimit="10"/>
      <line y1="63.34" x2="1024" y2="63.34" fill="none" stroke="#fff" stroke-miterlimit="10"/>
      <line y1="52.78" x2="1024" y2="52.78" fill="none" stroke="#fff" stroke-miterlimit="10"/>
      <line y1="42.23" x2="1024" y2="42.23" fill="none" stroke="#fff" stroke-miterlimit="10"/>
      <line y1="31.67" x2="1024" y2="31.67" fill="none" stroke="#fff" stroke-miterlimit="10"/>
      <line y1="21.11" x2="1024" y2="21.11" fill="none" stroke="#fff" stroke-miterlimit="10"/>
      <line y1="10.56" x2="1024" y2="10.56" fill="none" stroke="#fff" stroke-miterlimit="10"/>
      <line x1="1013.44" x2="1013.44" y2="1024" fill="none" stroke="#fff" stroke-miterlimit="10"/>
      <line x1="1002.89" x2="1002.89" y2="1024" fill="none" stroke="#fff" stroke-miterlimit="10"/>
      <line x1="992.33" x2="992.33" y2="1024" fill="none" stroke="#fff" stroke-miterlimit="10"/>
      <line x1="981.77" x2="981.77" y2="1024" fill="none" stroke="#fff" stroke-miterlimit="10"/>
      <line x1="971.22" x2="971.22" y2="1024" fill="none" stroke="#fff" stroke-miterlimit="10"/>
      <line x1="960.66" x2="960.66" y2="1024" fill="none" stroke="#fff" stroke-miterlimit="10"/>
      <line x1="950.1" x2="950.1" y2="1024" fill="none" stroke="#fff" stroke-miterlimit="10"/>
      <line x1="939.55" x2="939.55" y2="1024" fill="none" stroke="#fff" stroke-miterlimit="10"/>
      <line x1="928.99" x2="928.99" y2="1024" fill="none" stroke="#fff" stroke-miterlimit="10"/>
      <line x1="918.43" x2="918.43" y2="1024" fill="none" stroke="#fff" stroke-miterlimit="10"/>
      <line x1="907.88" x2="907.88" y2="1024" fill="none" stroke="#fff" stroke-miterlimit="10"/>
      <line x1="897.32" x2="897.32" y2="1024" fill="none" stroke="#fff" stroke-miterlimit="10"/>
      <line x1="886.76" x2="886.76" y2="1024" fill="none" stroke="#fff" stroke-miterlimit="10"/>
      <line x1="876.21" x2="876.21" y2="1024" fill="none" stroke="#fff" stroke-miterlimit="10"/>
      <line x1="865.65" x2="865.65" y2="1024" fill="none" stroke="#fff" stroke-miterlimit="10"/>
      <line x1="855.09" x2="855.09" y2="1024" fill="none" stroke="#fff" stroke-miterlimit="10"/>
      <line x1="844.54" x2="844.54" y2="1024" fill="none" stroke="#fff" stroke-miterlimit="10"/>
      <line x1="833.98" x2="833.98" y2="1024" fill="none" stroke="#fff" stroke-miterlimit="10"/>
      <line x1="823.42" x2="823.42" y2="1024" fill="none" stroke="#fff" stroke-miterlimit="10"/>
      <line x1="812.87" x2="812.87" y2="1024" fill="none" stroke="#fff" stroke-miterlimit="10"/>
      <line x1="802.31" x2="802.31" y2="1024" fill="none" stroke="#fff" stroke-miterlimit="10"/>
      <line x1="791.75" x2="791.75" y2="1024" fill="none" stroke="#fff" stroke-miterlimit="10"/>
      <line x1="781.2" x2="781.2" y2="1024" fill="none" stroke="#fff" stroke-miterlimit="10"/>
      <line x1="770.64" x2="770.64" y2="1024" fill="none" stroke="#fff" stroke-miterlimit="10"/>
      <line x1="760.08" x2="760.08" y2="1024" fill="none" stroke="#fff" stroke-miterlimit="10"/>
      <line x1="749.53" x2="749.53" y2="1024" fill="none" stroke="#fff" stroke-miterlimit="10"/>
      <line x1="738.97" x2="738.97" y2="1024" fill="none" stroke="#fff" stroke-miterlimit="10"/>
      <line x1="728.41" x2="728.41" y2="1024" fill="none" stroke="#fff" stroke-miterlimit="10"/>
      <line x1="717.86" x2="717.86" y2="1024" fill="none" stroke="#fff" stroke-miterlimit="10"/>
      <line x1="707.3" x2="707.3" y2="1024" fill="none" stroke="#fff" stroke-miterlimit="10"/>
      <line x1="696.74" x2="696.74" y2="1024" fill="none" stroke="#fff" stroke-miterlimit="10"/>
      <line x1="686.19" x2="686.19" y2="1024" fill="none" stroke="#fff" stroke-miterlimit="10"/>
      <line x1="675.63" x2="675.63" y2="1024" fill="none" stroke="#fff" stroke-miterlimit="10"/>
      <line x1="665.07" x2="665.07" y2="1024" fill="none" stroke="#fff" stroke-miterlimit="10"/>
      <line x1="654.52" x2="654.52" y2="1024" fill="none" stroke="#fff" stroke-miterlimit="10"/>
      <line x1="643.96" x2="643.96" y2="1024" fill="none" stroke="#fff" stroke-miterlimit="10"/>
      <line x1="633.4" x2="633.4" y2="1024" fill="none" stroke="#fff" stroke-miterlimit="10"/>
      <line x1="622.85" x2="622.85" y2="1024" fill="none" stroke="#fff" stroke-miterlimit="10"/>
      <line x1="612.29" x2="612.29" y2="1024" fill="none" stroke="#fff" stroke-miterlimit="10"/>
      <line x1="601.73" x2="601.73" y2="1024" fill="none" stroke="#fff" stroke-miterlimit="10"/>
      <line x1="591.18" x2="591.18" y2="1024" fill="none" stroke="#fff" stroke-miterlimit="10"/>
      <line x1="580.62" x2="580.62" y2="1024" fill="none" stroke="#fff" stroke-miterlimit="10"/>
      <line x1="570.06" x2="570.06" y2="1024" fill="none" stroke="#fff" stroke-miterlimit="10"/>
      <line x1="559.51" x2="559.51" y2="1024" fill="none" stroke="#fff" stroke-miterlimit="10"/>
      <line x1="548.95" x2="548.95" y2="1024" fill="none" stroke="#fff" stroke-miterlimit="10"/>
      <line x1="538.39" x2="538.39" y2="1024" fill="none" stroke="#fff" stroke-miterlimit="10"/>
      <line x1="527.84" x2="527.84" y2="1024" fill="none" stroke="#fff" stroke-miterlimit="10"/>
      <line x1="517.28" x2="517.28" y2="1024" fill="none" stroke="#fff" stroke-miterlimit="10"/>
      <line x1="506.72" x2="506.72" y2="1024" fill="none" stroke="#fff" stroke-miterlimit="10"/>
      <line x1="496.16" x2="496.16" y2="1024" fill="none" stroke="#fff" stroke-miterlimit="10"/>
      <line x1="485.61" x2="485.61" y2="1024" fill="none" stroke="#fff" stroke-miterlimit="10"/>
      <line x1="475.05" x2="475.05" y2="1024" fill="none" stroke="#fff" stroke-miterlimit="10"/>
      <line x1="464.49" x2="464.49" y2="1024" fill="none" stroke="#fff" stroke-miterlimit="10"/>
      <line x1="453.94" x2="453.94" y2="1024" fill="none" stroke="#fff" stroke-miterlimit="10"/>
      <line x1="443.38" x2="443.38" y2="1024" fill="none" stroke="#fff" stroke-miterlimit="10"/>
      <line x1="432.82" x2="432.82" y2="1024" fill="none" stroke="#fff" stroke-miterlimit="10"/>
      <line x1="422.27" x2="422.27" y2="1024" fill="none" stroke="#fff" stroke-miterlimit="10"/>
      <line x1="411.71" x2="411.71" y2="1024" fill="none" stroke="#fff" stroke-miterlimit="10"/>
      <line x1="401.15" x2="401.15" y2="1024" fill="none" stroke="#fff" stroke-miterlimit="10"/>
      <line x1="390.6" x2="390.6" y2="1024" fill="none" stroke="#fff" stroke-miterlimit="10"/>
      <line x1="380.04" x2="380.04" y2="1024" fill="none" stroke="#fff" stroke-miterlimit="10"/>
      <line x1="369.48" x2="369.48" y2="1024" fill="none" stroke="#fff" stroke-miterlimit="10"/>
      <line x1="358.93" x2="358.93" y2="1024" fill="none" stroke="#fff" stroke-miterlimit="10"/>
      <line x1="348.37" x2="348.37" y2="1024" fill="none" stroke="#fff" stroke-miterlimit="10"/>
      <line x1="337.81" x2="337.81" y2="1024" fill="none" stroke="#fff" stroke-miterlimit="10"/>
      <line x1="327.26" x2="327.26" y2="1024" fill="none" stroke="#fff" stroke-miterlimit="10"/>
      <line x1="316.7" x2="316.7" y2="1024" fill="none" stroke="#fff" stroke-miterlimit="10"/>
      <line x1="306.14" x2="306.14" y2="1024" fill="none" stroke="#fff" stroke-miterlimit="10"/>
      <line x1="295.59" x2="295.59" y2="1024" fill="none" stroke="#fff" stroke-miterlimit="10"/>
      <line x1="285.03" x2="285.03" y2="1024" fill="none" stroke="#fff" stroke-miterlimit="10"/>
      <line x1="274.47" x2="274.47" y2="1024" fill="none" stroke="#fff" stroke-miterlimit="10"/>
      <line x1="263.92" x2="263.92" y2="1024" fill="none" stroke="#fff" stroke-miterlimit="10"/>
      <line x1="253.36" x2="253.36" y2="1024" fill="none" stroke="#fff" stroke-miterlimit="10"/>
      <line x1="242.8" x2="242.8" y2="1024" fill="none" stroke="#fff" stroke-miterlimit="10"/>
      <line x1="232.25" x2="232.25" y2="1024" fill="none" stroke="#fff" stroke-miterlimit="10"/>
      <line x1="221.69" x2="221.69" y2="1024" fill="none" stroke="#fff" stroke-miterlimit="10"/>
      <line x1="211.13" x2="211.13" y2="1024" fill="none" stroke="#fff" stroke-miterlimit="10"/>
      <line x1="200.58" x2="200.58" y2="1024" fill="none" stroke="#fff" stroke-miterlimit="10"/>
      <line x1="190.02" x2="190.02" y2="1024" fill="none" stroke="#fff" stroke-miterlimit="10"/>
      <line x1="179.46" x2="179.46" y2="1024" fill="none" stroke="#fff" stroke-miterlimit="10"/>
      <line x1="168.91" x2="168.91" y2="1024" fill="none" stroke="#fff" stroke-miterlimit="10"/>
      <line x1="158.35" x2="158.35" y2="1024" fill="none" stroke="#fff" stroke-miterlimit="10"/>
      <line x1="147.79" x2="147.79" y2="1024" fill="none" stroke="#fff" stroke-miterlimit="10"/>
      <line x1="137.24" x2="137.24" y2="1024" fill="none" stroke="#fff" stroke-miterlimit="10"/>
      <line x1="126.68" x2="126.68" y2="1024" fill="none" stroke="#fff" stroke-miterlimit="10"/>
      <line x1="116.12" x2="116.12" y2="1024" fill="none" stroke="#fff" stroke-miterlimit="10"/>
      <line x1="105.57" x2="105.57" y2="1024" fill="none" stroke="#fff" stroke-miterlimit="10"/>
      <line x1="95.01" x2="95.01" y2="1024" fill="none" stroke="#fff" stroke-miterlimit="10"/>
      <line x1="84.45" x2="84.45" y2="1024" fill="none" stroke="#fff" stroke-miterlimit="10"/>
      <line x1="73.9" x2="73.9" y2="1024" fill="none" stroke="#fff" stroke-miterlimit="10"/>
      <line x1="63.34" x2="63.34" y2="1024" fill="none" stroke="#fff" stroke-miterlimit="10"/>
      <line x1="52.78" x2="52.78" y2="1024" fill="none" stroke="#fff" stroke-miterlimit="10"/>
      <line x1="42.23" x2="42.23" y2="1024" fill="none" stroke="#fff" stroke-miterlimit="10"/>
      <line x1="31.67" x2="31.67" y2="1024" fill="none" stroke="#fff" stroke-miterlimit="10"/>
      <line x1="21.11" x2="21.11" y2="1024" fill="none" stroke="#fff" stroke-miterlimit="10"/>
      <line x1="10.56" x2="10.56" y2="1024" fill="none" stroke="#fff" stroke-miterlimit="10"/>
    </g>
  </g>
  <g id="Outline">
    <rect x="22" y="22" width="980" height="980" fill="none" stroke="#fff" stroke-miterlimit="10" stroke-width="3"/>
  </g>
  <g id="Title">
    <path d="M49.94,740.86a3,3,0,0,1,.34,1.32c0,1.11-.78,1.88-2.32,2.32a3,3,0,0,1-1.33.33,3.21,3.21,0,0,1-3-2.31,5.48,5.48,0,0,1-.33-1.66q0-5.29,16.23-5.3H61.2q2.65,0,16.56.66c6.63.23,12.15.33,16.56.33q10.28-.31,30.14-1.32,20.54-1,29.81-1h7.95q21.53,0,54.65,1.32,34.44,2,61.6,2.32c1.54,0,4.42.11,8.61.33q5.64.33,8.95.33,12.24,0,13.91-2.32a4.07,4.07,0,0,1,2.32-1,3.4,3.4,0,0,1,3.31,3.31,4.05,4.05,0,0,1-1,2.32q-2.65,2.65-10.26,3.64H289.73q-6.63,0-18.87-.33-13.26-.33-18.88-.66-10.28-.33-31.47-1.33-20.2-1-31.13-1.32-9.93-.33-21.2-.33-18.56,0-40.74,1-23.52,1.34-39.41,1.33-7.95,0-13.91-.33c-9.49-.44-14.69-.67-15.56-.67a54.35,54.35,0,0,0-7.29.33,10.62,10.62,0,0,0-2.32.67h.33A3.6,3.6,0,0,0,49.94,740.86Zm5-15.9a1,1,0,0,1,.33.66V726q-.33.66-.66.66a1,1,0,0,1-.66-.33L51.27,725a14.81,14.81,0,0,0-2.65-1.32c0-.22.22-.55.66-1a3.58,3.58,0,0,1,.66-1.32,115.33,115.33,0,0,1,9.61,7.95q11.25,9.93,10.6,9.27c.44.22.66.45.66.66s-.22.56-.66,1a1.08,1.08,0,0,1-1,.66,1,1,0,0,1-.66-.33q-3-1.32-10.27-7.95a119.27,119.27,0,0,1-9.93-9.27,1,1,0,0,1-.33-.67,1.34,1.34,0,0,1,.33-1,1.06,1.06,0,0,1,1-.66,1,1,0,0,1,.66.33c.67.44,1.44,1,2.32,1.66A19.28,19.28,0,0,1,54.91,725ZM48.29,279.5a3.55,3.55,0,0,1,.66-2,3,3,0,0,1,2.65-2,3.27,3.27,0,0,1,1.66.66,5,5,0,0,0,1.32,1q3.31,1.32,10.27,1.32a95.15,95.15,0,0,0,10.6-.66h6.62q7.28,0,18.55.33,11.58.33,22.52.33,21.53,0,40.41-1.32,49.68-3.65,60.27-3.64h1.33q7,0,30.14,2,14.9,1,25.17,1h4.64q6.94-.33,29.14-1.66,17.89-1,28.82-1h2.32q32.12,0,54.64,8.61,50,18.87,68.56,56.63,9.27,19.54,9.94,46v2.32a192.68,192.68,0,0,1-6.29,48.68q-7,27.5-18.88,47.37A105.86,105.86,0,0,1,422.88,515q-28.81,19.54-83.14,30.14-3.64.68-27.82,6.29-16.89,3.66-27.82,5a127.77,127.77,0,0,1-13.58.66c-4.86,0-9.93-.21-15.23-.66q-6.63-1-10.27-1.66a27.42,27.42,0,0,0-4-1,1,1,0,0,0-.67-.33,1,1,0,0,0-.66.33,1.3,1.3,0,0,0,1-1.32v1a2.86,2.86,0,0,1-2.32,3,3,3,0,0,1-1.33.33c-1.32,0-2.21-.88-2.65-2.65a9.7,9.7,0,0,1-.33-2.32c0-3.09,1.87-4.63,5.63-4.63a20.68,20.68,0,0,1,5,.66,108.18,108.18,0,0,0,22.52,3h2q15.23,0,55.64-8.94,63.26-14.23,85.12-26.5t33.45-28.48q12.58-17.55,20.87-45a199.53,199.53,0,0,0,8-51.67q0-28.81-9-47-19.21-39.42-69.88-56.31-11.26-3.63-90.42-3.64H276.82q-9.29,0-30.14-2-16.23-1.32-26.5-1.32h-3.64q-11.59.33-30.8,2-22.86,2-31.14,2.31-12.58.67-28.48.67-15.57,0-34.11-.67-2.66,0-22.86.67H66.84q-11.93,0-16.9-3A2.81,2.81,0,0,1,48.29,279.5Zm1,421c0-1.54.88-2.31,2.65-2.31a3.27,3.27,0,0,1,3.64,3.31c.22,2.43.34,6.07.34,10.93v8.28a147.43,147.43,0,0,0,1,19.54v1c0,1.33-.78,2.21-2.32,2.65a2.93,2.93,0,0,1-1.32.33c-1.33,0-2.11-.77-2.32-2.32a118.31,118.31,0,0,1-1.33-20.2V713q0-7.95-.33-11.59ZM50.94,309.3a5.14,5.14,0,0,1-.33-1.65c0-1.1.77-1.77,2.31-2a2.94,2.94,0,0,1,1.33-.33c1.32,0,2.2.78,2.65,2.32q1.65,3.64,14.57,6.62,10.94,2,17.89,4,25.15,7.62,34.44,21.86,10.26,15.9,10.93,47.36,0,10.26-.66,53.32-.33,11.59-.66,30.8-1,22.86-1,31.14v13.91q0,17.22.33,49,.33,15.58.34,28.49,0,19.22-.67,32.79-1,24.84-7.28,40.4-8.3,19.54-23.52,29.48a65.94,65.94,0,0,1-19.87,8.28q-18.22,4.65-28.48,5v-6.29h5.3c2.2,0,3.31,1,3.31,3,0,2.21-1.11,3.31-3.31,3.31h-5.3q-3.32,0-3.32-3.31,0-3,3.32-3,8.94-.33,23.18-4,11.93-3,17.55-6a50.66,50.66,0,0,0,21.53-21.53q8.28-15.22,10.27-38.42,1-12.24,1-34.11,0-10.6-.33-23.85-.66-54-.66-63.26.33-11.25,1-31.13.66-22.18.66-31.13.66-31.8,1-54.65V393.1q0-32.13-8.28-46.7-8.62-15.57-37.1-23.18c-1.77-.44-4.86-1.11-9.27-2a90.76,90.76,0,0,1-9.27-2.32Q53.26,315.93,50.94,309.3ZM60.21,301a1,1,0,0,1,.33.67l-.33.33a.29.29,0,0,1-.33.33.93.93,0,0,1-.66-.33,67.7,67.7,0,0,0-6.3-4.64,1.06,1.06,0,0,1-.66-1,1,1,0,0,1,.33-.66,1.07,1.07,0,0,1,1-.67,1,1,0,0,1,.66.33q4.64,3.66,37.09,34.12a1,1,0,0,1,.34.66,1,1,0,0,1-.34.66,1.3,1.3,0,0,1-1,.33H90q-2.65-1.65-37.43-34.11l1.66-1.66C54.47,295.62,56.45,297.5,60.21,301Zm-.66-22.85c-.22,2-1.44,3-3.64,3-1.77,0-2.65-.66-2.65-2v-1a8.86,8.86,0,0,1,1-3.64,2.23,2.23,0,0,1,2-1,2.93,2.93,0,0,1,1.32.33c1.54.44,2.43,2.54,2.65,6.29v23.18a37.4,37.4,0,0,0,.66,8.28A3,3,0,0,1,61.2,313c0,1.11-.77,1.88-2.31,2.32a3,3,0,0,1-1.33.33c-1.32,0-2.21-.77-2.65-2.32q-1-2.65-1-22.85V279.17l-.33-.67v-.66a.93.93,0,0,0,.33.66,13.64,13.64,0,0,0,2,1.33,20.91,20.91,0,0,1,3-.66ZM62.2,705.75v-.33a1,1,0,0,1,.33-.66h.33a1,1,0,0,1,.66.33q3.32,3,8.95,9.27,6,6.63,9.27,9.61,3,3,10.6,9.27a106.63,106.63,0,0,1,10.6,9.61,1,1,0,0,1,.33.66,2.72,2.72,0,0,1-.33,1,.3.3,0,0,1-.34.33,2.53,2.53,0,0,1-1-.33q-7-3.3-23.51-20.2Q64.18,710.4,62.2,705.75Zm7-423.93a1,1,0,0,1,.67.33.3.3,0,0,1,.33.33,1,1,0,0,1-.33.66h.33q2.31,0,31.46,28.48,5,5,13.25,14.91,8.94,10.92,12.92,14.9a208.31,208.31,0,0,0,29.14,25.84q42.39,32.46,53.33,42.06,29.13,25.83,35.43,43.38v.34a1.29,1.29,0,0,1-1,1.32,2.64,2.64,0,0,1-1,.33c-.23,0-.45-.22-.67-.66q-10.26-22.52-45.7-51.67-7.62-6.62-28.15-21.53Q151,367.27,141.36,359q-9.29-8.28-25.51-26.83t-25.17-26.5Q68.5,286.13,68.49,282.48a1,1,0,0,1,.33-.66ZM81.08,703.1a.9.9,0,0,1-.33-.66.91.91,0,0,1,.33-.66,1,1,0,0,1,1-.66,1,1,0,0,1,.66.33q8,5.29,18.22,17.55,2.31,2.32,8.61,9.27,5.3,5.64,8.28,9.28a1,1,0,0,1,.33.66.93.93,0,0,1-.33.66,1.34,1.34,0,0,1-1,.33h-.33q-5-2.64-17.56-18.21Q89.35,709.4,81.08,703.1Zm18.54-418-.33-.33v-.34a1.06,1.06,0,0,1,1-.66q7.6,1.33,26.82,22.86,3.64,3.64,16.23,18.21,9.94,11.26,16.23,17.89A267.11,267.11,0,0,0,180.77,362q16.56,13.57,21.86,18.54a479.42,479.42,0,0,1,43.72,46.37,1.4,1.4,0,0,1,.33,1c0,.23-.23.56-.67,1a1.34,1.34,0,0,1-1,.33,1,1,0,0,1-.66-.33,495.27,495.27,0,0,0-43.72-46.37q-5-4.31-21.2-17.88a269.76,269.76,0,0,1-20.86-18.22Q102.6,287.45,99.62,285.13Zm1.66,405.06v-1.33a1.34,1.34,0,0,1,1-.33h.33q4,2.33,18.55,19.21v-.33l22.19,23.85a1,1,0,0,1,.33.66,2.53,2.53,0,0,1-.33,1,1.34,1.34,0,0,1-1,.33h-.66q-6-3.65-21.2-21.86-3.31-3.63-9.61-10.6Q104.27,693.5,101.28,690.19Zm20.87-12.26v.33a1.34,1.34,0,0,1-1.33.67l1.66.33a6.82,6.82,0,0,0,1.32,1.65,3.5,3.5,0,0,0,1.33,1.66q4,5,4.63,6,0-.33,10.93,12.59a261.9,261.9,0,0,0,34.45,34.11q.66.33.66.66c0,.22-.22.56-.66,1a1.34,1.34,0,0,1-1.33.66h-.33q-9.27-4.63-26.83-24.51-10.59-12.59-15.56-18.55-10.61-11.93-11.26-14.9a6,6,0,0,1-.33-2,.88.88,0,0,1,1-1,2.53,2.53,0,0,1,1,.33A1.07,1.07,0,0,1,122.15,677.93Zm4.63-229.52a1,1,0,0,1-.33-.66c0-.22.22-.44.66-.67a1,1,0,0,1,.67-.33c.21,0,.44.23.66.67q11.25,18.87,56.3,56.63,36.1,30.48,56.64,57.63a1,1,0,0,1,.33.66c0,.45-.33.78-1,1a1.39,1.39,0,0,1-1,.33,1,1,0,0,1-.66-.33,452.73,452.73,0,0,0-59.95-60Q136.06,467.62,126.78,448.41Zm3.65,213a1,1,0,0,1,.33.66,1.16,1.16,0,0,1-1,1,1,1,0,0,1-.66-.33,5,5,0,0,0-2-1.66q-.66-.33-.66-.66a2.62,2.62,0,0,1,.33-1,1.06,1.06,0,0,1,1-.66,2.84,2.84,0,0,1,1,.33Q142,670,144.34,673l13.91,17.56q31.13,34.77,36.1,39.41a1.39,1.39,0,0,1,.33,1,1,1,0,0,1-.33.67,1.08,1.08,0,0,1-1,.66,1,1,0,0,1-.66-.33q-3.31-2.31-36.76-39.08-3-3.32-7-8.62-5.62-7.28-6.95-8.94-5.31-6.28-7.62-8.61-7.29-6-7.62-6h-.33l.33.33a2.53,2.53,0,0,1-.33-1,1.08,1.08,0,0,1,.66-1,2.69,2.69,0,0,1,1-.33c.21,0,.44.22.66.66A4.89,4.89,0,0,0,130.43,661.37Zm4-156a1.34,1.34,0,0,1,.33,1v.33a.29.29,0,0,1-.33.33,2.53,2.53,0,0,1-1-.33,25.27,25.27,0,0,1-4.64-1.32,10.19,10.19,0,0,1,.66-2.32q14.91,8.28,51.67,50,7.28,7.95,28.48,28.81,18.21,17.57,27.16,29.15a1.9,1.9,0,0,1,.66,1.32c0,.23-.22.56-.66,1a1.34,1.34,0,0,1-1,.33,2.57,2.57,0,0,1-1-.33q-8.61-9.95-27.15-27.82Q189,567.32,180.44,557.37q-34.12-38.42-52.33-52a1.88,1.88,0,0,1-.67-1.33v-.66a1.06,1.06,0,0,1,1-.66h.66A55.85,55.85,0,0,1,134.4,505.38Zm-6.29-24.84a1.31,1.31,0,0,1-.33-1v-.33c.21-.44.44-.66.66-.66a1,1,0,0,1,.66.33,542.19,542.19,0,0,1,57.63,47.69q33.12,31.47,49.35,56.31a1,1,0,0,1,.33.66q0,.66-1,1.32a1.35,1.35,0,0,1-1,.34c-.44,0-.77-.34-1-1Q203,541.48,128.11,480.54Zm5.63,76.17V557a1,1,0,0,1-.33.67h-1a9.59,9.59,0,0,0-3.31-2.65c0-.22.22-.55.66-1l1-1Q142,563,160.57,585.2q19.2,22.84,29.8,32.45,4.31,4,13.25,10.93,10.26,8.28,13.91,11.26,16.56,13.92,21.53,27.16v.33a1.06,1.06,0,0,1-.66,1h-.67a1.34,1.34,0,0,1-1-.33,121.85,121.85,0,0,0-24.51-28.16Q190,622,184.08,616q-10.94-10.61-27.82-30.47Q136.39,563,128.77,554.72a2.48,2.48,0,0,1-.33-1,1,1,0,0,1,.33-.66q.66-.66,1-.66a1.08,1.08,0,0,1,1,.66A30.43,30.43,0,0,1,133.74,556.71Zm-5-34.11v-.33a1.08,1.08,0,0,1,.66-1,1,1,0,0,1,.66-.33c.22,0,.44.23.67.66q6.62,12.27,54.65,62.27,50.34,52.33,51.66,52.33v-.33a1.34,1.34,0,0,1,.33,1c0,.45-.33.78-1,1a2.64,2.64,0,0,1-1,.33,1.06,1.06,0,0,1-1-.66q-6.63-12.59-26.49-29.15-15.9-13.25-28.16-25.5Q136.39,538.83,128.77,522.6Zm5.63-100.69a1,1,0,0,1,.33.67l-.33.33a.29.29,0,0,1-.33.33.93.93,0,0,1-.66-.33,7,7,0,0,1-1.66-1.33,10.94,10.94,0,0,1-1.66-1.32,5.73,5.73,0,0,0,1.66-1.66q16.56,28.15,60.61,67.57,46.69,42.06,62.93,65.91a1.34,1.34,0,0,1,.33,1c0,.44-.33.78-1,1a2.45,2.45,0,0,1-1,.33,1.86,1.86,0,0,1-1.32-.66q-14.91-22.51-63.26-65.25Q145,449.41,129.76,419.93a1,1,0,0,1-.33-.67,1.06,1.06,0,0,1,.66-1,1,1,0,0,1,.67-.33,1.06,1.06,0,0,1,1,.66,11.6,11.6,0,0,1,1.33,1.66A7.08,7.08,0,0,1,134.4,421.91Zm-4.64,161.63a2.53,2.53,0,0,1-.33-1,1.37,1.37,0,0,1,.33-1,2.69,2.69,0,0,1,1-.33,1.39,1.39,0,0,1,1,.33q8.28,7,21.2,20.21,14.9,14.9,20.86,20.53,6.63,5.64,21.2,17.22,13.58,11.26,20.87,17.56a323.68,323.68,0,0,1,64.58,81.47,1.35,1.35,0,0,1,.33,1q0,.66-1,1a2.62,2.62,0,0,1-1,.33,1.06,1.06,0,0,1-1-.66q-11.26-20.54-32.13-45.71-21.85-26.16-36.1-38.75-4.31-3.65-21.19-17.22-12.93-10.59-20.54-17.89-5.64-5.29-18.88-18.54Q137,589.83,129.76,583.54Zm.67,27.49a1.05,1.05,0,0,1-.67-1c.22-.67.55-1,1-1q8.61,1,26.16,17.56,12.26,11.91,33.78,35.77,14.25,15.57,33.79,34.11Q239.71,711.39,246,719q11.6,13.59,13.92,21.2v.33a1.33,1.33,0,0,1-.34,1h-.33a1.34,1.34,0,0,1-1-.33q-2.65-3.3-8.61-11.92-5.64-7.62-9.28-11.93-8.94-9.6-20.2-20.53-16.56-15.57-30.47-30.8-20.21-22.51-30.8-33.12Q140.35,614.35,130.43,611Zm4-326.23a1,1,0,0,1,.33.66v.33a.58.58,0,0,1-.66.66l-3.31-.33c.21-.44.55-1.21,1-2.32a25.17,25.17,0,0,1,7.95,8.61A139.75,139.75,0,0,0,153,311q.66,1,30.14,32.46,6.94,7.29,31.13,27.82,19.88,16.56,29.15,29.15a1.39,1.39,0,0,1,.33,1c0,.44-.33.78-1,1a1,1,0,0,1-.66.33,1,1,0,0,1-1-.66q-9.62-12.92-32.13-31.46a264.42,264.42,0,0,1-29.48-27.16Q156.6,319.9,151,313a167.62,167.62,0,0,1-11.26-14.57q-5.64-9.27-5.63-9.94c-2.43-1.54-3.64-2.43-3.64-2.65a1.31,1.31,0,0,1-.34-1v-.67c.44-.44.78-.66,1-.66h.33A24.22,24.22,0,0,1,134.4,284.8Zm-3.31,348.09v-.66a1,1,0,0,1,.33-.67h.33a1.39,1.39,0,0,1,1,.33q5.64,9.29,54,60.28,4,4,26.16,22.53,16.23,13.24,23.19,25.17a1,1,0,0,1,.33.66c0,.44-.33.78-1,1a2.62,2.62,0,0,1-1,.33,1,1,0,0,1-1-.66q-7.62-12.24-25.5-27.16-22.53-19.53-27.82-25.17Q134.06,638.52,131.09,632.89Zm2-261v-.33a.91.91,0,0,1,.33-.66.93.93,0,0,1,.66-.33,1,1,0,0,1,.66.33q4.64,4.3,12.92,12.92,8.94,8.94,13.25,12.91,1.65,1.33,28.48,25.84,20.19,17.88,30.14,27.82,17.55,17.55,21.53,24.51a1,1,0,0,1,.33.66,1.06,1.06,0,0,1-.66,1,1,1,0,0,1-.67.33,1,1,0,0,1-1-.66,173.17,173.17,0,0,1-12.59-13.58q-8.28-9.27-12.91-13.58-11.92-11.58-28.15-26.16-22.2-19.55-30.14-27.49Q137.7,378.53,133.08,371.9Zm2,23.19a1,1,0,0,1,.66.33v.33a1,1,0,0,1-.33.66q0,2,40.08,42.73,12.59,12.92,25.5,24.17,30.81,26.51,38.09,36.77a1,1,0,0,1,.33.66,1.9,1.9,0,0,1-.66,1.32,1.33,1.33,0,0,1-1,.34,2.43,2.43,0,0,1-1-.34q-11.6-12.92-35.11-34.11-25.17-23.18-35.43-33.78-31.8-32.46-31.8-37.76a1.34,1.34,0,0,1,.33-1Zm14.24-111a.93.93,0,0,1-.33-.66,1.16,1.16,0,0,1,1-1,.3.3,0,0,1,.33.33q24.16,21.53,50,42.72,32.12,26.84,45,46.37a1,1,0,0,1,.33.66,1.06,1.06,0,0,1-.66,1,2.58,2.58,0,0,1-1,.33,1.06,1.06,0,0,1-1-.66q-13.25-19.87-46.7-47.37Q155.92,292.76,149.3,284.13Zm25.51-2.31v-1a.93.93,0,0,1,.66-.33.29.29,0,0,1,.33.33c1.76,1.55,4.31,4.09,7.62,7.62s6,6.18,8,7.95q6.62,6,18.88,15.56,25.83,21.21,35.76,33.46c.44.22.67.44.67.66s-.23.55-.67,1a1.34,1.34,0,0,1-1,.33,1,1,0,0,1-.66-.33q-9.29-11.25-38.09-34.77Q179.11,290.42,174.81,281.82ZM194,280.16a.91.91,0,0,1-.33-.66v-.33c.21-.44.43-.67.66-.67h.33q12.24,5,28.48,19.88Q242.71,316.26,250,320.9q.66.33.66.66a1,1,0,0,1-.33.66c-.22.45-.44.66-.66.66a.9.9,0,0,1-.66-.33q-10.27-5-27.49-21.53Q204.94,285.14,194,280.16Zm36.76-.66a1.34,1.34,0,0,1,.33,1v.33a1,1,0,0,1-.66.33l-1.33-.66c.67-1.32.88-1.76.67-1.32,1.32.88,3.42,2.1,6.29,3.64a46.24,46.24,0,0,1,6,4q18.54,15.9,23.18,25.84v.66a.94.94,0,0,1-1.65.66q-24.18-25.83-23.85-25.5-9.6-7-10.93-7.95a1.34,1.34,0,0,1-.33-1v-.33a3,3,0,0,1,1.33-.34C230.67,279.5,231,279.72,230.78,279.5Zm9.27,270.59q0,3.31-3.31,3.31t-3.31-3.31v-1.66c0-2.2,1.1-3.31,3.31-3.31s3.31,1.11,3.31,3.31v7l-1,24.84V610.7q0,28.15.33,29.14A55.43,55.43,0,0,0,244,660.05q7.6,15.57,27.49,25.83,7.61,4,36.1,13.91c1.54.66,2.32,1.66,2.32,3v4c0,2-1.11,3-3.32,3a2.64,2.64,0,0,1-3-3v-4a14,14,0,0,0,1,1.66l1.32,1.32q-15.57-5.29-21.19-7.61-22.53-8.61-33.46-18.55a53.24,53.24,0,0,1-17.88-32.46q-.68-6-.66-26.83V589.83q0-6.95.33-20.53.33-13.92.33-20.87c0-2.2,1.1-3.31,3.31-3.31s3.31,1.11,3.31,3.31Zm-1-232.84q-3,0-3-3.31a2.63,2.63,0,0,1,3-3q8.94,0,28.15-1.32,18.54-1.32,28.15-1.33,26.5.33,39.09,8.61,13.57,8.63,20.86,24.84,9.27,20.55,9.27,47.7a176.68,176.68,0,0,1-1.32,21.19q-2.33,21.21-8.28,34.78-9.93,23.52-27.82,38.42a76.79,76.79,0,0,1-19.54,12.25q-8,3.64-21.86,6A246.84,246.84,0,0,1,243,505.71c-2,0-3-1.11-3-3.31a2.64,2.64,0,0,1,3-3q14.23-.32,27.49-1.65,30.14-3,44.72-12.59,19.53-12.92,31.13-36.1,11.92-23.85,11.92-55.64,0-7.28-.66-14.9Q354,334.81,329.15,320.9q-11.61-6-36.77-6h-5.3q-6.29,0-23.84,1.32Q248,317.25,239.06,317.25ZM244,505v.34a.58.58,0,0,1-.66.66,9.84,9.84,0,0,1-2.32.33,4.48,4.48,0,0,1-3.32-1.33,1.31,1.31,0,0,1-.33-1,2.53,2.53,0,0,1,.33-1,1.9,1.9,0,0,1,1.33-.66,1,1,0,0,1,.66.33q27.15,17.55,47.36,51.33a1.39,1.39,0,0,1,.34,1c0,.44-.34.88-1,1.32a1.34,1.34,0,0,1-1,.33c-.45,0-.89-.33-1.33-1q-20.87-32.13-46-50.34l2-2a2.89,2.89,0,0,0,2,1,2.53,2.53,0,0,0,1-.33A.88.88,0,0,1,244,505ZM241.71,309.3a2.88,2.88,0,0,1,3,2.32v1a2.87,2.87,0,0,1-2.32,3c1.1-1.54,1.77-2.32,2-2.32v4.64q0,4,.33,7.94.66,12.6.66,15.24.33,12.91,2.65,57.3,1.32,26.5,1.33,47.36,0,40.08-4.64,59.95a2.88,2.88,0,0,1-3,2.32h-.66a3.13,3.13,0,0,1-2.65-3.32v-3c0-2,1.1-3,3.31-3a2.64,2.64,0,0,1,3,3v3c-4-.44-6.08-.66-6.29-.66a22.41,22.41,0,0,0,.66-3q3.65-16.56,3.64-56.3,0-23.19-1.32-54.65l-2.32-53c-.22-1.33-.45-4.31-.66-8.95-.23-3.53-.33-6.4-.33-8.61v-3q0-6.61,2.65-7.29Zm14.9-27.15a.29.29,0,0,1-.33-.33v-.67a1,1,0,0,1,.33-.66q2.33,0,11.93,11.59,9.93,11.6,15.56,19.54a1,1,0,0,1,.33.67,1,1,0,0,1-.33.66h-1.32q-4.3-4.63-14.24-16.89-11.27-13.92-11.43-13.91Zm10.6,410.35v.34a1,1,0,0,1-.33.66h-1a31.26,31.26,0,0,0-2.65-3,33,33,0,0,1-3-3.31.91.91,0,0,1-.33-.67,1.3,1.3,0,0,1,.33-1,1,1,0,0,1,1-.66,1,1,0,0,1,.66.33q12.58,9.27,30.14,27.49,19.88,20.53,23.52,30.8v.33a1.07,1.07,0,0,1-.67,1h-.66a1.9,1.9,0,0,1-1.32-.66q-14.91-20.86-24.84-30.8-4.65-4.64-13.91-12.92-9.29-8.61-13.91-13.24l2-1.33c.67.89,1.44,2,2.32,3.31A41.17,41.17,0,0,1,267.21,692.5Zm1.33-188.45a1,1,0,0,1-.33.66,1.34,1.34,0,0,1-1,.33.91.91,0,0,1-.66-.33,5.48,5.48,0,0,1-.66-1.65v-.66a.59.59,0,0,1,.66-.67h.33q3,0,11.92,10.93,17.22,19.88,21.53,29.15a1,1,0,0,1,.33.66c0,.22-.22.45-.66.66a1.3,1.3,0,0,1-1,.33.91.91,0,0,1-.67-.33q-3-4-10.26-13.91-6.63-8.94-10.6-13.58-2.66-3-7-7.95a42.37,42.37,0,0,0-3.31-3,2.53,2.53,0,0,1-.33-1,1,1,0,0,1,.33-.66l.33-.33c.44,0,.77.33,1,1Zm21.52-218.92a1,1,0,0,1,.34.66v.33a1,1,0,0,1-.67.33h-.33l-5.63-3a15.57,15.57,0,0,0,1.33-2,98.27,98.27,0,0,1,27.82,30.14,1,1,0,0,1,.33.67q0,.33-.66.66a1,1,0,0,1-.67.33,1,1,0,0,1-.66-.33,55.44,55.44,0,0,1-6.95-7.95c-3.54-4.19-5.86-7-7-8.28q-5.3-5.62-13.58-13.25a2.53,2.53,0,0,1-.33-1,1,1,0,0,1,.33-.66c.22-.44.44-.67.66-.67a1.08,1.08,0,0,1,1,.67,12.56,12.56,0,0,0,2.32,1.65A5.5,5.5,0,0,1,290.06,285.13Zm.67,214.62c0,.66-.23,1-.67,1q.66,0,9.28,6a51.39,51.39,0,0,1,7.28,5q17.89,13.91,26.5,28.81a1,1,0,0,1,.33.67,1.06,1.06,0,0,1-.66,1,1,1,0,0,1-.66.33,1,1,0,0,1-.67-.33q-18.87-21.85-20.86-23.52-3-2.64-15.24-11.59-7.29-5-7.28-6.95c0-.67.55-1.11,1.65-1.33A.88.88,0,0,1,290.73,499.75ZM303,494.12c-.44-.22-.66-.44-.66-.67a1,1,0,0,1,.33-.66,2.53,2.53,0,0,1,1-.33,1,1,0,0,1,.67.33q10.26,7.62,23.84,19.87,28.49,24.52,28.49,24.18a1.39,1.39,0,0,1,.33,1,2.69,2.69,0,0,1-.33,1,1.08,1.08,0,0,1-1,.66,2.53,2.53,0,0,1-1-.33q-4.31-2.65-28.48-24.18Q302.32,493.79,303,494.12Zm3.64-214.95a1,1,0,0,1,.34-.67q.66-.66,1-.66a1.06,1.06,0,0,1,1,.66q28.49,30.81,85.12,84.13,60.29,57,71.87,75.18a1,1,0,0,1,.33.66c0,.45-.33.78-1,1a1,1,0,0,1-.66.33,1.06,1.06,0,0,1-1-.66q-7.29-11.59-75.18-78.5Q307.28,279.83,307,279.83v.33A2.43,2.43,0,0,1,306.62,279.17Zm1,422.28q0-3.32,3-3.31c2.2,0,3.31,1.1,3.31,3.31,0,7.28-.22,13-.66,17.22-.22,2-1.44,3-3.64,3-1.77,0-2.65-.66-2.65-2v-1C307.4,714.48,307.62,708.73,307.62,701.45Zm0,5.3v-.67c0-1.54,1-2.31,3-2.31a3,3,0,0,1,3.31,3q3.31,36.43,3.31,40.73H310.6v-4c0-2.2,1.1-3.31,3.31-3.31s3.31,1.11,3.31,3.31v4q0,3-3.31,3t-3.31-3Q310.6,745.5,307.62,706.75Zm14.9-223.23v.33a1.06,1.06,0,0,1-.66,1h-.33a1,1,0,0,1-1-.66,2.83,2.83,0,0,1-.34-1.33c0-.88.34-1.32,1-1.32a3.55,3.55,0,0,1,2,.66q3.65,1.67,13.25,10.27,33.45,30.13,40.41,40.74a1,1,0,0,1,.33.66,1,1,0,0,1-.66,1,.93.93,0,0,1-.66.33,1,1,0,0,1-1-.66q-3.32-3-9.27-9.6T356,515q-1.65-1.65-7.28-6.62a76,76,0,0,1-7.29-7q-4.63-4.63-10.6-9.93Q322.85,484.51,322.52,483.52Zm6.63-14.58a.9.9,0,0,1-.33-.66,1.3,1.3,0,0,1,.33-1,1,1,0,0,1,1-.66,1,1,0,0,1,.66.33q16.89,12.59,31.47,25.5,23.5,20.54,30.47,30.14a1,1,0,0,1,.33.66c0,.22-.22.45-.66.66a1.34,1.34,0,0,1-1,.33.91.91,0,0,1-.66-.33q-5.29-4.63-15.24-14.57-10.26-9.93-15.56-14.57Q347,483.19,329.15,468.94Zm6-188.12a1,1,0,0,1-.33-.66v-.33a.93.93,0,0,1,.66-.33.29.29,0,0,1,.33.33q1.32,1,63.59,67.23,10.93,11.26,35.77,34.45Q459,403.37,470.9,416.28a1,1,0,0,1,.33.67,1.06,1.06,0,0,1-.66,1,1,1,0,0,1-.66.33,1,1,0,0,1-.67-.33q-8.94-8.94-35.77-34.45Q410.63,362,397.71,348.72q-6-6.29-30.81-34.45Q348,293.09,335.11,280.82Zm6,171.89a.92.92,0,0,1-.33-.66,1,1,0,0,1,.33-.66.83.83,0,0,1,1.32,0q9,6.3,34.78,28.15,24.18,20.55,33.45,35.77v.33a1.35,1.35,0,0,1-.33,1,1,1,0,0,1-.66.33c-.22,0-.45-.22-.66-.66a238.53,238.53,0,0,0-34.12-34.45Q342.39,454.38,341.07,452.71Zm8.61-19.87a.93.93,0,0,1-.33-.66v-.66a1.33,1.33,0,0,1,1.32-.66q14.91,5.63,39.42,32.78,31.13,34.13,39.41,44.72a1.34,1.34,0,0,1,.33,1,2.53,2.53,0,0,1-.33,1,.93.93,0,0,1-.66.34,2.46,2.46,0,0,1-1-.34q.33.35-38.08-42.39Q369.56,445.77,349.68,432.84ZM354,358.65a1.28,1.28,0,0,1-.33-1v-.33c.21-.44.44-.66.66-.66a1,1,0,0,1,.66.33q24.84,13.9,56.64,51,9.6,10.94,27.49,27.82,16.54,15.24,22.52,25.18v.33a1.92,1.92,0,0,1-.67,1.32,1,1,0,0,1-.66.33q-.33,0-1-.66-7.95-10.94-24.18-26.83Q415.92,417,409.63,410,381.48,377.2,354,358.65ZM357.63,413a1,1,0,0,1,.33-.66,1.34,1.34,0,0,1,1-.33h.34q26.82,19.88,48.35,39.08,31.47,27.82,41.4,42.72v.67a1.17,1.17,0,0,1-1.32,1.32,2.52,2.52,0,0,1-1-.33q-40.41-41.73-43.05-44.05-.35,0-45.71-37.76A.93.93,0,0,1,357.63,413Zm7.29-27.16a1,1,0,0,1,.66.33v.33a1,1,0,0,1-.33.67l16.56,11.92q8.26,6,23.84,24.84a332,332,0,0,0,25.84,28.48q17.22,17.56,21.19,24.84a1,1,0,0,1,.34.67l-.34.33a.83.83,0,0,1-1.32,0q-4.31-4.31-14.9-15.57-9.29-9.93-14.91-15.57-5.3-5.62-14.57-16.89-9.62-11.93-14.57-17.22-9.62-9.93-15.24-13.58-7.62-5.29-9.6-6.95c-2.65-2.21-4-3.86-4-5a2,2,0,0,1,1-1.66Zm4.63-106v-.33a1.39,1.39,0,0,1,.33-1,1,1,0,0,1,.67-.33.3.3,0,0,1,.33.33q12.92,13.92,53.32,53.33Q458,365,476.2,386.47a1.39,1.39,0,0,1,.33,1,2.53,2.53,0,0,1-.33,1,1.34,1.34,0,0,1-1,.33,1,1,0,0,1-.67-.33q-15.23-16.89-52.66-54Q387.11,300.37,369.55,279.83Zm32.79,9.6v-.33a1.34,1.34,0,0,1,.33-1,1,1,0,0,1,.67-.33,1,1,0,0,1,.66.33q15.22,16.56,33.78,33.12,24.51,21.86,30.14,33.78v.66a1.35,1.35,0,0,1-.33,1,1.37,1.37,0,0,1-1,.33,1,1,0,0,1-.66-.33,272.51,272.51,0,0,0-33.78-36.44Q407.31,297.72,402.34,289.43Z" fill="#fff"/>
    <path d="M504.66,327.19a3.66,3.66,0,0,1-3-2,3.49,3.49,0,0,1-.67-2c0-.88.55-1.55,1.66-2a24,24,0,0,1,9.6-2q14.58,0,34.12,15.57,16.22,13.24,23.18,25.83,7.95,14.58,10.27,43.06.33,7.62,1,48.35,0,6.63,2.32,27.16a190.88,190.88,0,0,1,1.33,20.54,59.78,59.78,0,0,1-.33,6.29c-.23,2-1.44,3-3.65,3-1.77,0-2.65-.77-2.65-2.32v-5.63q0-9.93-1.65-25.83a218.41,218.41,0,0,1-1.66-25.84q-.33-36.76-1.32-48.68Q570.57,372.9,562,360.64a91.79,91.79,0,0,0-25.83-25.5q-13.9-9.6-23.51-9.61a16.19,16.19,0,0,0-6.63,1.33A2.93,2.93,0,0,1,504.66,327.19Zm2-27.82h-1c-1.32,0-2.21-.77-2.65-2.32a2.93,2.93,0,0,1-.33-1.32c0-1.33.77-2.1,2.32-2.32q22.51-3.65,95.38-6.3,6.3-.32,30.81-1.32,18.54-1,30.47-1,24.17-.66,62.26-1,35.1,0,59.29-.66h8.94q28.82,0,45.71,5.63c1.54.45,2.31,1.33,2.31,2.65a2.87,2.87,0,0,1-.33,1.32c-.22,1.55-1,2.32-2.32,2.32a2.93,2.93,0,0,1-1.32-.33q-13.91-4.64-85.78-4.63-80.82,0-125.2,2.31-16.23.68-59,2Q528.83,295.74,506.64,299.37Zm5.63-2a2.63,2.63,0,0,1-3,3q-3.32,0-3.31-3v-3.31a2.64,2.64,0,0,1,3-3q3.32,0,3.31,3,0,26.16-1.65,31.46a2.87,2.87,0,0,1-3,2.32h-1a2.85,2.85,0,0,1-2.31-3v-1q1.65-4.63,1.65-29.81h6.29Zm-1,.66a1,1,0,0,1,.33.67,1.17,1.17,0,0,1-1,1h-.33a23.26,23.26,0,0,0-3.31-2,14.92,14.92,0,0,0,1.32-2q10.26,8.94,46.7,44.38,26.49,26.16,44,47,1.65,2,88.43,88.1a1.9,1.9,0,0,1,.66,1.32c0,.22-.22.56-.66,1a3,3,0,0,1-1.32.33,2.52,2.52,0,0,1-1-.33q-86.45-86.12-88.43-88.44-18.56-21.86-43.72-47-46.36-45.36-46.37-45v.33a.82.82,0,0,1,0-1.32c.44-.44.78-.67,1-.67a1,1,0,0,1,.66.34C509,296.17,510,296.94,511.28,298Zm8.28,410.69a4.23,4.23,0,0,1,3.31,3.32,2.66,2.66,0,0,1-1.32,2l-1,1-.33.33V715a3.79,3.79,0,0,0,.67-1.33c0-.88.1-1.43.33-1.65-.23,0-1-.67-2.32-2h-.33q0-.33,1.65-.33l1.33-.33a23.76,23.76,0,0,0,4.3-1,58.3,58.3,0,0,0,8.95-3.64A103.13,103.13,0,0,0,550,695.82q19.2-13.92,25.5-40.41a185,185,0,0,0,3.32-27.82q1-14.24,1-30.47,0-9.95-.66-30.47-.67-20.21-.67-30.47,0-16.89-.33-25.17v-1.33q0-10.59,4.64-10.6h.33c2,.23,3,1.44,3,3.65,0,1.77-.77,2.65-2.32,2.65h-.66c.88,0,1.33-.22,1.33-.67v8.61a29.52,29.52,0,0,1,.33,3.65v22.85q0,9.93.66,30.47.66,20.21.66,30.47,0,17.57-1,30.47-1.67,18.22-3.64,26.83-7,26.51-24.51,40.41a111.49,111.49,0,0,1-19.88,12.25A66.53,66.53,0,0,1,525.85,715a54.22,54.22,0,0,1-7.61,1h-1a2.12,2.12,0,0,1-2-2.32V713a4.52,4.52,0,0,1,2-3.31A4.05,4.05,0,0,1,519.56,708.73Zm0,30.81c-1.55,0-2.32-1-2.32-3,0-2.2,1-3.31,3-3.31q22.18-1.65,60.61-1.65,19.21,0,42.4.33,32.12.66,57.29.66,35.44,0,57.3-1.32Q860,724,860,723.64c2,0,3,1.11,3,3.31a2.64,2.64,0,0,1-3,3q-9.94,0-113.28,7-28.8,2-73.19,2-19.55,0-42.39-.33-29.49-.66-52.67-.66-37.43,0-58.29,1.66Zm8.61-30.81c0,2-1.11,3-3.31,3a2.63,2.63,0,0,1-3-3v-7h6.29q0,3.32-.33,9.6-.33,6.63-.66,9.61v3.31q0,8.94,1.65,12.59a2.94,2.94,0,0,1,.34,1.32c0,1.11-.78,1.88-2.32,2.32a3,3,0,0,1-1.33.33c-1.32,0-2.32-.77-3-2.32-1.11-2.87-1.65-7.62-1.65-14.24V721l1-19.21q0-3.31,3-3.31c2.2,0,3.31,1.1,3.31,3.31Zm4,5.3c.44.22.66.45.66.67a1,1,0,0,1-.33.66,1.07,1.07,0,0,1-1,.66h-.33l-6-3.64v-.67a1.34,1.34,0,0,1,.33-1,1,1,0,0,1,.66-.33,1.92,1.92,0,0,1,1.33.66q1.65,1.34,12.25,13.25,9,9.62,10.93,13.25a1,1,0,0,1,.34.66,1,1,0,0,1-.67,1,1.31,1.31,0,0,1-1,.34,2.43,2.43,0,0,1-1-.34,80.1,80.1,0,0,1-6-7q-4.63-5.62-6.29-7.29-9.61-10.59-10.93-12.58a14.43,14.43,0,0,0,2.65-1Zm1.65.33a.6.6,0,0,1,.67.67.59.59,0,0,1-.67.66c-1.54.44-2.32,1.32-2.32,2.65q0,.66-1,.66a.58.58,0,0,1-.66-.66C529.83,715.91,531.15,714.59,533.8,714.36Zm1.33-418a1,1,0,0,1-.33-.66,1.37,1.37,0,0,1,.33-1,.93.93,0,0,1,.66-.33,1.34,1.34,0,0,1,1,.33l74.52,77.83q21.53,22.53,38.09,38.75,3.32,3.66,17.89,17.89,11.25,10.6,17.88,17.88a1.08,1.08,0,0,1,.66,1q0,.33-.66,1a1.34,1.34,0,0,1-1,.33,2.57,2.57,0,0,1-1-.33q-7.27-6-38.42-37.42-19.2-19.54-37.75-39.09Q557.32,320.9,535.13,296.39ZM548,708.4a1,1,0,0,1,.34.66l-.34.34h-.33a1.31,1.31,0,0,1-1-.34,34.64,34.64,0,0,0-2.32-2.64,1,1,0,0,1-.33-.67,1.34,1.34,0,0,1,.33-1,2.53,2.53,0,0,1,1-.33,1,1,0,0,1,.67.33q2,1.32,11.59,12.92,7.27,8.61,10.93,12.91a1.94,1.94,0,0,1,.66,1.33q0,.33-.66,1a3,3,0,0,1-1.33.33,2.53,2.53,0,0,1-1-.33q-2.65-3-12.25-14.57-8.62-10.61-9.61-12.26c.22,0,.55-.21,1-.66a2.57,2.57,0,0,1,1-.33Zm10.27-414a1,1,0,0,1-.33-.66,1.39,1.39,0,0,1,.33-1,1,1,0,0,1,.66-.33,1.41,1.41,0,0,1,1,.33q17.22,14.91,71.21,68.89,49.68,50.36,55.64,59.29a1.39,1.39,0,0,1,.33,1c0,.45-.33.89-1,1.33a2.62,2.62,0,0,1-1,.33,1.29,1.29,0,0,1-1.32-1q-3.32-5-56.64-60.28Q602.69,336.8,558.31,294.4Zm1,397.44a2.43,2.43,0,0,1-.34-1,1.31,1.31,0,0,1,.34-1c.21-.44.44-.67.66-.67a1.07,1.07,0,0,1,1,.67q40.06,40.41,40.41,40.4a1,1,0,0,1,.33.66c0,.23-.22.56-.66,1a2.62,2.62,0,0,1-1,.33,1.34,1.34,0,0,1-1-.33q-6.3-7.29-19.87-20.21T559.31,691.84Zm11.59-18.21a1,1,0,0,1-.33-.67,1,1,0,0,1,.33-.66.93.93,0,0,1,.66-.33,1,1,0,0,1,.66.33q6.63,6.63,17.22,16.89,14.25,13.92,16.9,16.56,21.85,21.21,28.48,31.8v.66a1.35,1.35,0,0,1-.33,1,1,1,0,0,1-.66.34,1.06,1.06,0,0,1-1-.67Q609,712.38,602.36,705.75,577.19,680.91,570.9,673.63Zm6.29-280.2a2.53,2.53,0,0,1-.33-1,1.39,1.39,0,0,1,.33-1q.66-.66,1-.66c.22,0,.44.22.67.66q29.48,31.47,72.86,69.22,22.86,19.88,29.48,30.14,17.22,26.18,17.22,26.5a1.33,1.33,0,0,1,.66,1.32V519a1.29,1.29,0,0,1-1.32,1h-.33q-4-1.32-15.57-21.2-7.62-13.9-30.47-33.78Q602,421.59,577.19,393.43Zm0,84.13v-.34q.33-.66.66-.66a1,1,0,0,1,.66.33q12.59,7.62,61.28,54.32a343.23,343.23,0,0,1,50.67,60.28v.33a2.93,2.93,0,0,1-.33,1.32,1,1,0,0,1-.66.34,1.06,1.06,0,0,1-1-.67q-42.39-52.65-50.67-59.61-60.62-54.66-60.61-55h.33A1,1,0,0,1,577.19,477.56Zm1,28.15a2.52,2.52,0,0,1-.33-1,1,1,0,0,1,.33-.66,2.57,2.57,0,0,1,1-.33,1,1,0,0,1,.66.33q18.54,16.23,56,55.31,36.77,37.75,53.33,57a1.39,1.39,0,0,1,.33,1,1,1,0,0,1-.33.66,1.35,1.35,0,0,1-1,.34.93.93,0,0,1-.66-.34q-9.62-9.6-26.83-28.15Q642.1,570,633.83,561.35q-9.62-9.95-27.83-27.82Zm3,151.69a1.07,1.07,0,0,1,1,.66q0,1-.66,1,2.64,0,15.23,12.92l9.94,9.94q8,7.62,10.26,9.93,9.95,9.95,41.07,46.37a1,1,0,0,1,.33.66,1.9,1.9,0,0,1-.66,1.33,1.06,1.06,0,0,1-1,.66c-.22,0-.56-.22-1-.66q-35.1-40.41-43-48-5-4.63-22.19-22.19-7-7.28-9.61-8.61a6.76,6.76,0,0,1-2.65-2,2.53,2.53,0,0,1-.33-1c0-.44.33-.77,1-1Zm-3-206.67v-.33a1.39,1.39,0,0,1,.33-1h.34a1,1,0,0,1,.66.33q14.24,16.57,57.63,54,37.75,32.79,54.65,57.3a1,1,0,0,1,.33.66c0,.45-.33.78-1,1a.91.91,0,0,1-.66.33,1.86,1.86,0,0,1-1.32-.66q-15.9-23.18-54.65-56.63Q593.42,469.94,578.18,450.73Zm.67-28.15a.93.93,0,0,1-.34-.67,1.05,1.05,0,0,1,.67-1q.66-.66,1-.66t.66.66q17.89,22.84,52.33,56.3,41.4,40.74,54,55a1.08,1.08,0,0,1,.66,1q0,.33-.66,1a1,1,0,0,1-1,.66c-.23,0-.56-.21-1-.66q-11.6-12.91-54.32-54.65Q596.73,445.76,578.85,422.58Zm2.65,109.29a.81.81,0,0,1,0-1.32c.21-.44.44-.67.66-.67s.44.23.66.67q12.58,13.58,54.32,52.33,34.77,32.13,52.33,54.31a2.81,2.81,0,0,1,.33,1,1.9,1.9,0,0,1-.66,1.32,1.34,1.34,0,0,1-1,.33c-.22,0-.55-.21-1-.66q-15.9-19.87-52.66-53.65Q597.05,551.09,581.5,531.87Zm.33,78.83a1.31,1.31,0,0,1-.33-1v-.33l.33-.33a1,1,0,0,1,.66.33q12.91,5.64,32.13,23.19A392.43,392.43,0,0,1,647.4,666a761.66,761.66,0,0,1,53,69.22,1.39,1.39,0,0,1,.33,1c0,.45-.33.78-1,1a2.53,2.53,0,0,1-1,.33,1.9,1.9,0,0,1-1.32-.66q-28.15-41.74-53.66-70.55a360.24,360.24,0,0,0-31.13-31.8Q606.66,628.92,581.83,610.7Zm4-316.63a1,1,0,0,1,.33.66l-.33.33a.29.29,0,0,1-.33.33.9.9,0,0,1-.66-.33,11.69,11.69,0,0,1-2.65-4.3v-.33a1.08,1.08,0,0,1,.66-1h.66a1,1,0,0,1,.67.33q8.6,11.61,25.5,25.84,22.85,19.54,27.16,24.18,38.07,37.43,51,55a1.39,1.39,0,0,1,.33,1q0,.66-1,1a2.64,2.64,0,0,1-1,.33,1.86,1.86,0,0,1-1.33-.66Q663,367.27,629.52,337.13q-43.39-39.09-47.36-46c.66-.22,1.43-.44,2.32-.66A25.94,25.94,0,0,1,585.8,294.07Zm-3.31,341.8a1,1,0,0,1-.33-.66,1,1,0,0,1,.33-.67,1.06,1.06,0,0,1,1-.66,1,1,0,0,1,.67.33q5,5,26.16,22.52,16.23,13.92,25.5,23.52,9.6,10.61,23.52,28.15,19.53,24.84,22.85,28.49a2.53,2.53,0,0,1,.33,1,1.9,1.9,0,0,1-.66,1.32,1.05,1.05,0,0,1-1,.67c-.23,0-.56-.22-1-.67q-46.36-56.62-46.37-57.29a.3.3,0,0,1,.34.33Q625.53,674,608,659.05,590.44,644.49,582.49,635.87Zm2-80.48v-.33a1,1,0,0,1,.33-.67h.33a1.39,1.39,0,0,1,1,.33,26.66,26.66,0,0,1,4,4.31c1.76,2.43,3,4.09,3.64,5q6,6,11.92,11.59,4.64,4,13.25,11.59,8.94,8,13.25,11.93,35.77,32.79,57.3,62.59a2.81,2.81,0,0,1,.33,1,1.06,1.06,0,0,1-.66,1,2.62,2.62,0,0,1-1,.33,1.06,1.06,0,0,1-1-.66q-23.52-32.13-60.28-64.92-24.51-22.19-26.5-23.84Q585.48,560,584.48,555.39Zm0,31.79v-.33a1,1,0,0,1,.33-.66.93.93,0,0,1,.66-.33,1,1,0,0,1,.66.33q10.26,14.25,35.77,34.11,26.83,21.21,36.77,33.12,4.64,5.64,17.22,22.52a267.77,267.77,0,0,0,17.55,22.2q3.64,4,16.89,16.22a158.35,158.35,0,0,1,16.23,16.56,1.39,1.39,0,0,1,.33,1q0,.66-1,1a2.64,2.64,0,0,1-1,.33,1,1,0,0,1-1-.66Q718.27,725.31,705,713t-18.87-19.21q-34.78-44.39-34.45-44.38-7-7.29-35.11-29.81Q594.07,601.76,584.48,587.18ZM608,293.08a1,1,0,0,1-.33-.67.3.3,0,0,1,.33-.33,1,1,0,0,1,.66-.33H609q15.88,15.57,40.4,36.43,29.48,25.19,34.45,34.12a1,1,0,0,1-.67,1.65,1,1,0,0,1-.66-.33,84.6,84.6,0,0,1-9.93-9.27q-6.63-7.29-9.28-9.94-6-5.62-18.21-16.23Q617.26,304.35,608,293.08Zm23.85-1a.93.93,0,0,1-.33-.66,1,1,0,0,1,.33-.66,1.34,1.34,0,0,1,1-.33h.33q41.73,27.81,54.32,45.37a2.64,2.64,0,0,1,.33,1,1.06,1.06,0,0,1-.66,1,2.64,2.64,0,0,1-1,.33,1.9,1.9,0,0,1-1.33-.66Q680.2,330.83,631.84,292.08Zm27.82-1c-.45-.22-.66-.44-.66-.66v-.33a1.33,1.33,0,0,1,1.32-.67q6,2,17.22,12.26a179.39,179.39,0,0,1,17.23,18.21,1,1,0,0,1,.33.67,1.9,1.9,0,0,1-.66,1.32,1.39,1.39,0,0,1-1,.33,2.53,2.53,0,0,1-1-.33Q674.89,299.71,659.66,291.09Zm25.17,36.1a3,3,0,0,1-2.65-2,3.55,3.55,0,0,1-.66-2c0-.88.55-1.55,1.65-2q5.3-2.31,14.91-2.32a136.16,136.16,0,0,1,19.54,1.66q39.4,6,52.33,13.57,17.55,10.28,28.15,31.14,11.6,22.53,11.59,44.71a91,91,0,0,1-8.61,38.09q-10.92,23.85-29.47,36.43-13.26,9.27-31.8,11.26A199,199,0,0,1,716,497.43q-4.31,0-8.28-.33-17.88-1.32-17.88-9.61v-.33a3.18,3.18,0,0,1,2-3,2.93,2.93,0,0,1,1.32-.33,2.87,2.87,0,0,1,2,1l2.32,2.65a3,3,0,0,1,1.65,2.65,3.58,3.58,0,0,1-.66,2c-.45,1.11-1.11,1.65-2,1.65a3.47,3.47,0,0,1-2-.66,16.77,16.77,0,0,1-4-3.64,60.21,60.21,0,0,0,5.63-2.32v.66l.66.66a32.89,32.89,0,0,0,4.31,1.33,57.65,57.65,0,0,0,13.58,1.32,204.88,204.88,0,0,0,29.48-2q20.19-3.31,36.1-20.54a81.53,81.53,0,0,0,19.54-36.76,110.82,110.82,0,0,0,3-24.84q0-31.47-21.53-55.31-8.61-9.27-17.55-13.58-10.6-5.62-26.5-8.28.33,0-26.16-4a97.3,97.3,0,0,0-12.92-1q-7.29,0-11.59,2A3.75,3.75,0,0,1,684.83,327.19Zm4-1.66a2.63,2.63,0,0,1-3,3q-3.32,0-3.31-3v-3c0-1.76,1-2.76,3-3h1c1.1,0,1.87.66,2.31,2q3,17.56,3,48,0,15.57-.67,34.12-.33,13.57-.33,25.5,0,35.44,4.31,56.3v1a2.87,2.87,0,0,1-2.32,3h-1a2.87,2.87,0,0,1-3-2.32q-4.31-20.54-4.3-55.31,0-12.25.66-26.5.66-16.89.66-30.8,0-33.1-3.31-51.33,4-.33,6.29-.67Zm5.64,198.72q0,3-3.32,3a2.64,2.64,0,0,1-3-3v-4a2.64,2.64,0,0,1,3-3q3.32,0,3.32,3,0,17.57,1.32,55,1,35.78,1,54.65v22.52q0,18.23.33,20.53,3.64,17.24,24.18,23.19a52.09,52.09,0,0,0,15.9,2.32,99.81,99.81,0,0,0,25.17-3.65q21.2-5.62,35.44-15.89,36.43-27.16,38.09-77.17v-3.65q0-23.18-11.26-40.4-5-8-15.9-17.89a71.78,71.78,0,0,0-16.23-12.58q-19.22-11.26-49.35-11.6-9.93,0-26.16,1.33-19.87,1.66-25.84,1.65c2.21-1.32,3.32-2.09,3.32-2.31V517a17.53,17.53,0,0,0,.66,4,3.14,3.14,0,0,1,.33,1.33c0,1.32-.78,2.21-2.32,2.65h-1a3.41,3.41,0,0,1-3.32-2.32,17.88,17.88,0,0,1-1-5.63,7.38,7.38,0,0,1,.33-2.32,3.35,3.35,0,0,1,3-2.32c3.76,0,9-.33,15.9-1Q728.88,510,742.79,510c5.3,0,9.71.12,13.25.33q27.83,2,45.7,15.24,21.19,15.57,30.81,33.12a80.65,80.65,0,0,1,9.6,38.75v5.3q-2.65,50-37.09,78.16a95.34,95.34,0,0,1-33.79,17.89q-20.21,6-34.44,6-3.65,0-7-.33-24.18-3-34.11-18.55-5-7.27-5.63-20.53-.33-4-.33-10.27t.33-15.24q.33-5,.33-13.24,0-16.23-1-44.39-1.34-43.38-1.33-61.93h6.3Zm-1.66-231.17v-.34a1.36,1.36,0,0,1,.33-1l.33-.33a1,1,0,0,1,.66.33q4,3.64,12.92,15.24,12.91,16.23,12.92,16.56a1,1,0,0,1,.33.66,1,1,0,0,1-.66,1,1,1,0,0,1-.67.33,1,1,0,0,1-1-.66q-1.66-1.32-13.25-15.9-1-1.65-5.63-8Q695.43,296.05,692.78,293.08ZM708,497.1a1,1,0,0,1-.33-.67v-.33c0-.44.33-.66,1-.66,2.42,1.11,5.74,3.53,9.93,7.29q11.6,10.26,11.93,10.93a1,1,0,0,1,.33.66,2.72,2.72,0,0,1-.33,1,3,3,0,0,1-1.33.33h-.66q-1.66-1-11.26-9.93Q708.35,497.43,708,497.1Zm8.28-207.67a1,1,0,0,1-.66-1v-.33c.22-.66.55-1,1-1H717q2,.67,13.24,14.58,1.66,2,9.28,10.6a94,94,0,0,1,8.94,11.26v.33a1.17,1.17,0,0,1-1.32,1.32h-.67q-3-1.65-16.56-18.54c-.88-1.33-2.31-3.2-4.3-5.64-1.77-2.42-3.1-4.19-4-5.29Q716.63,289.43,716.29,289.43Zm11.93,417a.91.91,0,0,1-.66-.34v-1h.33a.93.93,0,0,1,.66-.33q2,.66,12.58,11.26,12.25,11.93,17.56,16.89a1.06,1.06,0,0,1,.66,1c0,.23-.22.56-.66,1a1.37,1.37,0,0,1-1,.33,2.53,2.53,0,0,1-1-.33q-3.32-2.65-16.56-16.23l-8.28-8.28-1.32-1.33-1.33-1.32q-.66-.66-.66-1a1,1,0,0,1,.33-.67A1,1,0,0,1,728.22,706.42Zm5.3-208.33a.91.91,0,0,1-.33-.66,1.06,1.06,0,0,1,.66-1,1,1,0,0,1,.66-.33,1.94,1.94,0,0,1,1.33.66,64.79,64.79,0,0,0,8.61,9.94c4,4,6.29,6.62,6.95,7.95v.66a1.35,1.35,0,0,1-.33,1,1,1,0,0,1-.66.33.93.93,0,0,1-.66-.33q-1.66-1.32-9.28-9.28A76.89,76.89,0,0,1,733.52,498.09Zm5.63-209a.82.82,0,0,1,0-1.32.93.93,0,0,1,.66-.33,1,1,0,0,1,.66.33q16.89,13.25,42.4,43.72,26.82,32.12,41.4,44.71,24.16,20.21,47.69,41.73,16.21,14.58,24.51,22.85,8.61,9.61,11.26,12.59a3.84,3.84,0,0,1,.66,1l1,1c.45.23.67.45.67.67,0,.44-.67.77-2,1a1,1,0,0,1-.33-.66,1.08,1.08,0,0,1,.66-1h.33a1.35,1.35,0,0,1,1.33.67,3.21,3.21,0,0,1,.66,1.65V458a1.05,1.05,0,0,1-1,.67,2.52,2.52,0,0,1-1-.33q-38.09-38.43-38.09-39.09-19.54-15.88-47.69-41.73-14.9-13.25-41.73-44.38Q754.71,302.68,739.15,289.1Zm14.57,204a1,1,0,0,1-.33-.66,1.34,1.34,0,0,1,.33-1c.22-.44.44-.67.66-.67a1,1,0,0,1,.66.33q4,2.33,12.26,10.93,9.6,9.94,11.26,12.59a1,1,0,0,1,.33.66.93.93,0,0,1-.33.66,1.31,1.31,0,0,1-1,.34h-.33q-3-2-12.26-12.26A97.05,97.05,0,0,0,753.72,493.12Zm3.64,213a1,1,0,0,1,.33.67l-.33.33a1.34,1.34,0,0,1-1,.33H756v-.33a1,1,0,0,1,.33-.66v-1.66q1.65,1.32,11.92,11.59,4,4,8.28,8.61,3.31,4,3.32,4.64c0,.88-.34,1.32-1,1.32h-.66q-.33,0-4.64-4.63-5-5.29-8-8.61-9.6-9.61-10.93-11.6a.93.93,0,0,1-.33-.66c0-.22.33-.44,1-.66h.33a1.34,1.34,0,0,1,1,.33Q756.7,705.42,757.36,706.08Zm10.6-417a1.34,1.34,0,0,1-.33-1c0-.44.33-.77,1-1a1,1,0,0,1,.67-.33c.44,0,.88.33,1.32,1q3.32,5,35.44,33.12A469.8,469.8,0,0,1,849.44,364q62.92,72.54,69.88,77.5c.66.45,1,.89,1,1.33a1.33,1.33,0,0,1-.33,1c-.44.66-.88,1-1.32,1a2.51,2.51,0,0,1-1-.34H918q0-1.31-73.2-80.15-21.85-23.83-44-44.38Q768.95,290.43,768,289.1Zm1.33,192.1v-.33a1.39,1.39,0,0,1,.33-1,2.72,2.72,0,0,1,1-.33.3.3,0,0,1,.33.33,646.86,646.86,0,0,0,44.71,48.36q9,8.94,22.86,23.51,19.2,19.88,22.85,23.52,25.83,26.16,46.37,39.41,18.54,11.93,37.42,39.75a1.35,1.35,0,0,1,.34,1c0,.45-.34.78-1,1a1.3,1.3,0,0,1-1,.33c-.45,0-.89-.33-1.33-1q-11.92-16.22-21.19-25.5-.35-.33-23.85-18.88-24.51-19.54-41.07-38.42-8.94-9.6-44.71-44.71Q783.52,501.08,769.29,481.2Zm8.61,217.93a2.53,2.53,0,0,1-.33-1,1.16,1.16,0,0,1,1-1,1.39,1.39,0,0,1,1,.33q19.55,16.23,22.19,30.8a1.34,1.34,0,0,1-.66,1.33h-.33a1.33,1.33,0,0,1-1-.33q-1-2-4.31-7.95-2.66-5-4.64-8A128.93,128.93,0,0,0,777.9,699.13Zm14.24-225.55-.33.33h-.33a1.35,1.35,0,0,1-1-.33q-4-5.29-4.3-5.3V468a1.34,1.34,0,0,1,.33-1h.33a1.34,1.34,0,0,1,1,.33q2.32,2.32,6.63,7.28c2.86,3.32,5,5.75,6.29,7.29l6.29,6.29a86.12,86.12,0,0,1,6.3,6.3,1,1,0,0,1,.33.66,2.72,2.72,0,0,1-.33,1,1.06,1.06,0,0,1-1,.66.91.91,0,0,1-.66-.33q-5-3.3-14.57-13.91a143.89,143.89,0,0,1-10.93-13.91,2.53,2.53,0,0,0,1-.33,2.52,2.52,0,0,1,1-.33q.66,0,3.64,5A1,1,0,0,1,792.14,473.58Zm1.32-185.47a1,1,0,0,1-.33-.66,1.37,1.37,0,0,1,.33-1c.44-.44.78-.66,1-.66a1.06,1.06,0,0,1,1,.66q10.93,10.28,40.74,39.75Q871,361,872.62,363q42.72,48.69,58.62,60.94c.44.22.67.45.67.66a2.35,2.35,0,0,1-2,2,.93.93,0,0,1-.66-.33q-10.28-6-28.82-26.17-5.62-6.29-14.9-17.22-10.93-12.91-15.24-17.55-2-2.31-36.43-37.1Zm.34,400.42a.81.81,0,0,1,0-1.32,1,1,0,0,1,.66-.34h.66q4.3,2.65,14.24,14.91,12.92,16.23,13.25,16.89a1,1,0,0,1,.33.66.93.93,0,0,1-.33.66,1.31,1.31,0,0,1-1,.34A.93.93,0,0,1,821,720q-.66-.66-14.9-17.88A132.78,132.78,0,0,0,793.8,688.53Zm3.31-235.15a1,1,0,0,1-.66-1,.93.93,0,0,1,.33-.66c.21-.44.44-.66.66-.66a1,1,0,0,1,.66.33q7.62,4.31,18.55,18.55a111.81,111.81,0,0,0,18.55,18.21,1.43,1.43,0,0,1,.33,1v.33a1.08,1.08,0,0,1-1,.66h-.33q-9.27-3.64-19.54-16.89Q802.08,457,797.11,453.38Zm5-71.87a.93.93,0,0,1-.34-.67,1,1,0,0,1,.34-.66,1.31,1.31,0,0,1,1-.33h.33q14.57,9.93,45,43.06,31.47,34.44,39.42,44a1.06,1.06,0,0,1,.66,1q0,.33-.66,1a1.35,1.35,0,0,1-1,.34,2.43,2.43,0,0,1-1-.34q-.68-.66-39.74-43.71Q829.56,406.68,802.08,381.51Zm6.62,51a1,1,0,0,1,.33.66v.67q-.33.66-.66.66a.93.93,0,0,1-.66-.33l-3.65-2a2.53,2.53,0,0,1-.33-1,1,1,0,0,1,.33-.67c.44-.44.77-.66,1-.66s.44.22.66.66q8.94,7,27.16,25.84,1.65,1.67,12.58,11.92a145.45,145.45,0,0,1,11.93,12.59,1,1,0,0,1,.33.66,2.72,2.72,0,0,1-.33,1,1.07,1.07,0,0,1-1,.67.93.93,0,0,1-.66-.34q-5-3.63-25.17-24.17-12.6-12.92-26.5-26.5a9.2,9.2,0,0,0,2-1.66Zm-3,65.25q0-3.31,3-3.31,3.3-.33,6.95-.33a137.73,137.73,0,0,1,29.15,3.64,210.43,210.43,0,0,1,44.05,14.57q14.24,6.63,35.77,22.19Q945.16,549.1,955.09,563a75.15,75.15,0,0,1,14.24,40.41q.33,3.65.33,7.29a92.74,92.74,0,0,1-7.95,38.09,95.3,95.3,0,0,1-26.49,35.43Q899.78,714,899.78,714.36A106.26,106.26,0,0,1,879.91,726a57.27,57.27,0,0,1-11.59,3.64c-2.21.44-4,.78-5.3,1h-4a21,21,0,0,0,.66-3.31v.33a20.34,20.34,0,0,0-3-2.32h1.66a7.68,7.68,0,0,1,2.32.33,2.81,2.81,0,0,1,1.65,2.32,3.55,3.55,0,0,1-.66,2,3,3,0,0,1-2.65,1.66,5.43,5.43,0,0,1-1.65-.33.3.3,0,0,1,.33.33h-1a2.87,2.87,0,0,1-3-2.32,2.94,2.94,0,0,1-.33-1.33,2.83,2.83,0,0,1,1-2c.44-.44,3.64-1.11,9.6-2a41.6,41.6,0,0,0,10.6-2.65q15.9-5.62,39.08-26.5,27.82-25.16,32.79-31.79a84.75,84.75,0,0,0,15.9-41.4,117.44,117.44,0,0,0,.66-12.26q0-18.54-7-32.79-8.28-16.22-26.82-31.13-7-5.3-17.89-12.58-14.24-9.27-17.88-11.27-17.9-9.6-41.73-15.89-20.55-5.29-35.77-5.3c-2.65,0-5.09.11-7.29.33A2.63,2.63,0,0,1,805.72,497.76ZM812,678.59a1,1,0,0,1,.33.67,1,1,0,0,1-.33.66h-1.32c-1.77-1.33-2.87-2.21-3.32-2.65l1-1a3.92,3.92,0,0,1,.66-1,289.65,289.65,0,0,0,25.5,28.15Q852.74,722,856.39,727a1,1,0,0,1,.33.66,1.06,1.06,0,0,1-.66,1h-.33a1.28,1.28,0,0,1-1-.34q-4.32-3.63-26.5-26.49Q814,686.87,807,676.94a2.52,2.52,0,0,1-.33-1,1.06,1.06,0,0,1,.66-1H808a1.9,1.9,0,0,1,1.32.66l1.33,1.33A3.52,3.52,0,0,0,812,678.59Zm-4.64-268.93A1,1,0,0,1,807,409c0-.22.22-.44.67-.67H808a1.35,1.35,0,0,1,1,.34q26.49,39.4,66.57,70.87a1.07,1.07,0,0,1,.66,1q0,.33-.66,1a1.9,1.9,0,0,1-1.32.66,1.35,1.35,0,0,1-1-.33Q828.24,447.09,807.37,409.66Zm24.18-114.93c-1.54,0-2.32-.88-2.32-2.65,0-2.2,1-3.42,3-3.64a40.47,40.47,0,0,1,5-.33,71.82,71.82,0,0,1,15.24,1.65q41.05,7.29,69.22,42.73,22.85,28.81,22.85,57.3a76.06,76.06,0,0,1-2,17.22q-10.26,42.4-49.34,64.91Q865,488.17,812.67,497.43a26.73,26.73,0,0,0-.33-3.31,21.45,21.45,0,0,0-.66-3h4q3.32,0,3.32,3.32c0,2-1.11,3-3.32,3h-4c-1.55,0-2.54-1-3-3v-.67c0-1.32.77-2.2,2.32-2.65h1.65a11.22,11.22,0,0,1,1.66-.33q53.32-9.6,79.82-26.82,18.54-11.93,29.15-28.16,13.23-20.86,14.57-39.74a42.85,42.85,0,0,0,.33-5.3q0-35.77-32.46-66.24-32.13-30.14-67.56-30.14a54.29,54.29,0,0,0-6,.33Zm-14.9,204.35v-.33a1.34,1.34,0,0,1,.33-1,.82.82,0,0,1,1.32,0q12.93,16.56,66.24,64.91,48.36,44.05,74.86,76.84a1.08,1.08,0,0,1,.66,1q0,.33-.66,1a1.39,1.39,0,0,1-1,.33,2.53,2.53,0,0,1-1-.33q-31.14-38.09-76.18-78.5Q825.93,513.32,816.65,499.08Zm2,216.61v-.33a1.33,1.33,0,0,1,.66-1.33,1,1,0,0,1,.66-.33q.33,0,.66.66c1.11,1.77,2.54,3.87,4.31,6.3V721a1.39,1.39,0,0,1-.33,1,1.37,1.37,0,0,1-1,.33h-.33A21.25,21.25,0,0,1,818.64,715.69Zm3-.33a1,1,0,0,1,.33.66,2.72,2.72,0,0,1-.33,1,1.34,1.34,0,0,1-1,.33A.91.91,0,0,1,820,717l-.66-.66A3.67,3.67,0,0,0,821,716v-1.66l1.33,1.66,1.32,1.32,1,1c1.76,2,2.65,3.31,2.65,4v.33a.88.88,0,0,1-1,1h-.66c-.66,0-2-1.21-4-3.65a10.42,10.42,0,0,1-2.65-4.3v-.33a1.39,1.39,0,0,1,.33-1A1,1,0,0,1,820,714a1.39,1.39,0,0,1,1,.33.93.93,0,0,0,.34.67A.3.3,0,0,1,821.62,715.36ZM820,664a1,1,0,0,1-.33-.66q0-.33.66-.66a1,1,0,0,1,.66-.33,1,1,0,0,1,.67.33q9.93,12.91,29.47,31.46Q874,716,881.56,724.63a1.07,1.07,0,0,1,.67,1c0,.23-.23.56-.67,1a1.34,1.34,0,0,1-1,.33,2.53,2.53,0,0,1-1-.33q-3.32-3.64-31.47-30.14Q828.9,678.6,820,664Zm8.61-369.95a.29.29,0,0,1,.33.33.93.93,0,0,1-.33.66.29.29,0,0,1-.33.33h-.66q.33.35.33,0c.22,0-.55-.54-2.32-1.65a7.55,7.55,0,0,0,1.66-1l7.61,6.63,7.95,6.95,13.25,13.25q11.25,11.6,28.15,30.14,2.32,2.66,13.25,14.57,8.28,9.29,13.58,14.91,2.31,2.32,12.26,12.25A145.11,145.11,0,0,1,935.22,404a1,1,0,0,1,.33.66,2.94,2.94,0,0,1-.33,1.33,1.06,1.06,0,0,1-1,.66,1,1,0,0,1-.66-.33q-6.28-4.64-24.84-24.84-.33-.33-26.82-29.81-31.47-34.44-57-57.3a.83.83,0,0,1,0-1.32,1.39,1.39,0,0,1,.33-1q.33-1,1-1c.22,0,.55.33,1,1A7.58,7.58,0,0,0,828.57,294.07Zm1,354.38v-1a.93.93,0,0,1,.66-.33h.33q5.3,1.33,15.9,9.94a251,251,0,0,1,19.87,18.54q15.23,15.9,33.12,38.42a1.07,1.07,0,0,1,.66,1q0,.33-.66,1a1.34,1.34,0,0,1-1,.33,2.52,2.52,0,0,1-1-.33Q878.91,693.16,864,677.6a235.84,235.84,0,0,0-18.22-17.22q-2.31-2-7.94-6T829.57,648.45Zm5.29-20.86q-.66-.66-.66-1a1,1,0,0,1,.33-.67,2.69,2.69,0,0,1,1-.33,1,1,0,0,1,.66.33q15.57,12.6,42.39,38.09,27.82,26.84,34.78,38.75v.66a1.35,1.35,0,0,1-.33,1,1.37,1.37,0,0,1-1,.33,1,1,0,0,1-.66-.33q-23.85-27.82-36.76-40.08-3.65-3.3-20.2-18.21Q842.14,635.21,834.86,627.59Zm3.65-53.32c-.22.66-.56,1-1,1q-1-.33-1-1c0-1.77.44-2.65,1.33-2.65q2,0,6.29,5.3,8.61,10.92,26.49,29.47,4,4.3,34.78,33.12,21.2,20.21,32.13,36.1a1,1,0,0,1,.33.67q0,.33-.66,1a1,1,0,0,1-.67.33,1.06,1.06,0,0,1-1-.66q-4-4.31-13.91-15.57-8.62-9.93-13.91-15.56-5.64-5.64-14.57-13.58Q880.89,621.3,878.25,619q-5.29-5.29-13.58-14.57-10.26-11.26-13.58-14.58a74.05,74.05,0,0,1-6.29-7.28Q838.5,574.6,838.51,574.27Zm1.32,30.8v-.66a1,1,0,0,1,.33-.67h.67a1,1,0,0,1,.66.33q12.91,17.56,19.21,23.52,6.94,6.3,22.19,18.88Q913,671,923,687.87a1.35,1.35,0,0,1,.34,1c0,.45-.34.78-1,1a2.53,2.53,0,0,1-1,.33,1.06,1.06,0,0,1-1-.67q-9.27-15.56-45-45Q844.48,619,839.83,605.07Zm8.61-97.71a.93.93,0,0,1-.33-.66.29.29,0,0,1,.33-.33,2.57,2.57,0,0,1,1-.33.3.3,0,0,1,.33.33q9.6,10.61,28.15,26.5,20.87,18.21,28.48,25.83,31.47,32.13,52,60.94a1.34,1.34,0,0,1,.33,1c0,.23-.22.56-.66,1a1,1,0,0,1-.66.33,1,1,0,0,1-1-.66q-48.69-57.3-56-63.93Q850.76,510.35,848.44,507.36ZM858.38,298h.33a1,1,0,0,1,.66.34,69.28,69.28,0,0,0,14.25,16.89q1.65,1.32,9.6,7.61a80.14,80.14,0,0,1,9.27,7.62q5,4.65,49.35,49a1.9,1.9,0,0,1,.66,1.32c0,.23-.22.56-.66,1a1.9,1.9,0,0,1-1.32.66,1.35,1.35,0,0,1-1-.33q-47.68-48-53-52.33Q868,314.62,865.67,312.29q-7.95-8.28-7.95-12.59v-1A.59.59,0,0,1,858.38,298ZM891.5,522.27a1,1,0,0,1-.33-.67.3.3,0,0,1,.33-.33,1.39,1.39,0,0,1,1-.33h.33q6.63,4.3,14.91,15.57,8.94,12.59,13.91,16.89,39.75,32.79,42.06,35.44a1.06,1.06,0,0,1,.66,1,1.9,1.9,0,0,1-.66,1.33,1.34,1.34,0,0,1-1,.33,2.57,2.57,0,0,1-1-.33,197.67,197.67,0,0,0-20.53-18.88q-20.53-16.23-21.53-17.22-4-4-13.58-16.56Q897.79,527.57,891.5,522.27Zm49,130.82a.88.88,0,0,1,1-1h.33a.58.58,0,0,1,.66.66,24.44,24.44,0,0,0,2.65,4,46,46,0,0,1,3.65,5.3,1,1,0,0,1,.33.67,1,1,0,0,1-.33.66h-1.33Q941.52,660.38,940.52,653.09Z" fill="#fff"/>
  </g>
</svg>
