<svg id="Layer_1" data-name="Layer 1" xmlns="http://www.w3.org/2000/svg" xmlns:xlink="http://www.w3.org/1999/xlink" viewBox="0 0 48 48">
  <defs>
    <linearGradient id="linear-gradient" x1="10.47" y1="43.33" x2="59.25" y2="-16.32" gradientTransform="matrix(1, 0, 0, -1, 0, 50)" gradientUnits="userSpaceOnUse">
      <stop offset="0" stop-opacity="0.2"/>
      <stop offset="1" stop-opacity="0"/>
    </linearGradient>
  </defs>
  <title>icon-svg</title>
  <g>
    <path id="base_1_21" data-name="base 1 21" d="M1.29,49.32a2.67,2.67,0,0,1-2.66-2.67V1.32A2.66,2.66,0,0,1,1.29-1.35H46.63a2.66,2.66,0,0,1,2.66,2.67V46.65a2.67,2.67,0,0,1-2.66,2.67Z" fill="#689f38"/>
    <path d="M11.37,11.33,24,5.94l12.6,5.39L49.29,24.06V46.65a2.67,2.67,0,0,1-2.66,2.67H22.08L14.79,42,11.36,14,15.2,17.8a1.79,1.79,0,0,1,.46-.36l-4.3-4.3V11.33Z" fill="url(#linear-gradient)"/>
    <path d="M11.36,13.14V11.33h0L24,5.94l12.6,5.39h0v1.81Zm25.2.82L33.14,42H14.79L11.36,14ZM20.49,36.23l-2-17.1a2,2,0,0,0-2.2-1.89,2.16,2.16,0,0,0-1.68,2.47l2,17.11a2,2,0,0,0,2.2,1.89A2.17,2.17,0,0,0,20.49,36.23Zm5.43-17.18a2.1,2.1,0,0,0-2-2.2,2.1,2.1,0,0,0-2,2.2V36.31a2.1,2.1,0,0,0,2,2.2,2.1,2.1,0,0,0,2-2.2Zm7.43.66a2.17,2.17,0,0,0-1.68-2.47,2,2,0,0,0-2.21,1.89l-2,17.1a2.17,2.17,0,0,0,1.68,2.48,2,2,0,0,0,2.2-1.89Z" fill="none"/>
    <g id="Layer_2_3" data-name="Layer_2 3">
      <g>
        <path d="M11.34,13.14V11.33h25.2v1.81Z" fill="#283593"/>
        <path d="M11.34,14,14.76,42H33.12L36.54,14Zm7.45,24.75h0a2,2,0,0,1-2.21-1.89l-2-17.11a2.18,2.18,0,0,1,1.69-2.47h0a2,2,0,0,1,2.2,1.89l2,17.1A2.18,2.18,0,0,1,18.79,38.71Zm7.11-2.4a2.1,2.1,0,0,1-2,2.2h0a2.1,2.1,0,0,1-2-2.2V19.05a2.1,2.1,0,0,1,2-2.2h0a2.1,2.1,0,0,1,2,2.2Zm5.4.51a2,2,0,0,1-2.2,1.89h0a2.18,2.18,0,0,1-1.69-2.48l2-17.1a2,2,0,0,1,2.2-1.89h0a2.18,2.18,0,0,1,1.69,2.47Z" fill="#283593"/>
        <path d="M23.94,5.94l12.6,5.39-.06.11-25,.21-.14-.32Z" fill="#283593"/>
      </g>
    </g>
    <path id="base_1_17_1" data-name="base 1 17 1" d="M-5.37,24A29.33,29.33,0,1,1,24,53.32,29.33,29.33,0,0,1-5.37,24Z" fill="none"/>
    <path id="base_1_13_1" data-name="base 1 13 1" d="M-5.37,24A29.33,29.33,0,1,1,24,53.32,29.33,29.33,0,0,1-5.37,24Z" fill="none"/>
    <path id="base_1_9_1" data-name="base 1 9 1" d="M-5.37,24A29.33,29.33,0,1,1,24,53.32,29.33,29.33,0,0,1-5.37,24Z" fill="none"/>
    <path id="base_1_5_1" data-name="base 1 5 1" d="M-5.37,24A29.33,29.33,0,1,1,24,53.32,29.33,29.33,0,0,1-5.37,24Z" fill="none"/>
    <path id="base_1_1_1" data-name="base 1 1 1" d="M-5.37,24A29.33,29.33,0,1,1,24,53.32,29.33,29.33,0,0,1-5.37,24Z" fill="none"/>
    <rect x="-5.37" y="-5.35" width="58.67" height="29.33" fill="none"/>
    <path d="M-5.37,24V-5.35H53.29V24Z" fill="none"/>
    <path d="M-5.37,24V-5.35H53.29V24Z" fill="none"/>
    <path d="M-5.37,24V-5.35H53.29V24Z" fill="none"/>
    <path d="M-5.37,24V-5.35H53.29V24Z" fill="none"/>
    <rect x="-5.37" y="-5.35" width="58.67" height="29.33" fill="none"/>
    <path d="M-5.37,24V-5.35H53.29V24Z" fill="none"/>
    <path d="M-5.37,24V-5.35H53.29V24Z" fill="none"/>
    <path d="M-5.37,24V-5.35H53.29V24Z" fill="none"/>
    <path d="M-5.37,24V-5.35H53.29V24Z" fill="none"/>
    <rect x="-5.37" y="-5.35" width="58.67" height="29.33" fill="none"/>
    <path d="M-5.37,24V-5.35H53.29V24Z" fill="none"/>
    <path d="M-5.37,24V-5.35H53.29V24Z" fill="none"/>
    <path d="M-5.37,24V-5.35H53.29V24Z" fill="none"/>
    <path d="M-5.37,24V-5.35H53.29V24Z" fill="none"/>
    <rect x="-5.37" y="-5.35" width="58.67" height="29.33" fill="none"/>
    <path d="M-5.37,24V-5.35H53.29V24Z" fill="none"/>
    <path d="M-5.37,24V-5.35H53.29V24Z" fill="none"/>
    <path d="M-5.37,24V-5.35H53.29V24Z" fill="none"/>
    <path d="M-5.37,24V-5.35H53.29V24Z" fill="none"/>
    <rect x="-5.37" y="-5.35" width="58.67" height="29.33" fill="none"/>
    <path d="M-5.37,24V-5.35H53.29V24Z" fill="none"/>
    <path d="M-5.37,24V-5.35H53.29V24Z" fill="none"/>
    <path d="M-5.37,24V-5.35H53.29V24Z" fill="none"/>
    <path d="M-5.37,24V-5.35H53.29V24Z" fill="none"/>
  </g>
</svg>
