<svg id="Layer_2" data-name="Layer 2" xmlns="http://www.w3.org/2000/svg" viewBox="0 0 1024 1024">
  <title>trashcan_arrow-svg</title>
  <g>
    <path d="M168.22,238.59l93.47,765.61H762.51l93.2-765.61ZM371.44,913.8h0c-29.15,4.38-56.19-18.88-60.08-51.69L256,395.47c-3.89-32.8,16.78-63.22,45.94-67.6h0c29.15-4.38,56.19,18.88,60.08,51.69L417.38,846.2C421.27,879,400.6,909.42,371.44,913.8Zm194.14-65.62c0,33.09-24.07,60.17-53.48,60.17h0c-29.42,0-53.48-27.08-53.48-60.17V377.4c0-33.1,24.06-60.17,53.48-60.17h0c29.41,0,53.48,27.07,53.48,60.17Zm147.26,13.93c-3.89,32.81-30.93,56.07-60.08,51.69h0c-29.16-4.38-49.83-34.8-45.94-67.6l55.33-466.64c3.89-32.81,30.93-56.07,60.08-51.69h0c29.16,4.38,49.83,34.8,45.94,67.6Z" fill="#283593"/>
    <polygon points="512.1 19.8 168.42 166.8 168.35 166.8 168.35 216.13 855.71 216.13 855.71 166.8 855.78 166.8 512.1 19.8" fill="#283593"/>
  </g>
</svg>
