<svg id="Layer_1" data-name="Layer 1" xmlns="http://www.w3.org/2000/svg" xmlns:xlink="http://www.w3.org/1999/xlink" viewBox="0 0 1024 1024">
  <defs>
    <clipPath id="clip-path">
      <rect x="562.45" y="77.72" width="238.34" height="821.76" fill="none"/>
    </clipPath>
  </defs>
  <title>icon_white-svg</title>
  <g>
    <path d="M567.08,611.26a11.47,11.47,0,0,0-11.47-11.46H466.44A11.49,11.49,0,0,0,455,611.26V625a11.47,11.47,0,0,0,11.47,11.45h89.17A11.45,11.45,0,0,0,567.08,625V611.26Zm0,0" fill="#fff" fill-rule="evenodd"/>
    <path d="M567.08,786.47A11.45,11.45,0,0,0,555.61,775H466.44A11.47,11.47,0,0,0,455,786.47v13.74a11.47,11.47,0,0,0,11.47,11.46h89.17a11.45,11.45,0,0,0,11.47-11.46V786.47Zm0,0" fill="#fff" fill-rule="evenodd"/>
    <rect x="486.86" y="599.8" width="49.21" height="193.54" fill="#fff"/>
    <path d="M390.68,795a145.44,145.44,0,0,1,39.41,71.07A158,158,0,0,1,434,899.21C313.24,863,224.63,745,224.63,605.27c0-113,58-211.75,144-264.58C435,288.31,505.43,233.37,485.93,9.69c107.41,76.45,166.34,163,110.15,303.37,7.35,2.37,14.57,5.07,21.66,8.05V526.39a171.9,171.9,0,0,0-105.4-36c-96.35,0-174.58,79.51-174.58,177.45A178.39,178.39,0,0,0,390.68,795Zm0,0" fill="#fff" fill-rule="evenodd"/>
    <path d="M606.28,518.24c-3.49-3-6.94-6.22-10.79-9-90.56-64.9,27.79-411.54,109-430.35C651.22,172,689.12,268.19,720.24,322a595.22,595.22,0,0,1,66.52,171.31c5.45,24.8,9.66,50,11,72.23a328.91,328.91,0,0,1,2.41,39.69c0,139.71-88.57,257.63-209.3,293.91a160.75,160.75,0,0,1,1.52-20,149.87,149.87,0,0,1,42.28-84.78,179.19,179.19,0,0,0-28.38-276.14Zm0,0" fill="#fff"/>
    <path d="M578.9,943a16.88,16.88,0,0,0-16.85-16.85H460a16.85,16.85,0,1,0,0,33.7h102A16.83,16.83,0,0,0,578.9,943Zm0,0" fill="#fff" fill-rule="evenodd"/>
    <path d="M560.86,976.93a52.11,52.11,0,0,1-99.68,0Zm0,0" fill="#fff" fill-rule="evenodd"/>
  </g>
</svg>
