<svg id="Layer_1" data-name="Layer 1" xmlns="http://www.w3.org/2000/svg" viewBox="0 0 990.61 1031.49">
  <title>logo_plain-svg</title>
  <g id="Logo_Group" data-name="Logo Group">
    <path d="M167.46,839.1V945.3c19.35-19.31,36.65-36.55,53.93-53.81,7.26-7.25,14.3-14.74,21.77-21.77,10.53-9.92,22.12-10.4,32.26-.29,11.17,11.14,9,23.38-1.46,33.93-23.45,23.73-128.67,128.1-130.11,128.1-1.14,0-90.71-85.59-129.55-126.22C3.65,894.61.64,882.67,12.4,871.65c11-10.32,23.23-8.78,33.93,1.87,7.29,7.25,14.26,14.81,21.55,22.07C84.72,912.36,101.67,929,121,948.16V831.75C136.9,831.73,152.32,834.51,167.46,839.1Z" fill="#292929"/>
    <path d="M7,779.83c-7-7-5.23-9.37-4.62-14.27,1.88-15.28,11.87-37.32,14.11-46.76a22.19,22.19,0,0,1,5.14-10.47c3-3.21,7-5.14,12.31-6.72,15.39-4.58,30.74-1.37,46-1.23,11.45.12,17.15-3.36,21.06-14.32,12.46-34.85,26.52-69.15,38.74-104.08,2.63-7.52,6.08-11.91,12.64-15.29,52.14-26.88,121.78-56.48,161.16-69.65,18.09-6,36.77-10.88,54.4-18.18,28.44-11.79,40.21-32.85,39.64-63.73-.2-10.35-3.44-14.32-13.29-12.6-12.83,2.23-14.77-4.29-14.46-15.32.7-24.44.58-48.92.05-73.37-.21-9.32,2.95-12.22,12.12-12,22.51.53,45,.05,67.58.23,7.6.06,13.49.29,13.4-10.62-.45-53.43-.35-106.86-.05-160.28,0-8.4-2.75-10.87-11.06-11.14-30.29-1-60.19,3.3-90.19,5.88-47.21,4.08-94.35,9-141.51,13.76-9.46,1-14.13-1.56-13.87-12.35.6-25.74.42-51.5,0-77.24-.14-9.79,2.63-13.78,13.39-12.77q97.54,9.15,195.19,17.18c5.26.44,12.51,3.2,15.82-3.26C451.2,30.81,471,21.1,488.22,8.33c13.24-9.83,48.91-10,61.82,0,15,11.64,32.12,21.06,43.16,36.94,6.11,8.79,13.42,10.23,22.79,9.38,64.47-5.83,129-11.4,193.41-17.42,10.89-1,15.05,2.24,14.77,13.58-.64,25.1-.74,50.25,0,75.34.35,11.62-4.31,14.65-14.77,13.53-31.91-3.42-63.8-7.34-95.81-9.6-44.76-3.16-89.21-10.32-134.26-10.06-10,.06-13.29,3-13.2,13.19.43,51.52.63,103-.11,154.56-.18,12.92,5,14.79,16,14.43,20.58-.68,41.24.57,61.8-.48,12.36-.63,15.25,3.76,14.85,15.32-.82,23.8-.74,47.67,0,71.47.32,10.77-2.64,15.28-13.91,14.23-4.81-.45-12.46-3.38-13.38,6-2.29,23.33.7,45.24,20.08,61.19q57.48,47.32,132.17,48.61c10.46.2,18.35,1.52,20.87-12.37,1.5-8.25,5.28-24,6.88-37,.63-5.16,7.77-4.93,11.84-5,25.12-.2,50.24-.15,75.35-.05,3.65,0,9.56-.3,10,3.1C910,480.06,921.34,478.9,930.7,479c19.94.25,42.31.57,62.26.74V727.07c-22.46.46-60.49,1.23-69.77,1.44-4.3.1-11.29-.55-12.21,2.47-3.65,12.07-14.22,11.06-22.93,11.33-21.21.66-42.46-.22-63.67.4-9.86.28-13.1-2.69-13.44-12.9-1-29.62-10-37.52-39.85-37.52-25.08,0-50.17-.1-75.26.08-5,0-9.82-.67-14.87,2.11-38,20.93-80.28,24.73-122.11,28.29a512.12,512.12,0,0,1-117.08-3.62c-43.16-6.27-84.11-20.65-123.15-39.52C307,674,297,667.56,283.5,669c-21.78,2.33-39.69,21-44.08,50-2,12.87,8.54,15.62,10.79,16.62,4.42,2,25.83,9.15,30.28,11.53,6.72,3.6,18.41,11.77,15.1,31.4-1.63,9.66-5.94,29.37-7.74,41.39-1.76,11.75-6.66,14.51-17.21,15.6-34.34,3.55-67.81,5.43-103.18,3.6-17.12-.89-30-4.63-46.42-7.35C89.1,826.44,25.39,796.07,7,779.83Z" fill="#fea501"/>
  </g>
</svg>
