<svg id="Layer_1" data-name="Layer 1" xmlns="http://www.w3.org/2000/svg" xmlns:xlink="http://www.w3.org/1999/xlink" viewBox="0 0 1024 1024">
  <defs>
    <clipPath id="clip-path">
      <rect x="-185" y="-131.61" width="1456.61" height="1456.61" fill="none"/>
    </clipPath>
    <clipPath id="clip-path-4">
      <rect x="26.96" y="-263.03" width="905.96" height="905.96" fill="none"/>
    </clipPath>
  </defs>
  <title>knocking_hand-svg</title>
  <g clip-path="url(#clip-path)">
    <g clip-path="url(#clip-path)">
      <g clip-path="url(#clip-path)">
        <path d="M820.84,801.93c.22-9.17,0-269.25,0-269.25A52.81,52.81,0,0,0,724.25,512S726.63,490,721.56,480c-7.65-15.1-24-34.76-49.88-34.76a53.63,53.63,0,0,0-45.3,24.89s.14-10.86.14-12.09a52.62,52.62,0,0,0-97.16-28A57.26,57.26,0,1,0,416,418.53v30.94s1.6,167.32-.72,174.16-11.9,10.78-18.73,9.1c-5.54-1.36-11.5-6.34-14.24-13.9-3-8.36,3.33-83.93.61-98.65-3-16.39-3-19.95-16.36-43.15-13.07-22.76-24.43-38.63-48.76-37.21-23.49,1.36-27.1,42-26.75,76.74.05,4.74,2.39,227.23,4.75,242.3,2.25,14.4,118.77,241.58,128,246.8,12.1,6.82,339.27,3.18,343.7,1.77,5.2-1.64,20-18.13,22.35-26.67s30.84-173.55,31-178.83"/>
        <path d="M820.84,801.93c.22-9.17,0-269.25,0-269.25A52.81,52.81,0,0,0,724.25,512S726.63,490,721.56,480c-7.65-15.1-24-34.76-49.88-34.76a53.63,53.63,0,0,0-45.3,24.89s.14-10.86.14-12.09a52.62,52.62,0,0,0-97.16-28A57.26,57.26,0,1,0,416,418.53v30.94s1.6,167.32-.72,174.16-11.9,10.78-18.73,9.1c-5.54-1.36-11.5-6.34-14.24-13.9-3-8.36,3.33-83.93.61-98.65-3-16.39-3-19.95-16.36-43.15-13.07-22.76-24.43-38.63-48.76-37.21-23.49,1.36-27.1,42-26.75,76.74.05,4.74,2.39,227.23,4.75,242.3,2.25,14.4,118.77,241.58,128,246.8,12.1,6.82,339.27,3.18,343.7,1.77,5.2-1.64,20-18.13,22.35-26.67S820.71,807.21,820.84,801.93Z" fill="none" stroke="#000" stroke-miterlimit="10" stroke-width="1.42"/>
      </g>
    </g>
  </g>
  <g clip-path="url(#clip-path-4)">
    <g clip-path="url(#clip-path-4)">
      <path d="M198.42,185.6c155.23-155.23,407.81-155.23,563,0" fill="none" stroke="#000" stroke-linecap="round" stroke-miterlimit="10" stroke-width="88.47"/>
      <path d="M323.54,310.72c86.24-86.24,226.56-86.24,312.79,0" fill="none" stroke="#000" stroke-linecap="round" stroke-miterlimit="10" stroke-width="88.47"/>
    </g>
  </g>
</svg>
