<svg xmlns="http://www.w3.org/2000/svg" viewBox="0 0 1024 1024">
  <title>vrknock-svg</title>
  <g id="Layer_1" data-name="Layer 1">
    <path d="M992.14,444.65H979.35C973.75,359.08,902,290.8,815.1,290.8H208.91C122,290.8,50.25,359.08,44.65,444.65H31.86A12.93,12.93,0,0,0,19,457.55v89.2a12.93,12.93,0,0,0,12.9,12.89H44.29v8.94c0,90.54,74.08,164.62,164.62,164.62H815.1c90.53,0,164.61-74.08,164.61-164.62v-8.94h12.43a12.93,12.93,0,0,0,12.9-12.89v-89.2A12.93,12.93,0,0,0,992.14,444.65Z"/>
  </g>
  <g id="Layer_2" data-name="Layer 2">
    <g>
      <path d="M672.75,753.28c.11-4.74,0-139.09,0-139.09a27.28,27.28,0,0,0-49.88-10.68s1.23-11.39-1.39-16.56c-4-7.8-12.4-18-25.76-18a27.71,27.71,0,0,0-23.41,12.86s.07-5.61.07-6.24a27.19,27.19,0,0,0-50.19-14.49,29.58,29.58,0,1,0-58.56-5.91v16s.82,86.43-.37,90-6.15,5.57-9.68,4.7a11.24,11.24,0,0,1-7.36-7.18c-1.56-4.32,1.72-43.36.32-51-1.56-8.46-1.57-10.3-8.45-22.29-6.75-11.75-12.62-19.95-25.19-19.22-12.13.71-14,21.7-13.82,39.65,0,2.44,1.23,117.38,2.45,125.17,1.16,7.44,61.36,124.8,66.14,127.49,6.25,3.53,175.26,1.65,177.56.92,2.68-.85,10.31-9.37,11.54-13.78s15.93-89.65,16-92.38" fill="#bababa"/>
      <g>
        <path d="M351.21,434.88c80.19-80.19,210.67-80.19,290.86,0" fill="none" stroke="#bababa" stroke-linecap="round" stroke-miterlimit="10" stroke-width="45.7"/>
        <path d="M415.84,499.52a114.39,114.39,0,0,1,161.59,0" fill="none" stroke="#bababa" stroke-linecap="round" stroke-miterlimit="10" stroke-width="45.7"/>
      </g>
    </g>
  </g>
</svg>
