<svg xmlns="http://www.w3.org/2000/svg" viewBox="0 0 1024 1024">
  <title>mineskin-svg</title>
  <g id="Layer_2" data-name="Layer 2">
    <polygon points="987.9 860.6 439.03 1023.76 35.22 786.58 36.05 171.7 593.49 0 989.13 245.93 987.9 860.6" fill="#261a0a"/>
  </g>
  <g id="Layer_1" data-name="Layer 1">
    <path d="M30.86,712.77c-.42-175.19-1.07-350.37-.55-525.56,0-8.58,8.68-22.61,16.11-24.86,75.36-22.81,151.31-43.7,227.09-65.13q7.8,19.74,15.61,39.47c-13.85,3.4-28.24,5.52-41.17,11.05-3.52,1.5-5.67,18.14-3.29,19.64,27.28,17.2,4.49,19.82-6.78,26.41-8.67,5.08-16.81,11.05-25.18,16.63,8.54,7.74,16.22,16.84,25.81,23,18.71,11.9,38.49,22.13,57.82,33.05-10.17,18.1-36.87,30-21.62,57.66q0,25.21,0,50.44c-17.92,1.49-40.79-6.58-43.18,23.81-1.88,23.75-6.89,47.42-6.73,71.11.19,29.88-14.33,31.9-36.6,23.57-9-3.35-17.3-8.31-26-12.36-20.2-9.39-30-6-32.22,19.33-3.71,43.26,28.2,53.79,56.79,68.5,23.05,11.86,39.3,12.85,37.87-21-.59-13.84-.65-34.22,22.6-22.45,25.17,12.74,25.38-2.37,27.58-19.47,4.39-34.11,9.51-68.13,14.32-102.18l28.82,14.42c2.41,12.52,5.61,24.94,7.08,37.56,3.72,31.86,18,54.75,50.57,63.36l43.25,36-1,60.45c-17.34-5-35.66-7.89-51.77-15.5-22.62-10.68-32.49-7.27-34.31,19.1-.7,10.15-9,19.78-13.82,29.65-42.55-17.17-42.53-17.17-43.22,32.62-.08,5.91-.6,11.81-.92,17.72-26.66-12.14-48.69-17.62-43.61,25.72.63,5.42-9.13,12-14.07,18.11l-27.8-15.67c-49-22.64-48.87-22.62-59.29,29-.62,3.1-4.17,5.61-6.35,8.4Z" fill="#281b0b"/>
    <path d="M744.13,93.11c69,39.88,136.8,81.93,207.38,118.72,34.1,17.78,45.62,36.8,44.8,77-.72,35.6-1.64,71.53-2.06,107.34l-71.84,23.75L851.5,433q-3.72-36.45-7.43-72.89c12.85-42,14.09-81-28.81-108.14,30.29-33.91,30.29-33.92-13.64-61.4-9-5.63-18.45-10.63-27-16.85-29.86-21.73-59.42-43.87-89.09-65.85Z" fill="#2c1e0d"/>
    <path d="M853.34,903.81,570.23,987.43q-1-36.61-2-73.24-1.71-39.35-3.41-78.69,2.7-3.56,5.38-7.12l64.84-14.09c.93,72.65.93,72.65,70.1,54.42,1.16-.31,2.22-.94,3.38-1.25,69.2-18.16,69.2-18.16,71.63-89.46l6.23-5.89a12,12,0,0,0,.39-4.68l64.27-16.32Q852.21,827.46,853.34,903.81Z" fill="#43220e"/>
    <path d="M744.13,93.11l-58.61,14.78L627.87,122.3c-9.85,4-20.31,7-29.46,12.22-60.22,34.57-178.06-8.42-202.79-74.33C457.16,40.73,518.63,21,580.34,2.13c7.43-2.28,17.92-3.4,24,.12" fill="#261a0a"/>
    <path d="M568.26,914.19q1,36.62,2,73.24c-43.64,12.82-86.64,30.29-131.2,36.33-19.8,2.68-42.74-17.68-64.25-27.59q.36-44.11.73-88.24,0-28.9.1-57.79L425.84,872c0,15.44.87,30.94-.08,46.32-1.63,26.35,2.55,37.17,33.58,24.88C494,929.45,531.82,923.52,568.26,914.19Z" fill="#6f452d"/>
    <path d="M994.64,634.24c.31,63.3-.89,126.65,1.6,189.86,1.16,29.38-5.76,44.13-37,50.62-11.5,2.39-23,5.82-34.51,8.88-2.81-19.48-8.07-39-7.89-58.43.29-32.59,4-65.15,6.34-97.73l-.72-80.79a7.45,7.45,0,0,1,1.2-5.35Z" fill="#855335"/>
    <path d="M324.41,967.61l-64-38.4q7.16-71.93,14.32-143.85c4.59,1.13,9.45,1.63,13.73,3.49,36.85,16,35.8,16.08,37.13-25.73,1.08-33.79,5-67.49,7.65-101.23l45,29.3L376.05,763q-.23,36.39-.44,72.78c-43.34-18.32-43.33-18.32-43.37,32.48,0,8.39-.06,16.77-.1,25.15Q328.29,930.5,324.41,967.61Z" fill="#986244"/>
    <path d="M395.62,60.19c24.73,65.91,142.57,108.9,202.79,74.33,9.15-5.24,19.61-8.2,29.46-12.22,2.32,21.27,16.33,46.17-18.28,56-2.44.69-2.29,10.51-3.35,16.08-18.81-2.43-39.24-10.71-56.09-6.05-33.08,9.14-58.59,1.08-86.51-15.94-22.11-13.47-48.9-19.25-73.61-28.44-6.47-25.08-22.78-31.25-46.1-24.06q-27.39,8.46-54.81,16.84-7.8-19.74-15.61-39.47Z" fill="#2c1e0d"/>
    <path d="M993.85,474.33q.1,40.07.22,80.13l-71.42,24-71.23,13.32-.21-80.42,70.86-21.06Z" fill="#99684b"/>
    <path d="M923.13,727.44c-2.3,32.58-6,65.14-6.34,97.73-.18,19.45,5.08,39,7.89,58.43l-71.34,20.21q-1.14-76.35-2.27-152.71c.19-3,.37-5.89.56-8.83Z" fill="#8c5a3c"/>
    <path d="M30.86,712.77l91.77,51.54,15.64,13.51-7.77,72.6c-29.32-17.19-59.56-33-87.38-52.39-8.07-5.62-11.07-20.39-12.26-31.75C29,748.85,30.45,730.43,30.86,712.77Z" fill="#855335"/>
    <path d="M274.71,785.36q-7.17,71.92-14.32,143.85l-36.25-21.9q.2-42.79.37-85.58-.13-32.72-.28-65.41l50.38,21.38C274.65,780.25,274.68,782.81,274.71,785.36Z" fill="#99684b"/>
    <path d="M993.85,474.33l-71.78,15.93q.18-35.19.34-70.37l71.83-23.75Z" fill="#2e1e0e"/>
    <path d="M922.65,578.42l71.42-24,.57,79.78-71,7.06Z" fill="#a97c65"/>
    <path d="M324.41,967.61l7.74-74.22,43.35,14.54-.72,88.24Z" fill="#8c5a3c"/>
    <path d="M130.5,850.42l7.77-72.6L181,799.27q.14,3.76.25,7.53-.16,36.3-.34,72.59Z" fill="#986244"/>
    <path d="M180.88,879.39q.18-36.3.34-72.58l43.3,14.93q-.2,42.78-.38,85.57Z" fill="#855335"/>
    <path d="M378.2,691.19l-45-29.3-15.32-13.46c4.83-9.87,13.12-19.5,13.82-29.65,1.82-26.37,11.69-29.78,34.31-19.1,16.11,7.61,34.43,10.5,51.77,15.5l1-60.45c2.4-8.8,6.73-17.56,6.88-26.4.58-34.09-7.65-71.66,41.2-81.91,3.93-.83,9.72-13.84,7.81-16.83-3.55-5.55-12.05-10.92-18.63-11.08-43-1.07-80.46,37.92-80.49,82.28q0,9,0,17.91C343,510.09,328.74,487.2,325,455.34c-1.47-12.62-4.67-25-7.08-37.56,3.59,0,7.2.23,10.77,0,18.35-1.42,36.69-3,55-4.46-11.77-11.22-23.94-22.06-35.15-33.81-5.68-6-8.17-15.74-14.61-20.05-19.09-12.78-39.42-23.69-59.27-35.34-15.25-27.65,11.45-39.56,21.62-57.66,10.83,4.12,21.37,9.46,32.55,12.07,14.52,3.38,30.36,8.55,44.17,5.75,18-3.65,25-20.34,5.46-29.49-40.27-18.87-55.55-39.61-17.31-74.83,17,10.68,36,19.16,50.32,32.63,16.1,15.15,75.6,21.61,17.23,59.58-1.84,1.2-.21,7-1.33,10.2-3.38,9.66-4.75,22-11.55,28.09-16.21,14.51-10.84,22.11,3.57,33.32,45.83,35.64,98.37,12.65,147.53,17.38,19,1.83,39.12-8.76,58.74-13.68q6.63,28.17,13.28,56.35c1.09,4.65,2.2,9.3,3.3,13.95q-3.63,38.88-7.25,77.75l-64.78,24.3c-73.41,16.9-73.41,16.9-73,91.17,0,2.39.13,4.79.2,7.18-69.76,24.37-69.76,24.37-73.58,87.76Z" fill="#2c1e0d"/>
    <path d="M361.2,179.92c-38.24,35.22-23,56,17.31,74.83,19.54,9.15,12.51,25.84-5.46,29.49-13.81,2.8-29.65-2.37-44.17-5.75-11.18-2.61-21.72-7.95-32.55-12.07-19.33-10.92-39.11-21.15-57.82-33.05-9.59-6.11-17.27-15.21-25.81-23,8.37-5.58,16.51-11.55,25.18-16.63,11.27-6.59,34.06-9.21,6.78-26.41-2.38-1.5-.23-18.14,3.29-19.64,12.93-5.53,27.32-7.65,41.17-11.05q27.4-8.41,54.81-16.84c23.32-7.19,39.63-1,46.1,24.06C383.22,158.15,344.81,147.1,361.2,179.92Z" fill="#2e1e0e"/>
    <path d="M289.12,403.36c-4.81,34.05-9.93,68.07-14.32,102.18-2.2,17.1-2.41,32.21-27.58,19.47-23.25-11.77-23.19,8.61-22.6,22.45,1.43,33.87-14.82,32.88-37.87,21-28.59-14.71-60.5-25.24-56.79-68.5,2.18-25.35,12-28.72,32.22-19.33,8.7,4.05,17,9,26,12.36,22.27,8.33,36.79,6.31,36.6-23.57-.16-23.69,4.85-47.36,6.73-71.11,2.39-30.39,25.26-22.32,43.18-23.81Z" fill="#2c1e0d"/>
    <path d="M317.89,648.43l15.32,13.46c-2.65,33.74-6.56,67.44-7.64,101.23-1.33,41.81-.28,41.77-37.13,25.73-4.28-1.86-9.14-2.36-13.73-3.49,0-2.55-.06-5.11-.1-7.66q-.42-39.47-.86-78.93c.32-5.91.84-11.81.92-17.72C275.36,631.26,275.34,631.26,317.89,648.43Z" fill="#855335"/>
    <path d="M375.59,518.7q0-9,0-17.91c0-44.36,37.52-83.35,80.49-82.28,6.58.16,15.08,5.53,18.63,11.08,1.91,3-3.88,16-7.81,16.83-48.85,10.25-40.62,47.82-41.2,81.91-.15,8.84-4.48,17.6-6.88,26.4Z" fill="#2e1e0e"/>
    <path d="M289.12,403.36l-14.43-28.84q0-25.23,0-50.44c19.85,11.65,40.18,22.56,59.27,35.34,6.44,4.31,8.93,14.09,14.61,20.05,11.21,11.75,23.38,22.59,35.15,33.81-18.34,1.5-36.68,3-55,4.46-3.57.27-7.18,0-10.77,0Z" fill="#2e1e0e"/>
    <path d="M181,799.27l-42.7-21.45-15.64-13.51c2.18-2.78,5.73-5.29,6.35-8.39,10.42-51.61,10.34-51.63,59.29-29Q184.63,763.11,181,799.27Z" fill="#2e1e0e"/>
    <path d="M273.75,698.77q.44,39.47.86,78.93l-50.38-21.38-8.16-13.72c4.94-6.06,14.7-12.69,14.07-18.11C225.06,681.15,247.09,686.63,273.75,698.77Z" fill="#2c1e0d"/>
    <path d="M216.07,742.6l8.16,13.72q.14,32.7.28,65.41l-43.29-14.92q-.12-3.78-.25-7.54,3.65-36.16,7.3-72.34Z" fill="#6f452d"/>
    <path d="M361.2,179.92c-16.39-32.82,22-21.77,28.83-36,24.71,9.19,51.5,15,73.61,28.44,27.92,17,53.43,25.08,86.51,15.94,16.85-4.66,37.28,3.62,56.09,6.05,19,11.47,14.86,17.86-3.94,24.32-8.79,3-15.76,11.37-23.56,17.31,9.91,7.5,19,19.45,29.92,21.36,13.12,2.3,28.47-2,41.59-6.81,54.17-20,107.84-39.49,161.47,1,.82.62,2.34.31,3.54.43,42.9,27.17,41.66,66.11,28.81,108.14L707.13,403.34l-64.84,14.4c-1.1-4.65-2.21-9.3-3.3-13.95q-6.65-28.17-13.28-56.35C606.09,352.36,585.93,363,567,361.12c-49.16-4.73-101.7,18.26-147.53-17.38-14.41-11.21-19.78-18.81-3.57-33.32,6.8-6.09,8.17-18.43,11.55-28.09,1.12-3.24-.51-9,1.33-10.2,58.37-38-1.13-44.43-17.23-59.58C397.19,199.08,378.16,190.6,361.2,179.92ZM525.48,333.39c14.67-4,26.69-5.77,37.31-10.62,7.87-3.59,13.91-11.17,20.77-17-7.56-6-15.07-16.93-22.7-17-21.79-.22-43.8,3.1-65.23,7.46-2.81.57-6.37,20.41-3.33,22.59C502.4,326.06,515.36,329.31,525.48,333.39Z" fill="#261a0a"/>
    <path d="M815.26,252c-1.2-.12-2.72.19-3.54-.43-53.63-40.53-107.3-21.07-161.47-1-13.12,4.85-28.47,9.11-41.59,6.81-10.89-1.91-20-13.86-29.92-21.36,7.8-5.94,14.77-14.28,23.56-17.31,18.8-6.46,23-12.85,3.94-24.32,1.06-5.57.91-15.39,3.35-16.08,34.61-9.79,20.6-34.69,18.28-56l57.65-14.41c29.67,22,59.23,44.12,89.09,65.85,8.56,6.22,18,11.22,27,16.85C845.55,218.07,845.55,218.08,815.26,252Z" fill="#2e1e0e"/>
    <path d="M707.12,403.34l137-43.21q3.72,36.45,7.43,72.89a46.64,46.64,0,0,0-.36,5.79l-143.5,37.82Q707.39,440,707.12,403.34Z" fill="#492512"/>
    <path d="M851.14,438.81a46.64,46.64,0,0,1,.36-5.79l70.91-13.13q-.17,35.19-.34,70.37l-70.86,21.06Q851.18,475.06,851.14,438.81Z" fill="#a97c65"/>
    <path d="M786.8,767.43a12.07,12.07,0,0,1-.38,4.67,49,49,0,0,0-6.15-.9l-144,35.51q-.62-35.82-1.22-71.66l72.44-23.21,71.75-20.25Z" fill="#6f452d"/>
    <path d="M568.26,914.19c-36.44,9.33-74.23,15.26-108.92,29-31,12.29-35.21,1.47-33.58-24.88.95-15.38.11-30.88.08-46.32l.3-.25,71.93-21.46,66.78-14.79Q566.56,874.85,568.26,914.19Z" fill="#8c5a3c"/>
    <path d="M636.27,806.71l144-35.51a13.07,13.07,0,0,0-.08,6.8c-2.43,71.3-2.43,71.3-71.63,89.46-1.16.31-2.22.94-3.38,1.25C636,886.94,636,886.94,635.07,814.29Z" fill="#855335"/>
    <path d="M564.85,835.5l-66.78,14.79q0-35.85,0-71.71c0-2.56.07-5.13.11-7.69L569,754.43l1.23,74Q567.55,831.94,564.85,835.5Z" fill="#a97c65"/>
    <path d="M786.8,767.43l-7.56-75.84.37-.44,69.58-18q1.23,34.55,2.44,69.11c-.19,2.94-.37,5.88-.56,8.83Z" fill="#b4856f"/>
    <path d="M570.23,828.38l-1.23-74a2.28,2.28,0,0,1,1-3.16l65.08-16.17,0-.05q.6,35.84,1.22,71.66l-1.2,7.58Z" fill="#b4856f"/>
    <path d="M780.18,778a13.07,13.07,0,0,1,.08-6.8,48.89,48.89,0,0,1,6.16.9Z" fill="#492512"/>
    <path d="M375.61,835.76q.22-36.39.44-72.77L425,791.57q.6,40.09,1.19,80.18l-.3.25-50.23-21.86Z" fill="#8c5a3c"/>
    <path d="M375.61,835.76v14.38q0,28.89-.1,57.79l-43.36-14.54c0-8.38.09-16.76.09-25.15C332.28,817.44,332.27,817.44,375.61,835.76Z" fill="#855335"/>
    <path d="M851.63,742.27q-1.21-34.56-2.42-69.07c.28-1.62.61-3.28,1-4.91l72.18-21.64.72,80.79Z" fill="#99684b"/>
    <path d="M922.41,646.65l-72.18,21.64q-1.14-34.95-2.3-69.89l3.49-6.66,71.23-13.32,1,62.88A7.45,7.45,0,0,0,922.41,646.65Z" fill="#fdfdfd"/>
    <path d="M424.94,791.57,376.05,763l2.13-71.8,45.73,14.71c1,2.49,2,5,2.93,7.48l-1.2,79.08Z" fill="#492512"/>
    <path d="M851.42,591.74c-1.16,2.22-2.33,4.44-3.48,6.67l-68.82,13.87-.16-.09c.12-8.33.32-16.66.34-25,.1-52.35,0-52.54-51.53-38.39-50.16,13.76-100.19,28-150.28,42l-7.23-71L635,495.49l72.6-18.86,143.5-37.82q0,36.26.07,72.51Z" fill="#b88972"/>
    <path d="M570.26,519.79l7.23,71q-5,44.08-10,88.17l-69.64,19q-.18-39.91-.35-79.82c-.07-2.39-.18-4.79-.2-7.18C496.85,536.69,496.85,536.69,570.26,519.79Z" fill="#b4856f"/>
    <path d="M497.49,618.14q.18,39.92.35,79.82l-.48.53-70.51,14.89-2.94-7.48C427.73,642.51,427.73,642.51,497.49,618.14Z" fill="#a97c65"/>
    <path d="M707.64,476.63,635,495.49q3.63-38.87,7.25-77.75l64.84-14.4Z" fill="#2e1e0e"/>
    <path d="M525.48,333.39c-10.12-4.08-23.08-7.33-33.18-14.56-3-2.18.52-22,3.33-22.59,21.43-4.36,43.44-7.68,65.23-7.46,7.63.08,15.14,11,22.7,17-6.86,5.81-12.9,13.39-20.77,17C552.17,327.62,540.15,329.4,525.48,333.39Z" fill="#2c1e0d"/>
    <path d="M567.48,679q5-44.09,10-88.17c50.09-14,100.12-28.26,150.28-42,51.56-14.15,51.63-14,51.53,38.39,0,8.34-.22,16.67-.34,25C706.25,639,706.25,639,707.49,711.84l-72.44,23.21,0,.05c1.08-84.29,1.08-84.29-66.3-56.67Z" fill="#a97c65"/>
    <path d="M707.49,711.84C706.25,639,706.25,639,779,612.19l.16.09q.24,39.44.49,78.87l-.37.44Z" fill="#b88972"/>
    <path d="M426.14,871.75q-.6-40.08-1.19-80.18s.69.89.69.89l72.41-13.87q0,35.85,0,71.7Z" fill="#986244"/>
    <path d="M497.84,698l69.64-19,1.32-.56q.62,36.41,1.21,72.84a2.28,2.28,0,0,0-1,3.16l-70.84,16.46q-.41-36.2-.8-72.4Z" fill="#fdfdfd"/>
    <path d="M497.36,698.49q.4,36.21.8,72.4c0,2.56-.07,5.13-.11,7.69l-72.41,13.88,1.2-79.08Z" fill="#b4856f"/>
    <path d="M779.61,691.15q-.25-39.43-.49-78.87l68.82-13.87q1.14,34.92,2.29,69.88c-.41,1.63-.74,3.29-1,4.91Q814.4,682.13,779.61,691.15Z" fill="#543e87"/>
    <path d="M570,751.27q-.6-36.42-1.21-72.84c67.37-27.62,67.37-27.62,66.29,56.67Z" fill="#543e87"/>
  </g>
</svg>
